{"glyphs":{"0":{"ha":622,"x_min":33,"x_max":586,"o":"m 586 392 q 559 206 586 289 q 489 66 532 124 q 392 -23 446 8 q 286 -54 339 -54 q 164 -17 213 -54 q 86 76 115 21 q 45 193 57 131 q 33 306 33 256 q 55 469 33 386 q 110 620 76 553 q 188 730 144 688 q 272 772 231 772 q 292 769 282 772 q 303 749 303 765 q 288 710 303 729 q 274 668 274 690 q 278 660 274 660 q 285 663 279 660 q 322 681 301 672 q 363 694 340 688 q 410 700 385 700 q 479 678 447 700 q 535 615 511 656 q 573 518 560 575 q 586 392 586 461 m 460 410 q 446 499 457 460 q 415 560 435 532 q 354 588 394 588 q 324 583 343 588 q 285 569 306 578 q 244 549 264 561 q 213 519 225 536 q 190 473 199 501 q 175 412 181 444 q 167 346 169 379 q 165 283 165 313 q 171 219 165 254 q 189 152 176 183 q 223 99 201 121 q 276 78 244 78 q 328 97 297 78 q 389 156 360 115 q 439 259 418 196 q 460 410 460 322 z "},"1":{"ha":443,"x_min":33,"x_max":407,"o":"m 407 688 q 403 662 407 672 q 394 641 400 651 q 383 618 389 631 q 374 586 378 606 q 361 519 369 564 q 346 416 353 474 q 333 295 339 358 q 328 172 328 232 q 333 91 328 128 q 344 22 338 54 q 346 17 344 19 q 349 4 349 11 q 340 -29 347 -14 q 322 -52 333 -42 q 286 -62 310 -62 q 242 -47 258 -62 q 215 -8 225 -32 q 203 44 206 15 q 200 100 200 72 q 203 170 200 128 q 212 260 207 213 q 223 355 217 307 q 234 442 229 403 q 243 507 239 481 q 249 538 247 533 q 246 556 249 553 q 238 560 243 560 q 224 553 233 560 q 203 538 214 547 q 181 516 192 528 q 164 494 171 504 q 121 442 144 463 q 78 421 97 421 q 39 438 44 421 q 33 468 33 454 q 71 554 33 508 q 161 640 108 600 q 269 705 214 679 q 363 731 325 731 q 391 723 375 731 q 407 688 407 715 z "},"2":{"ha":567,"x_min":-10,"x_max":547,"o":"m 547 46 q 540 14 547 25 q 525 -3 533 3 q 503 -10 515 -8 q 478 -6 488 -10 q 456 2 468 -3 q 427 10 444 7 q 378 14 410 14 q 271 -1 319 14 q 182 -33 222 -15 q 108 -65 142 -50 q 43 -79 74 -79 q 15 -72 25 -79 q -1 -56 4 -65 q -8 -37 -7 -47 q -10 -21 -10 -28 q 6 27 -8 4 q 44 75 21 50 q 128 169 82 118 q 217 272 174 219 q 296 372 260 324 q 349 460 332 421 q 366 507 361 488 q 371 540 371 526 q 365 568 371 558 q 351 583 360 578 q 335 588 343 588 q 321 589 326 589 q 260 574 289 589 q 210 543 232 560 q 163 497 185 522 q 115 448 135 457 q 86 438 96 439 q 49 456 57 438 q 40 492 40 475 q 62 560 40 521 q 124 634 83 599 q 223 694 165 669 q 354 719 281 719 q 401 715 374 719 q 453 697 428 711 q 495 654 478 682 q 513 579 513 626 q 485 460 513 522 q 415 335 457 397 q 325 215 374 272 q 235 113 276 158 q 239 103 235 103 q 260 108 242 103 q 304 120 278 114 q 363 132 331 126 q 428 138 396 138 q 512 114 476 138 q 547 46 547 90 z "},"3":{"ha":514,"x_min":33,"x_max":485,"o":"m 485 243 q 472 167 485 203 q 438 101 458 132 q 390 43 417 69 q 335 -4 363 17 q 186 -93 268 -54 q 118 -107 146 -107 q 79 -101 94 -107 q 56 -87 64 -96 q 44 -67 47 -78 q 42 -49 42 -57 q 48 -25 42 -33 q 63 -11 54 -17 q 83 -3 71 -6 q 169 28 124 6 q 254 80 215 50 q 319 144 293 110 q 344 211 344 179 q 323 250 344 233 q 269 277 301 267 q 202 292 238 288 q 140 297 167 297 q 125 297 132 297 q 113 296 118 297 q 63 333 63 296 q 83 382 63 358 q 133 426 103 406 q 197 467 163 447 q 262 503 232 486 q 312 534 292 519 q 332 561 332 549 q 317 585 332 575 q 283 601 303 594 q 244 610 264 607 q 214 613 224 613 q 174 609 192 613 q 142 601 156 606 q 113 590 126 596 q 72 578 88 578 q 52 583 60 578 q 40 594 44 588 q 35 608 36 601 q 33 618 33 614 q 40 651 33 632 q 67 686 47 669 q 119 714 86 703 q 204 725 151 725 q 289 715 242 725 q 378 686 336 706 q 448 636 419 667 q 476 564 476 606 q 463 522 476 540 q 428 487 449 503 q 382 458 407 471 q 336 433 357 444 q 301 410 315 421 q 288 389 288 399 q 297 380 288 385 q 317 371 306 375 q 347 361 331 365 q 415 335 385 350 q 463 299 442 321 q 485 243 485 276 z "},"4":{"ha":610,"x_min":-7,"x_max":610,"o":"m 610 213 q 597 190 610 194 q 572 185 583 185 l 564 185 q 560 186 561 185 q 506 192 532 189 q 453 196 479 196 q 449 193 451 196 l 447 192 q 446 161 446 176 q 446 131 446 146 q 450 51 446 86 q 465 -8 454 15 q 469 -17 467 -12 q 472 -25 471 -21 q 474 -36 474 -29 q 465 -68 474 -56 q 445 -87 457 -81 q 422 -95 433 -93 q 404 -97 410 -97 q 362 -78 378 -97 q 337 -31 346 -60 q 325 33 328 -1 q 322 99 322 68 q 322 131 322 115 q 324 157 322 146 q 326 181 325 171 q 324 183 326 183 l 321 183 q 227 159 260 169 q 174 140 194 149 q 133 122 153 131 q 79 100 114 113 q 36 90 54 90 q 1 108 8 90 q -7 143 -7 125 q -7 156 -7 150 q -6 167 -7 161 q -3 178 -4 172 q 53 310 15 242 q 138 442 92 378 q 234 560 185 506 q 325 653 283 615 q 378 692 350 675 q 433 719 401 707 q 500 731 464 731 q 510 729 503 731 q 523 724 517 728 q 534 710 529 719 q 539 686 539 701 q 537 669 539 678 q 532 647 535 660 q 514 599 522 626 q 498 541 507 575 q 482 463 489 507 l 475 421 q 467 376 472 401 q 460 319 463 350 q 460 317 458 318 q 465 314 460 314 q 497 313 474 314 q 546 301 521 311 q 590 271 571 292 q 610 213 610 250 m 379 539 q 374 547 379 547 q 365 544 371 547 q 361 542 363 543 q 296 474 329 513 q 236 390 268 440 q 178 275 204 340 q 176 274 176 275 l 176 268 q 185 258 176 258 q 253 278 222 269 q 303 292 279 285 q 333 299 326 299 q 339 303 335 299 q 340 307 340 304 q 353 395 346 354 q 365 467 360 436 q 375 517 371 499 q 379 539 379 536 z "},"5":{"ha":531,"x_min":21,"x_max":494,"o":"m 494 276 q 463 153 494 219 q 378 30 432 86 q 253 -64 324 -26 q 103 -101 182 -101 q 54 -92 71 -101 q 31 -71 38 -82 q 21 -39 22 -57 q 30 -10 22 -21 q 47 7 38 1 q 67 14 57 13 q 82 15 76 15 q 206 41 153 15 q 294 102 258 67 q 347 177 329 138 q 365 246 365 217 q 356 294 365 275 q 333 323 347 313 q 302 337 319 333 q 267 340 285 340 q 224 334 243 340 q 189 321 204 328 q 156 303 171 313 q 97 282 121 282 q 73 289 82 282 q 60 306 64 296 q 54 326 56 315 q 53 344 53 336 q 60 410 53 372 q 75 481 67 447 q 99 560 85 519 q 98 566 99 564 q 97 569 97 568 l 97 572 q 109 638 97 613 q 158 679 121 664 q 203 697 178 688 q 259 713 229 706 q 321 726 289 721 q 383 732 353 732 q 455 721 422 732 q 488 671 488 710 q 485 653 488 665 q 477 628 483 640 q 461 606 471 615 q 438 596 451 596 q 418 601 428 596 q 403 607 411 604 q 384 611 396 610 q 357 613 372 613 q 308 608 336 613 q 249 589 281 604 q 236 579 246 588 q 216 554 226 571 q 197 510 206 538 q 189 440 189 482 q 199 429 189 429 q 210 432 201 429 q 243 440 225 436 q 278 447 258 443 q 319 450 297 450 q 386 441 354 450 q 442 411 418 432 q 480 357 465 390 q 494 276 494 324 z "},"6":{"ha":601,"x_min":15,"x_max":572,"o":"m 572 292 q 532 126 572 201 q 435 -3 492 51 q 316 -87 378 -57 q 213 -117 254 -117 q 156 -100 178 -117 q 124 -58 135 -83 q 108 -1 113 -32 q 104 58 104 29 q 104 78 104 69 q 106 94 104 88 q 107 108 106 101 q 106 116 107 115 q 103 117 106 117 q 99 116 100 117 q 97 115 99 115 l 96 115 q 54 101 69 101 q 33 110 40 101 q 21 132 25 119 q 16 159 17 144 q 15 186 15 174 q 31 324 15 254 q 74 458 47 393 q 135 581 100 524 q 208 681 169 638 q 285 748 246 724 q 360 772 324 772 q 379 772 368 772 q 401 767 390 771 q 418 755 411 763 q 425 733 425 747 q 413 697 425 710 q 379 672 400 683 q 278 581 324 636 q 200 457 238 532 q 149 274 163 382 q 150 269 149 271 q 156 267 153 267 q 168 274 161 267 q 250 351 206 317 q 337 406 288 381 q 444 431 386 431 q 481 427 460 431 q 523 410 503 424 q 558 368 543 396 q 572 292 572 340 m 438 244 q 432 269 438 258 q 419 287 428 279 q 394 294 410 294 q 335 278 365 294 q 282 239 306 261 q 243 197 258 217 q 226 171 228 176 q 219 143 222 158 q 213 83 213 115 q 222 36 213 57 q 258 15 231 15 q 319 36 288 15 q 376 90 350 57 q 420 164 403 124 q 438 244 438 204 z "},"7":{"ha":486,"x_min":-8,"x_max":557,"o":"m 557 653 q 539 609 557 625 q 492 582 521 593 q 463 561 478 576 q 431 527 449 549 q 394 471 414 506 q 322 315 356 396 q 269 159 294 246 q 240 -15 244 72 q 238 -36 240 -25 q 231 -58 236 -47 q 216 -75 226 -68 q 188 -82 206 -82 q 145 -69 160 -82 q 124 -39 131 -56 q 114 6 115 -19 q 131 129 115 65 q 170 254 147 193 q 219 370 193 315 q 269 468 246 425 q 308 538 292 511 q 325 569 324 565 q 326 576 326 572 q 321 586 326 583 q 317 588 318 588 l 296 588 q 228 581 260 588 q 172 565 196 574 q 133 549 149 557 q 114 539 118 542 q 76 517 93 522 q 46 511 58 511 q 3 524 15 511 q -8 560 -8 538 q 28 628 -8 599 q 122 676 65 657 q 244 705 178 696 q 368 714 310 714 q 428 713 396 714 q 490 705 461 711 q 538 687 518 699 q 557 653 557 675 z "},"8":{"ha":604,"x_min":13,"x_max":578,"o":"m 578 619 q 561 553 578 585 q 519 492 544 521 q 466 435 494 463 q 413 385 438 408 q 411 382 413 385 q 414 378 411 379 q 492 331 457 356 q 546 279 521 308 q 571 215 571 250 q 550 109 571 154 q 495 32 529 64 q 419 -20 461 0 q 336 -52 378 -40 q 258 -68 294 -64 q 199 -72 222 -72 q 97 -53 133 -72 q 41 -10 60 -35 q 17 41 22 15 q 13 81 13 67 q 35 162 13 121 q 88 239 57 203 q 153 304 119 275 q 210 350 186 333 q 213 354 213 353 q 212 356 213 356 q 211 357 211 356 q 210 358 210 357 q 142 397 171 375 q 96 442 117 417 q 75 497 75 467 q 106 580 75 538 q 186 658 136 622 q 300 716 236 693 q 432 739 364 739 q 484 733 458 739 q 531 712 510 726 q 565 675 551 697 q 578 619 578 653 m 431 583 q 422 613 431 603 q 401 628 413 622 q 372 635 388 633 q 321 625 347 635 q 272 599 294 615 q 234 563 249 583 q 219 521 219 543 q 233 483 219 500 q 263 456 246 467 q 307 432 282 442 q 311 431 308 431 l 315 431 q 317 432 317 431 q 374 479 349 454 q 413 527 394 500 q 431 583 431 554 m 436 186 q 426 222 436 206 q 401 254 417 239 q 365 282 385 269 q 326 306 346 294 l 324 306 q 318 304 319 306 q 236 235 272 269 q 178 170 204 204 q 154 104 153 136 q 162 68 154 82 q 181 46 169 54 q 208 35 193 38 q 239 32 224 32 q 328 48 290 32 q 389 88 365 64 q 424 138 413 111 q 436 186 436 164 z "},"9":{"ha":589,"x_min":28,"x_max":549,"o":"m 549 492 q 530 294 549 383 q 481 132 511 204 q 412 6 450 60 q 335 -83 374 -47 q 263 -137 297 -119 q 204 -156 228 -156 q 163 -142 174 -156 q 153 -108 153 -128 q 157 -87 153 -96 q 167 -74 161 -79 q 182 -64 172 -68 q 303 55 260 -10 q 367 176 346 119 q 392 274 388 233 q 396 322 396 314 q 392 333 396 333 q 388 331 390 333 q 385 329 386 329 q 289 271 335 292 q 208 239 243 250 q 132 225 167 226 q 49 258 71 225 q 28 332 28 290 q 56 459 28 390 q 134 587 85 528 q 250 685 183 646 q 394 725 317 725 q 469 699 443 725 q 496 606 496 672 q 494 578 496 593 q 489 547 493 563 q 488 544 488 546 l 488 539 q 492 532 488 532 q 496 533 494 532 q 506 538 500 535 q 514 540 510 539 q 524 542 518 542 q 538 536 533 542 q 549 492 549 525 m 390 538 q 385 571 390 556 q 371 594 381 583 q 344 604 361 604 q 294 588 325 604 q 233 543 263 571 q 181 477 203 515 q 160 396 160 439 q 161 383 160 390 q 168 367 163 375 q 185 354 174 360 q 214 349 196 349 q 269 360 242 349 q 319 388 297 372 q 356 419 342 403 q 375 443 371 435 q 385 485 381 456 q 390 538 390 514 z "}," ":{"ha":250,"x_min":0,"x_max":0,"o":""}," ":{"ha":250,"x_min":0,"x_max":0,"o":""},"Š":{"ha":622,"x_min":40,"x_max":606,"o":"m 458 957 q 442 901 458 932 q 404 844 426 871 q 360 801 382 818 q 326 783 339 783 l 296 783 q 256 803 279 783 q 213 852 233 824 q 178 910 192 881 q 164 957 164 939 q 169 969 164 968 q 182 971 175 971 q 207 965 192 971 q 246 940 222 958 q 267 924 256 932 q 288 908 276 917 q 311 892 299 899 q 379 943 350 917 q 440 971 408 969 q 456 964 451 971 q 458 957 458 960 m 606 175 q 583 97 606 142 q 513 13 560 53 q 395 -56 465 -28 q 229 -83 325 -83 q 141 -69 174 -83 q 91 -35 108 -54 q 69 6 74 -15 q 64 42 64 26 q 81 115 64 86 q 119 160 99 143 q 158 183 140 176 q 175 190 175 190 q 201 183 196 190 q 207 168 207 175 q 206 165 207 165 q 206 163 206 164 l 206 160 q 197 125 199 140 q 194 99 194 110 q 217 44 194 58 q 271 29 239 29 q 336 40 304 29 q 394 67 368 50 q 435 109 419 85 q 451 161 451 133 q 421 215 451 194 q 344 251 390 236 q 246 278 299 265 q 147 308 193 290 q 71 353 101 326 q 40 424 40 381 q 80 534 40 478 q 180 637 119 590 q 314 713 240 683 q 457 742 388 742 q 501 735 479 742 q 541 716 524 729 q 569 681 558 703 q 579 625 579 658 q 572 576 579 601 q 550 529 564 550 q 517 494 536 508 q 475 481 497 481 q 455 488 468 481 q 442 519 442 494 q 443 534 442 529 q 445 544 444 539 q 447 555 446 549 q 449 574 449 561 q 396 624 449 624 q 330 607 367 624 q 260 565 293 590 q 206 510 228 540 q 185 456 185 481 q 216 412 185 429 q 294 379 247 394 q 395 348 340 364 q 497 310 450 332 q 574 255 543 288 q 606 175 606 222 z "},"š":{"ha":406,"x_min":28,"x_max":378,"o":"m 364 679 q 348 624 364 654 q 310 567 332 593 q 266 523 288 540 q 232 506 244 506 l 201 506 q 162 526 185 506 q 118 574 139 546 q 83 632 97 603 q 69 679 69 661 q 75 692 69 690 q 88 693 81 693 q 113 687 97 693 q 151 663 128 681 q 172 646 161 654 q 193 630 182 639 q 217 614 204 621 q 285 665 256 639 q 346 693 314 692 q 361 686 357 693 q 364 679 364 682 m 378 115 q 351 41 378 72 q 288 -11 325 10 q 210 -42 250 -32 q 142 -51 169 -51 q 54 -26 81 -51 q 28 26 28 -1 q 44 61 28 50 q 74 72 61 72 q 110 62 88 72 q 164 51 132 51 q 228 65 207 51 q 250 94 250 78 q 234 120 250 110 q 194 138 218 131 q 142 153 169 146 q 90 173 114 161 q 49 202 65 185 q 33 246 33 219 q 55 317 33 279 q 111 385 76 354 q 190 438 146 417 q 281 458 235 458 q 344 435 321 458 q 368 364 368 413 q 357 322 368 342 q 317 303 346 303 q 294 312 300 303 q 285 331 289 321 q 274 351 281 342 q 246 360 267 360 q 222 353 238 360 q 191 336 207 347 q 163 310 175 325 q 151 276 151 294 q 168 249 151 260 q 210 228 185 238 q 265 210 235 218 q 319 189 294 201 q 361 159 344 176 q 378 115 378 142 z "},"Ý":{"ha":571,"x_min":3,"x_max":554,"o":"m 426 929 q 423 917 426 922 q 417 908 419 911 q 408 901 413 904 q 358 873 381 890 q 315 839 335 856 q 276 810 294 822 q 238 796 257 797 q 222 803 225 794 q 221 810 219 807 q 236 865 221 835 q 272 922 251 896 q 315 966 293 949 q 347 983 336 983 q 369 981 356 983 q 394 972 382 978 q 417 955 407 965 q 426 929 426 944 m 554 738 q 553 707 554 733 q 544 634 551 681 q 522 522 538 588 q 478 374 507 457 q 479 369 478 371 q 481 367 481 368 q 483 365 481 365 q 526 338 517 357 q 532 318 532 328 q 502 258 532 281 q 436 236 472 236 q 426 232 431 236 q 424 228 424 229 q 369 111 403 174 q 293 -5 336 49 q 199 -94 250 -58 q 90 -129 147 -129 q 51 -120 65 -129 q 31 -100 38 -111 q 21 -69 22 -86 q 26 -42 21 -53 q 38 -24 31 -31 q 56 -10 44 -15 q 137 17 103 -3 q 193 60 171 38 q 236 115 218 85 q 268 171 253 143 q 294 229 283 199 q 296 236 296 232 q 290 242 296 242 q 140 299 197 260 q 53 388 83 339 q 13 488 22 436 q 3 579 3 539 q 7 639 3 615 q 11 663 8 651 q 28 693 17 679 q 51 715 38 704 q 89 725 65 725 q 101 724 90 725 q 122 717 111 724 q 141 699 132 711 q 150 663 150 686 q 149 645 150 651 q 146 631 147 639 q 143 611 144 624 q 142 575 142 599 q 152 500 142 535 q 185 439 163 465 q 247 395 208 413 q 342 372 285 378 q 350 381 347 372 q 383 496 369 438 q 403 603 396 554 q 415 711 411 658 q 439 758 415 732 q 506 783 463 783 q 538 775 522 783 q 554 738 554 767 z "},"ý":{"ha":461,"x_min":21,"x_max":421,"o":"m 375 651 q 372 639 375 644 q 365 631 368 633 q 357 624 361 626 q 306 595 329 613 q 263 561 283 578 q 224 532 243 544 q 186 518 206 519 q 171 525 174 517 q 169 532 168 529 q 185 588 169 557 q 221 644 200 618 q 263 688 242 671 q 296 706 285 706 q 317 703 304 706 q 343 694 331 700 q 365 677 356 688 q 375 651 375 667 m 421 328 q 417 283 421 307 q 409 226 414 260 q 401 147 404 193 q 397 35 397 100 q 370 -196 397 -96 q 304 -364 343 -296 q 221 -467 265 -432 q 142 -501 176 -501 q 125 -498 131 -501 q 117 -489 119 -494 q 113 -475 113 -483 q 117 -455 113 -465 q 129 -436 122 -444 q 147 -417 136 -426 q 230 -290 200 -362 q 275 -144 260 -218 q 294 -5 290 -71 q 299 103 299 61 q 296 111 299 111 q 292 108 294 111 l 290 107 q 236 27 263 54 q 188 -14 210 0 q 139 -32 163 -29 q 81 -6 103 -32 q 44 58 58 19 q 26 140 31 96 q 21 219 21 183 q 51 395 21 332 q 132 458 81 458 q 142 458 135 458 q 155 453 149 457 q 166 442 161 450 q 171 421 171 435 q 161 385 171 406 q 142 331 150 360 q 128 272 135 306 q 122 200 122 238 q 123 174 122 192 q 127 137 124 156 q 138 104 131 118 q 160 90 146 90 q 183 98 169 90 q 214 129 196 106 q 254 196 232 153 q 306 308 276 239 q 324 344 313 329 q 348 370 333 358 q 383 382 363 382 q 394 381 388 382 q 407 374 401 379 q 417 358 413 369 q 421 328 421 347 z "},"Þ":{"ha":574,"x_min":-57,"x_max":604,"o":"m 604 428 q 588 356 604 388 q 545 301 572 325 q 484 258 518 276 q 415 228 450 240 q 228 189 332 199 q 219 182 222 189 q 218 176 218 179 q 215 161 217 171 q 214 140 214 153 q 214 113 214 128 q 216 64 214 88 q 224 25 218 40 q 237 -26 235 -8 q 239 -56 239 -44 q 210 -94 232 -87 q 165 -101 188 -101 q 122 -78 138 -101 q 97 -22 106 -56 q 86 50 89 13 q 83 117 83 88 l 83 160 q 46 169 60 160 q 25 190 32 179 q 16 212 18 201 q 14 224 14 222 q 19 249 14 239 q 32 264 25 258 q 51 271 40 269 q 76 274 63 271 q 89 278 82 275 q 96 288 96 281 q 102 349 99 315 q 110 421 106 383 q 117 497 114 458 q 125 571 121 535 l 85 572 q 46 573 60 574 q 24 571 32 572 q 8 568 15 569 q -8 567 1 567 q -46 577 -35 567 q -57 599 -57 588 q -49 622 -57 607 q -20 651 -40 638 q 34 676 0 665 q 119 686 68 686 l 136 686 q 138 700 138 693 q 139 713 138 707 q 140 724 139 718 q 167 774 150 756 q 208 793 183 793 q 244 785 231 793 q 264 766 257 778 q 274 740 271 754 q 276 715 276 726 l 271 669 q 390 638 331 658 q 497 587 449 617 q 574 517 544 557 q 604 428 604 478 m 453 428 q 435 473 453 453 q 391 508 418 493 q 328 535 364 524 q 256 554 293 546 q 247 478 251 517 q 238 408 242 440 q 231 352 233 375 q 229 322 229 329 q 233 313 229 314 q 238 311 235 311 q 360 352 317 332 q 425 389 404 372 q 449 416 446 406 q 453 428 453 426 z "},"þ":{"ha":546,"x_min":-18,"x_max":535,"o":"m 535 307 q 501 174 535 235 q 416 69 467 114 q 306 -4 365 24 q 197 -40 247 -32 q 190 -44 194 -40 q 188 -49 189 -47 q 183 -222 183 -131 q 186 -283 183 -254 q 192 -337 189 -310 q 203 -385 196 -365 q 214 -421 211 -408 q 217 -439 217 -433 q 198 -477 217 -467 q 167 -487 179 -487 q 151 -486 156 -487 q 146 -485 147 -486 q 110 -445 122 -476 q 92 -379 97 -414 q 85 -315 86 -344 q 83 -281 83 -286 q 83 -198 83 -233 q 84 -135 83 -162 q 85 -87 85 -108 q 86 -47 86 -67 q 85 -44 86 -46 q 78 -40 82 -42 q 29 -22 50 -35 q -3 4 11 -12 q -18 44 -18 21 q -4 78 -18 67 q 21 89 10 89 q 52 79 36 89 q 82 69 68 69 q 90 74 88 69 q 92 78 92 75 q 115 287 99 176 q 147 493 131 397 q 188 714 165 604 q 200 735 192 725 q 219 749 207 742 q 251 756 232 756 q 274 752 261 756 q 286 729 286 749 q 281 697 286 728 q 268 619 276 665 q 251 517 260 572 q 235 414 243 463 q 222 330 226 365 q 217 286 217 294 q 219 281 217 281 q 226 288 221 281 q 288 346 251 321 q 360 387 317 368 q 457 406 403 406 q 496 390 479 403 q 523 360 511 379 q 535 307 535 340 m 426 264 q 422 282 426 275 q 413 292 418 289 q 399 296 407 296 q 327 269 364 296 q 260 207 290 243 q 212 133 231 171 q 193 74 193 96 q 197 64 193 65 q 203 63 200 63 q 280 85 240 63 q 352 139 319 107 q 406 205 385 171 q 426 264 426 239 z "},"Ž":{"ha":539,"x_min":-21,"x_max":560,"o":"m 444 957 q 428 901 444 932 q 390 844 413 871 q 347 801 368 818 q 313 783 325 783 l 282 783 q 242 803 265 783 q 199 852 219 824 q 164 910 178 881 q 150 957 150 939 q 156 969 150 968 q 168 971 161 971 q 193 965 178 971 q 232 940 208 958 q 253 924 242 932 q 274 908 263 917 q 297 892 285 899 q 365 943 336 917 q 426 971 394 969 q 442 964 438 971 q 444 957 444 960 m 560 611 q 552 581 560 597 q 525 546 544 565 q 364 390 438 467 q 301 322 332 357 q 244 250 271 286 q 199 179 218 214 q 172 114 179 144 q 171 110 171 111 q 169 103 169 107 q 179 94 169 94 q 201 99 181 94 q 251 108 221 103 q 317 118 282 114 q 385 122 353 122 q 429 119 406 122 q 472 106 453 115 q 505 81 492 96 q 518 42 518 65 q 508 4 518 17 q 486 -15 497 -8 q 456 -24 472 -22 q 415 -17 440 -24 q 344 -10 390 -10 q 242 -15 282 -10 q 172 -27 201 -21 q 119 -38 143 -33 q 64 -43 94 -43 q 20 -36 36 -43 q -6 -19 4 -29 q -18 3 -15 -8 q -21 26 -21 15 q -21 39 -21 33 q -19 49 -21 44 q -17 58 -18 54 q 37 165 3 108 q 111 276 71 221 q 193 382 151 331 q 269 473 235 433 q 324 538 303 513 q 346 568 346 564 q 335 583 346 578 q 311 590 325 588 q 284 592 297 592 q 265 593 271 593 q 214 589 238 593 q 172 579 190 585 q 133 565 151 574 q 118 563 122 563 q 94 569 103 563 q 79 583 85 575 q 72 599 74 592 q 71 608 71 606 q 128 691 71 663 q 281 719 186 719 q 338 715 293 719 q 433 699 383 711 q 521 665 482 686 q 560 611 560 644 z "},"ž":{"ha":456,"x_min":22,"x_max":435,"o":"m 375 679 q 359 624 375 654 q 321 567 343 593 q 277 523 299 540 q 243 506 256 506 l 213 506 q 173 526 196 506 q 129 574 150 546 q 94 632 108 603 q 81 679 81 661 q 86 692 81 690 q 99 693 92 693 q 124 687 108 693 q 163 663 139 681 q 183 646 172 654 q 204 630 193 639 q 228 614 215 621 q 296 665 267 639 q 357 693 325 692 q 372 686 368 693 q 375 679 375 682 m 435 -85 q 424 -164 435 -115 q 388 -271 413 -212 q 322 -393 363 -329 q 221 -518 281 -457 q 179 -549 197 -543 q 151 -556 161 -556 q 128 -537 128 -556 q 131 -526 128 -532 q 136 -514 133 -519 q 144 -501 140 -508 q 192 -433 161 -478 q 252 -333 222 -387 q 303 -219 282 -278 q 325 -108 325 -160 q 315 -49 325 -72 q 288 -14 304 -26 q 253 3 272 -1 q 214 8 233 8 q 175 3 193 8 q 143 -7 157 -1 q 114 -22 128 -14 q 101 -31 107 -29 q 89 -33 94 -33 q 67 -26 76 -33 q 53 -10 58 -19 q 45 8 47 -1 q 43 24 43 18 q 61 75 43 49 q 106 128 79 101 q 163 181 132 154 q 221 231 194 207 q 265 276 247 254 q 283 314 283 297 q 272 332 283 329 q 250 335 260 335 q 206 326 228 335 q 165 308 183 318 q 124 282 143 296 q 101 265 108 272 q 88 253 93 258 q 76 246 82 249 q 58 243 69 243 q 28 259 35 243 q 22 286 22 275 q 47 346 22 319 q 110 390 72 372 q 192 418 147 408 q 279 428 238 428 q 313 425 292 428 q 356 414 335 422 q 391 391 376 406 q 406 353 406 376 q 373 264 406 306 q 301 188 340 222 q 228 128 261 153 q 196 90 196 103 q 200 86 196 86 q 206 88 203 86 q 225 92 214 89 q 247 94 235 93 q 275 96 260 96 q 390 53 346 96 q 435 -85 435 11 z "},"¦":{"ha":361,"x_min":124,"x_max":251,"o":"m 251 735 q 246 616 251 696 q 233 440 240 536 q 220 427 233 435 q 192 417 207 419 q 164 419 176 414 q 151 443 151 424 q 158 562 154 510 q 161 622 161 614 q 163 693 161 658 q 167 756 164 728 q 172 818 169 789 q 184 850 174 844 q 201 856 194 856 q 226 845 217 856 q 242 818 236 835 q 249 780 247 801 q 251 735 251 758 m 225 335 q 217 200 219 258 q 214 93 214 142 q 215 16 214 56 q 219 -67 217 -24 q 204 -96 215 -81 q 169 -111 193 -111 q 145 -97 154 -111 q 131 -61 136 -82 q 125 -17 126 -40 q 124 22 124 6 q 131 158 125 86 q 143 329 138 229 q 157 346 149 339 q 174 358 164 353 q 200 363 185 363 q 221 349 215 363 q 225 335 224 343 z "},"−":{"ha":617,"x_min":63,"x_max":554,"o":"m 554 353 q 544 333 554 340 q 519 321 535 325 q 485 315 504 317 q 444 314 465 314 l 376 314 q 283 308 332 314 q 194 294 235 301 q 101 276 147 286 q 78 286 90 279 q 63 313 67 293 q 80 342 63 331 q 121 360 97 354 q 168 370 144 367 q 203 376 192 374 q 268 388 232 382 q 338 396 299 392 q 421 400 376 400 q 465 399 443 400 q 511 394 488 397 q 549 376 543 389 q 554 353 554 363 z "},"×":{"ha":538,"x_min":69,"x_max":468,"o":"m 468 471 q 464 453 468 461 q 456 440 460 446 q 443 428 450 433 q 380 377 410 404 q 322 322 350 350 q 321 321 321 322 l 321 317 l 321 314 q 394 224 358 265 q 447 169 431 182 q 460 149 460 158 q 442 118 460 132 q 407 104 424 104 q 365 128 389 104 q 318 179 342 151 q 264 254 292 213 q 262 253 263 254 q 260 253 261 253 l 258 251 q 208 189 231 218 q 171 138 186 160 q 140 90 153 113 q 110 68 128 68 q 69 115 69 68 q 88 168 69 138 q 119 213 101 188 q 158 261 135 233 q 210 321 181 289 l 210 322 q 210 324 210 324 q 211 325 211 324 l 210 328 q 149 403 178 369 q 103 457 119 438 q 89 481 92 472 q 86 492 86 489 q 97 517 86 503 q 129 532 108 532 q 160 522 142 532 q 203 478 179 511 q 221 451 211 465 q 267 389 238 426 q 269 388 267 389 q 274 389 272 388 q 338 450 304 419 q 408 508 371 481 q 414 511 410 510 q 429 514 422 514 q 456 501 443 514 q 468 471 468 489 z "},"ł":{"ha":244,"x_min":-37,"x_max":261,"o":"m 261 418 q 231 381 261 394 q 167 356 200 367 q 162 281 164 318 q 160 208 160 244 q 168 76 160 138 q 199 -28 176 15 q 203 -37 200 -32 q 208 -61 208 -49 q 194 -92 208 -74 q 151 -110 181 -110 q 127 -104 138 -110 q 110 -92 117 -99 q 94 -72 101 -83 q 62 39 71 -28 q 53 183 53 106 q 57 308 53 246 q 13 290 33 297 q -17 282 -7 282 q -31 290 -25 282 q -37 310 -37 299 q -28 333 -37 322 q -6 354 -19 344 q 23 372 8 364 q 50 385 38 379 q 64 389 58 388 q 91 583 74 489 q 128 754 108 676 q 139 778 131 767 q 159 795 146 788 q 194 806 172 803 q 223 802 210 806 q 236 783 236 799 l 235 775 q 213 669 224 725 q 192 558 203 621 q 174 425 181 496 q 220 438 210 436 q 236 440 231 440 q 252 436 246 440 q 261 418 258 432 z "},"!":{"ha":300,"x_min":54,"x_max":232,"o":"m 232 575 q 225 426 232 514 q 196 228 218 339 q 185 206 193 215 q 165 191 178 197 q 129 185 151 185 q 101 195 107 185 q 96 215 96 206 l 96 224 q 97 226 96 225 q 111 408 110 331 q 113 542 113 485 q 111 620 113 588 q 107 672 110 653 q 103 711 104 696 q 104 724 103 717 q 113 740 106 732 q 132 752 119 747 q 167 757 144 757 q 179 756 169 757 q 199 747 189 754 q 217 727 208 740 q 226 689 225 714 q 229 658 228 675 q 231 623 231 643 q 232 575 232 603 m 194 29 q 184 -7 194 8 q 160 -33 174 -22 q 131 -48 146 -43 q 106 -53 115 -53 q 92 -51 100 -53 q 75 -44 83 -50 q 60 -28 67 -39 q 54 1 54 -17 q 60 28 54 14 q 76 56 65 43 q 104 77 88 68 q 142 86 121 86 q 179 73 164 86 q 194 29 194 60 z "},"\"":{"ha":424,"x_min":85,"x_max":371,"o":"m 371 575 q 369 530 371 554 q 360 485 367 506 q 340 449 353 464 q 304 435 326 435 q 294 437 301 435 q 281 444 288 439 q 269 457 274 449 q 264 479 264 465 q 265 492 264 488 q 271 544 269 518 q 272 590 272 569 l 272 631 q 286 685 272 675 q 311 693 300 694 q 342 680 331 692 q 361 654 354 668 q 369 618 368 639 l 369 606 q 370 592 369 599 q 371 575 371 585 m 192 575 q 190 530 192 554 q 181 485 188 506 q 160 449 174 464 q 125 435 147 435 q 115 437 122 435 q 101 444 108 439 q 90 457 94 449 q 85 479 85 465 q 86 492 85 488 q 92 544 90 518 q 93 590 93 569 l 93 631 q 107 685 93 675 q 132 693 121 694 q 163 680 151 692 q 182 654 175 668 q 190 618 189 639 l 190 606 q 191 592 190 599 q 192 575 192 585 z "},"#":{"ha":718,"x_min":49,"x_max":669,"o":"m 669 432 q 629 399 669 410 q 529 385 589 389 q 526 383 528 383 q 522 381 522 379 l 482 283 l 482 281 q 486 279 482 279 q 543 281 518 279 q 588 282 568 282 q 637 276 621 282 q 653 250 653 269 q 634 226 653 235 q 587 212 615 217 q 524 205 558 207 q 458 201 489 203 l 456 201 q 453 197 453 201 q 426 117 438 157 q 403 42 414 78 q 392 26 397 32 q 358 11 379 11 q 343 23 349 11 q 338 49 338 35 q 344 95 338 71 q 356 135 350 119 q 361 150 358 142 q 367 168 364 157 q 375 194 369 179 q 372 197 375 194 q 371 199 371 197 q 319 193 347 196 q 261 188 292 190 q 257 185 258 186 l 256 183 q 230 105 242 143 q 208 33 218 67 q 199 18 204 24 q 185 8 193 13 q 167 4 178 4 q 151 15 156 4 q 147 42 147 26 q 155 94 147 64 q 178 172 163 124 q 175 175 178 172 q 174 176 174 175 l 76 161 q 57 167 65 161 q 49 188 49 174 q 68 218 49 207 q 113 235 88 229 q 163 244 138 242 q 199 250 188 247 q 201 251 200 250 q 204 254 203 253 q 207 260 206 256 q 224 308 215 283 q 243 361 232 333 q 240 364 243 364 l 239 364 q 210 360 233 364 q 161 351 188 356 q 93 340 131 346 q 71 347 82 340 q 60 368 60 353 q 86 401 60 389 q 148 419 113 413 q 217 430 183 426 q 268 438 251 433 q 271 439 269 438 q 273 440 272 440 q 275 443 274 440 q 303 505 289 475 q 329 558 317 535 q 356 584 340 579 q 382 589 371 589 q 396 569 396 589 q 386 519 396 550 q 361 453 376 488 l 361 450 q 365 449 361 449 q 465 457 413 454 q 471 460 468 457 q 472 463 472 461 q 497 518 485 492 q 521 565 510 544 q 547 591 532 586 q 574 596 563 596 q 588 575 588 596 q 578 527 588 557 q 557 465 569 497 q 568 461 557 461 q 591 463 578 461 q 618 464 604 464 q 653 458 638 464 q 669 432 669 451 m 439 376 q 436 379 439 376 q 435 381 435 379 q 384 379 407 381 q 333 374 361 378 l 331 374 q 326 369 326 374 q 314 342 319 354 q 306 321 308 329 q 295 294 300 307 q 285 265 290 281 l 285 263 q 288 261 285 261 l 394 272 q 400 276 396 272 l 403 279 q 420 327 411 303 q 439 376 429 351 z "},"$":{"ha":633,"x_min":42,"x_max":599,"o":"m 599 175 q 582 114 599 149 q 533 45 565 79 q 456 -19 501 11 q 351 -65 410 -49 q 354 -117 353 -92 q 357 -168 356 -142 q 352 -191 357 -183 q 340 -201 347 -199 q 324 -206 333 -206 q 301 -191 310 -204 q 286 -159 292 -178 q 278 -119 281 -140 q 274 -81 275 -97 q 251 -83 263 -82 q 228 -83 239 -83 q 140 -68 172 -82 q 90 -35 107 -54 q 67 6 72 -15 q 63 42 63 26 q 80 115 63 86 q 118 160 97 143 q 156 183 139 176 q 174 190 174 190 q 200 183 194 190 q 206 168 206 175 q 205 165 206 165 q 204 163 204 164 l 204 160 q 195 125 197 140 q 193 99 193 110 q 215 44 193 58 q 269 29 238 29 l 275 29 q 280 133 276 76 q 288 265 283 190 q 203 285 246 274 q 124 314 160 296 q 65 358 88 332 q 42 421 42 383 q 64 499 42 458 q 123 576 86 539 q 208 646 160 614 q 308 699 256 678 q 311 765 310 735 q 315 818 313 796 q 328 851 318 846 q 343 857 338 857 q 378 817 369 850 q 386 743 386 783 l 386 721 q 450 728 421 728 q 494 722 472 728 q 534 702 517 715 q 562 667 551 689 q 572 611 572 644 q 565 562 572 588 q 543 515 557 536 q 510 481 529 494 q 468 467 490 467 q 448 474 461 467 q 435 506 435 481 q 436 520 435 515 q 438 531 438 525 q 440 543 439 536 q 442 563 442 550 q 428 599 442 586 q 379 613 414 613 l 364 347 q 448 320 406 335 q 524 285 490 306 q 578 238 557 265 q 599 175 599 211 m 303 586 q 256 555 279 572 q 216 518 233 538 q 188 478 199 499 q 178 442 178 458 q 211 400 178 417 q 293 368 244 383 l 303 586 l 303 586 m 444 161 q 420 210 444 192 q 357 244 396 229 l 357 235 q 355 153 357 207 q 353 46 353 100 q 418 94 392 64 q 444 161 444 124 z "},"%":{"ha":638,"x_min":50,"x_max":589,"o":"m 296 551 q 280 465 296 499 q 242 414 264 432 q 199 390 221 396 q 165 383 176 383 q 107 401 128 383 q 76 439 86 418 q 64 494 65 464 q 71 550 64 517 q 94 614 78 583 q 137 666 110 644 q 206 688 164 688 q 270 649 244 688 q 296 551 296 611 m 571 663 q 567 640 571 651 q 558 619 563 628 q 546 600 553 608 q 460 475 510 546 q 360 331 411 404 q 263 190 308 257 q 188 75 217 122 q 160 30 171 49 q 143 -3 150 11 q 131 -29 136 -18 q 112 -54 124 -49 q 89 -60 100 -60 q 76 -58 79 -60 q 71 -57 74 -58 q 54 -43 58 -51 q 50 -26 50 -35 q 53 -8 50 -17 q 57 -1 54 -4 q 109 88 63 18 q 224 255 156 157 q 372 467 293 353 q 521 689 451 581 q 526 694 522 692 q 533 699 529 697 q 542 701 538 701 q 560 691 550 701 q 571 663 571 681 m 589 168 q 573 82 589 115 q 535 31 557 49 q 492 6 514 13 q 458 0 469 0 q 400 17 421 0 q 369 56 379 35 q 357 111 358 81 q 364 167 357 133 q 387 231 371 200 q 430 283 403 261 q 499 304 457 304 q 563 266 538 304 q 589 168 589 228 m 225 553 q 219 586 225 574 q 207 604 214 599 q 193 611 200 610 q 185 613 186 613 q 152 588 168 613 q 136 525 136 564 q 137 509 136 521 q 141 486 138 497 q 151 466 144 475 q 171 457 158 457 q 197 469 185 458 q 217 498 208 479 q 225 553 225 517 m 518 169 q 513 203 518 190 q 500 221 507 215 q 486 228 493 226 q 478 229 479 229 q 445 205 461 229 q 429 142 429 181 q 430 126 429 138 q 434 103 431 114 q 444 83 438 92 q 464 74 451 74 q 490 86 478 75 q 510 115 501 96 q 518 169 518 133 z "},"&":{"ha":678,"x_min":47,"x_max":649,"o":"m 649 -18 q 635 -61 649 -42 q 596 -81 622 -81 q 576 -75 585 -81 q 561 -62 567 -69 q 550 -43 554 -54 q 531 -3 544 -24 q 503 38 518 17 q 500 40 500 40 q 498 40 499 40 q 496 39 497 39 l 494 38 q 417 -17 457 3 q 342 -47 378 -36 q 276 -60 307 -57 q 225 -62 246 -62 q 127 -39 163 -62 q 74 17 92 -15 q 51 79 56 49 q 47 125 47 110 q 60 201 47 164 q 95 272 74 238 q 144 335 117 306 q 201 390 172 365 q 204 397 204 393 q 203 399 204 399 q 203 401 203 400 l 203 403 q 176 524 176 464 q 189 587 176 550 q 226 657 201 624 q 290 714 251 690 q 381 738 328 738 q 410 734 393 738 q 444 718 428 731 q 472 683 461 706 q 483 621 483 660 q 443 499 483 556 q 339 383 403 442 q 338 381 338 382 l 338 378 q 360 342 338 369 q 412 285 383 315 q 466 231 440 254 q 497 207 492 207 q 507 220 501 207 q 517 251 513 233 q 526 288 522 269 q 529 318 529 307 q 525 354 529 342 q 515 374 521 367 q 506 387 510 381 q 501 404 501 393 q 515 431 501 414 q 564 447 528 447 q 593 444 579 447 q 618 429 607 440 q 636 399 629 418 q 643 347 643 379 q 635 274 643 307 q 617 215 628 240 q 594 169 606 189 q 575 135 583 149 q 574 132 574 133 l 574 128 q 575 124 574 125 q 627 53 606 88 q 649 -18 649 19 m 390 611 q 382 640 390 629 q 364 650 374 650 q 329 638 344 650 q 303 605 314 625 q 287 561 293 585 q 281 517 281 538 q 283 490 282 501 q 287 473 285 481 q 292 465 289 465 q 312 480 296 465 q 345 516 328 494 q 376 563 363 538 q 390 611 390 589 m 431 117 q 428 122 431 121 q 369 175 415 135 q 263 300 324 215 q 258 301 261 301 q 256 301 257 301 q 254 300 256 300 l 253 300 q 199 227 224 268 q 175 139 175 186 q 176 119 175 135 q 187 85 178 103 q 215 55 196 68 q 269 42 235 42 q 328 52 300 42 q 380 76 357 63 q 417 101 403 89 q 431 117 431 113 z "},"'":{"ha":246,"x_min":86,"x_max":193,"o":"m 193 575 q 191 530 193 554 q 182 485 189 506 q 162 449 175 464 q 126 435 149 435 q 117 437 124 435 q 103 444 110 439 q 91 457 96 449 q 86 479 86 465 q 88 492 86 488 q 93 544 92 518 q 94 590 94 569 l 94 631 q 108 685 94 675 q 133 693 122 694 q 165 680 153 692 q 183 654 176 668 q 192 618 190 639 l 192 606 q 192 592 192 599 q 193 575 193 585 z "},"(":{"ha":372,"x_min":78,"x_max":322,"o":"m 322 732 q 319 716 322 725 q 306 694 317 707 q 247 594 272 650 q 207 483 225 547 q 189 340 189 418 q 191 255 189 304 q 203 149 193 206 q 232 31 213 92 q 288 -85 251 -29 l 294 -92 q 299 -99 297 -94 q 301 -107 301 -103 q 298 -117 301 -114 q 292 -122 294 -119 q 283 -125 288 -125 q 220 -94 256 -125 q 153 -8 185 -64 q 100 126 122 49 q 78 297 78 203 q 108 496 78 411 q 178 637 139 581 q 256 720 218 693 q 310 747 294 747 q 322 732 322 747 z "},")":{"ha":372,"x_min":64,"x_max":308,"o":"m 308 325 q 278 126 308 210 q 208 -15 247 42 q 130 -98 168 -71 q 76 -125 92 -125 q 64 -110 64 -125 q 67 -94 64 -103 q 81 -72 69 -85 q 139 28 114 -28 q 179 139 161 75 q 197 282 197 203 q 195 367 197 317 q 183 474 193 417 q 153 590 174 531 q 99 707 133 650 q 92 714 94 710 q 85 729 85 721 q 93 744 85 739 q 103 747 97 747 q 165 717 129 747 q 233 630 201 686 q 286 496 264 574 q 308 325 308 418 z "},"*":{"ha":500,"x_min":51,"x_max":476,"o":"m 476 646 q 474 630 476 639 q 463 613 471 621 q 440 599 456 604 q 400 596 425 594 q 386 597 393 596 q 373 598 379 597 q 360 599 367 599 q 340 594 340 599 q 352 570 340 582 q 378 547 364 558 q 405 521 393 535 q 417 489 417 507 q 410 466 417 474 q 394 454 403 458 q 372 449 385 449 q 337 463 351 449 q 311 494 322 478 q 292 526 300 511 q 276 540 283 540 q 266 526 271 540 q 258 493 261 511 q 253 460 256 475 q 251 443 251 444 q 235 409 247 417 q 213 401 224 401 q 179 413 189 401 q 169 443 169 424 q 176 481 169 463 q 183 499 179 490 q 192 533 189 521 q 194 553 194 546 q 188 564 194 564 q 166 559 178 564 q 140 549 154 554 q 113 538 126 543 q 89 533 100 533 q 69 538 78 533 q 57 547 63 540 q 51 565 51 553 q 67 599 51 586 q 101 618 82 611 q 151 629 124 625 q 174 633 157 629 q 190 643 190 636 q 180 659 190 649 q 158 681 169 669 q 128 707 144 693 q 121 715 124 710 q 114 739 114 725 q 126 771 114 754 q 163 788 138 788 q 192 772 179 788 q 216 739 204 757 q 238 706 228 721 q 261 690 249 690 q 269 699 267 690 q 282 731 276 713 q 295 767 288 750 q 315 794 303 783 q 350 806 328 806 q 374 797 364 806 q 385 768 385 788 q 381 747 385 758 q 368 722 378 736 q 353 700 358 710 q 343 682 347 690 q 339 669 339 674 q 341 665 339 667 q 351 663 343 663 q 391 672 375 663 q 436 682 407 682 q 464 674 451 682 q 476 646 476 665 z "},"+":{"ha":694,"x_min":97,"x_max":603,"o":"m 603 379 q 590 351 603 360 q 563 342 576 342 q 522 346 554 342 q 458 350 489 350 q 412 347 422 350 q 399 336 401 344 l 390 207 q 390 183 389 190 q 392 171 390 175 q 394 163 393 167 q 396 153 396 160 q 387 135 396 140 q 367 129 378 129 q 326 145 340 129 q 313 203 313 161 q 317 283 313 256 q 324 329 321 310 q 318 338 324 335 l 313 340 q 243 329 274 335 q 189 318 213 324 q 142 306 163 313 q 124 301 131 301 q 101 313 110 301 q 97 324 97 318 q 99 337 97 328 q 106 356 100 346 q 123 375 111 365 q 156 390 135 385 q 199 400 174 394 q 251 408 219 404 q 324 417 283 413 q 329 418 326 417 q 335 428 335 421 q 340 492 338 461 q 344 546 342 522 q 347 597 346 572 q 356 606 350 601 q 367 612 360 608 q 385 615 374 615 q 395 615 389 615 q 408 609 401 614 q 419 593 414 604 q 424 563 424 582 q 422 535 424 544 q 419 514 421 525 q 415 485 417 503 q 410 435 413 468 q 411 429 410 432 q 418 424 414 424 l 478 424 q 533 423 513 424 q 572 421 553 422 q 588 411 581 417 q 598 398 593 406 q 603 379 603 390 z "},",":{"ha":344,"x_min":44,"x_max":231,"o":"m 231 118 q 213 46 231 85 q 170 -26 196 7 q 115 -82 144 -60 q 64 -104 86 -104 q 44 -90 44 -104 q 46 -83 44 -86 q 47 -79 46 -82 q 85 -19 69 -57 q 113 53 101 18 q 129 115 124 89 q 135 142 135 142 q 149 158 135 151 q 179 165 164 165 q 213 157 196 165 q 231 118 231 149 z "},"-":{"ha":617,"x_min":63,"x_max":554,"o":"m 554 353 q 544 333 554 340 q 519 321 535 325 q 485 315 504 317 q 444 314 465 314 l 376 314 q 283 308 332 314 q 194 294 235 301 q 101 276 147 286 q 78 286 90 279 q 63 313 67 293 q 80 342 63 331 q 121 360 97 354 q 168 370 144 367 q 203 376 192 374 q 268 388 232 382 q 338 396 299 392 q 421 400 376 400 q 465 399 443 400 q 511 394 488 397 q 549 376 543 389 q 554 353 554 363 z "},".":{"ha":349,"x_min":115,"x_max":236,"o":"m 236 83 q 228 47 236 63 q 210 22 221 32 q 187 8 200 13 q 164 4 174 4 q 126 19 138 4 q 115 54 115 35 q 119 81 115 67 q 131 106 122 94 q 153 125 139 118 q 186 132 167 132 q 200 131 192 132 q 217 124 208 129 q 231 110 225 119 q 236 83 236 100 z "},"/":{"ha":694,"x_min":104,"x_max":564,"o":"m 564 815 q 546 747 564 793 q 499 635 528 700 q 433 494 471 571 q 358 334 396 417 q 283 167 319 251 q 217 7 246 83 q 199 -47 206 -24 q 185 -85 192 -69 q 168 -109 178 -101 q 142 -117 158 -117 q 113 -101 122 -117 q 104 -67 104 -85 q 121 1 104 -49 q 165 117 138 50 q 228 264 193 185 q 301 424 264 343 q 499 839 388 613 q 508 851 503 846 q 518 860 513 856 q 531 864 524 864 q 557 848 550 861 q 564 815 564 835 z "},":":{"ha":349,"x_min":114,"x_max":236,"o":"m 233 372 q 222 328 233 343 q 197 306 211 313 q 163 296 182 297 q 124 311 135 296 q 114 346 114 326 q 117 370 114 357 q 129 395 121 383 q 151 415 138 407 q 183 422 164 422 q 197 421 189 422 q 214 414 206 419 q 228 399 222 408 q 233 372 233 389 m 236 97 q 228 61 236 76 q 210 36 221 46 q 187 22 200 26 q 164 18 174 18 q 126 33 138 18 q 115 68 115 49 q 119 94 115 81 q 131 120 122 108 q 153 139 139 132 q 186 146 167 146 q 200 144 192 146 q 217 138 208 143 q 231 124 225 133 q 236 97 236 114 z "},";":{"ha":344,"x_min":44,"x_max":250,"o":"m 250 376 q 227 319 250 340 q 179 299 204 299 q 129 350 129 299 q 133 372 129 358 q 144 397 136 385 q 165 417 151 408 q 200 426 179 426 q 214 424 206 426 q 231 417 222 422 q 244 403 239 413 q 250 376 250 393 m 231 118 q 213 46 231 85 q 170 -26 196 7 q 115 -82 144 -60 q 64 -104 86 -104 q 44 -90 44 -104 q 46 -83 44 -86 q 47 -79 46 -82 q 85 -19 69 -57 q 113 53 101 18 q 129 115 124 89 q 135 142 135 142 q 149 158 135 151 q 179 165 164 165 q 213 157 196 165 q 231 118 231 149 z "},"<":{"ha":601,"x_min":69,"x_max":511,"o":"m 511 228 q 497 201 511 208 q 471 194 482 194 q 446 199 454 194 q 436 204 440 201 q 358 223 407 215 q 263 235 310 231 q 183 240 217 239 q 147 242 149 242 q 102 248 118 242 q 79 263 86 254 q 69 285 71 272 q 92 326 69 301 q 151 376 115 350 q 232 426 188 401 q 319 472 276 451 q 399 504 363 492 q 457 517 436 517 q 488 501 481 517 q 496 478 496 485 q 487 455 496 468 q 443 435 478 442 q 365 411 406 426 q 289 377 331 399 q 206 325 247 356 q 203 321 204 324 q 200 313 200 315 q 208 307 200 307 q 300 304 254 307 q 380 297 339 301 q 451 285 421 293 q 501 256 490 274 q 511 228 511 239 z "},"=":{"ha":638,"x_min":63,"x_max":568,"o":"m 568 439 q 547 413 568 421 q 494 401 525 404 q 431 399 464 399 q 374 400 397 400 q 306 393 349 399 q 219 381 263 388 q 114 363 169 372 q 86 370 99 363 q 74 399 74 378 q 113 431 74 417 q 210 456 153 446 q 331 470 268 465 q 439 475 393 475 q 535 471 501 475 q 568 439 568 467 m 568 263 q 561 239 568 247 q 547 228 554 231 q 528 224 539 222 q 477 228 513 224 q 414 232 442 232 q 294 225 350 232 q 197 210 239 218 q 107 188 149 200 q 90 185 100 185 q 67 196 72 185 q 63 208 63 207 q 64 217 63 210 q 71 234 65 225 q 89 252 76 243 q 122 267 101 261 q 215 283 165 276 q 316 296 258 290 q 442 301 374 301 q 477 301 456 301 q 519 297 499 300 q 553 285 539 293 q 568 263 568 276 z "},">":{"ha":601,"x_min":86,"x_max":528,"o":"m 528 426 q 505 385 528 408 q 446 335 482 361 q 365 285 410 310 q 278 240 321 260 q 198 207 235 219 q 140 194 161 194 q 109 210 117 194 q 101 233 101 226 q 110 256 101 243 q 154 276 119 269 q 231 300 190 285 q 308 333 265 313 q 392 386 350 354 q 394 390 393 388 q 397 399 397 396 q 389 404 397 404 q 297 407 343 404 q 217 414 258 410 q 146 426 175 418 q 97 455 107 438 q 86 483 86 472 q 101 510 86 503 q 126 517 115 517 q 151 511 138 517 q 161 507 157 508 q 239 488 190 496 q 334 476 288 481 q 415 471 381 472 q 450 469 449 469 q 495 463 479 469 q 518 447 511 456 q 528 426 526 438 z "},"?":{"ha":481,"x_min":-1,"x_max":442,"o":"m 442 597 q 426 530 442 560 q 385 474 410 500 q 332 424 360 449 q 279 374 304 400 q 238 319 254 349 q 222 254 222 290 q 224 234 222 246 q 224 212 226 222 q 215 194 222 201 q 189 186 207 186 q 153 198 167 186 q 131 224 139 210 q 119 253 122 239 q 117 275 117 268 q 148 365 117 325 q 217 440 179 406 q 285 507 254 475 q 317 572 317 539 q 281 652 317 626 q 201 678 244 678 q 131 659 151 678 q 111 615 111 640 q 116 589 111 600 q 126 569 121 578 q 135 551 131 560 q 140 531 140 542 q 125 508 140 514 q 100 501 110 501 q 54 516 74 501 q 22 551 35 531 q 4 593 10 571 q -1 631 -1 615 q 12 677 -1 653 q 51 722 25 701 q 115 757 76 743 q 204 771 153 771 q 277 762 236 771 q 355 733 318 753 q 417 679 392 713 q 442 597 442 646 m 232 50 q 222 15 232 31 q 197 -10 211 0 q 167 -26 183 -21 q 142 -32 151 -32 q 99 -15 110 -32 q 89 24 89 3 q 94 52 89 36 q 110 82 100 68 q 137 105 121 96 q 174 114 153 114 q 214 100 196 114 q 232 50 232 86 z "},"@":{"ha":1017,"x_min":60,"x_max":997,"o":"m 997 336 q 971 160 997 229 q 908 53 944 92 q 833 -1 871 14 q 774 -15 796 -15 q 708 3 733 -15 q 666 47 682 22 q 641 99 650 72 q 626 143 632 126 q 619 150 625 150 q 614 147 617 150 l 613 146 q 562 106 586 119 q 517 85 538 92 q 480 76 496 78 q 453 75 464 75 q 390 90 413 75 q 356 124 367 104 q 342 164 344 144 q 339 193 339 183 q 349 244 339 219 q 375 292 358 269 q 413 333 392 314 q 456 368 433 353 q 574 435 507 404 q 588 444 585 439 q 590 453 590 450 q 561 473 586 468 q 511 478 536 478 q 472 476 479 478 q 449 474 464 474 q 424 478 433 474 q 410 491 415 483 q 404 507 406 499 q 403 522 403 515 q 419 549 406 536 q 453 568 431 560 q 513 576 475 576 q 578 571 542 576 q 646 551 614 565 q 700 513 678 536 q 722 453 722 489 q 703 420 722 436 q 654 387 683 404 q 590 350 625 369 q 526 308 556 331 q 478 258 497 285 q 458 199 458 231 q 465 185 460 190 q 494 172 475 172 q 524 179 507 172 q 556 199 542 186 q 582 228 571 211 q 593 265 593 244 q 592 268 592 267 l 592 276 q 600 305 592 288 q 639 342 608 322 q 646 343 642 342 q 663 346 654 346 q 678 342 671 346 q 686 324 686 338 q 687 310 686 326 q 690 269 688 294 q 699 212 693 243 q 716 153 706 181 q 742 108 726 126 q 782 90 758 90 q 813 97 792 90 q 854 129 833 104 q 890 201 875 154 q 906 326 906 247 q 903 376 906 343 q 890 450 900 410 q 858 533 879 490 q 799 610 836 575 q 705 667 761 644 q 568 689 649 689 q 422 661 494 689 q 294 581 350 633 q 203 452 238 528 q 168 281 168 376 q 171 228 168 260 q 183 162 174 197 q 212 90 193 126 q 261 26 231 54 q 338 -21 292 -3 q 449 -39 383 -39 q 483 -36 469 -39 q 505 -30 496 -33 q 522 -24 514 -26 q 543 -21 531 -21 q 556 -25 550 -21 q 565 -35 561 -28 q 569 -53 569 -42 q 545 -103 569 -85 q 493 -128 521 -121 q 418 -137 460 -137 q 291 -117 346 -137 q 197 -62 236 -96 q 131 15 157 -29 q 88 103 104 58 q 66 192 72 149 q 60 271 60 236 q 106 480 60 388 q 226 636 151 572 q 395 734 301 700 q 585 768 489 768 q 782 726 703 768 q 909 619 861 683 q 977 478 957 554 q 997 336 997 403 z "},"A":{"ha":689,"x_min":28,"x_max":667,"o":"m 667 60 q 656 26 667 38 q 631 10 644 15 q 596 3 615 4 q 530 38 556 3 q 489 117 504 74 q 461 231 471 167 q 457 239 461 238 q 449 240 453 240 q 356 227 397 236 q 288 210 315 218 q 229 189 254 200 q 214 174 218 182 q 210 164 211 168 q 185 67 193 103 q 174 9 178 31 q 169 -26 171 -12 q 161 -57 167 -40 q 142 -88 154 -78 q 115 -103 129 -99 q 90 -109 101 -108 q 74 -110 79 -110 q 50 -101 58 -110 q 38 -81 42 -93 q 33 -58 33 -69 q 32 -42 32 -47 q 38 19 32 -14 q 50 82 43 53 q 69 151 58 117 q 67 161 69 158 q 64 163 65 163 q 35 185 42 171 q 28 207 28 200 q 49 253 33 236 q 79 279 64 269 q 118 293 97 289 q 129 300 124 294 q 132 304 131 303 q 165 383 144 336 q 212 481 186 429 q 267 583 238 532 q 328 676 297 635 q 387 742 358 717 q 440 768 415 768 q 458 764 456 768 q 471 760 460 760 q 480 765 475 760 q 492 777 485 771 q 512 790 500 783 q 540 796 524 796 q 567 788 553 797 q 582 739 582 779 q 581 710 582 722 q 578 679 579 697 q 576 634 578 661 q 575 561 575 607 q 578 447 575 508 q 590 322 581 385 q 614 203 599 260 q 654 104 629 146 q 667 60 667 76 m 454 382 q 452 454 453 414 q 451 531 451 494 l 451 614 q 450 619 451 617 q 444 625 447 625 q 410 600 428 621 q 374 549 392 579 q 341 486 357 519 q 313 424 325 453 q 294 376 301 396 q 286 356 286 357 q 292 342 286 342 q 306 345 292 342 q 343 353 321 349 q 392 361 365 357 q 443 367 418 365 q 449 369 446 367 q 454 382 454 375 z "},"B":{"ha":636,"x_min":-64,"x_max":622,"o":"m 622 258 q 611 207 622 239 q 576 138 600 175 q 511 65 551 101 q 412 -3 471 28 q 274 -52 353 -33 q 92 -71 194 -71 q 62 -49 72 -71 q 46 3 51 -28 q 40 69 40 35 q 39 128 39 103 q 49 279 39 207 q 69 407 58 351 q 100 526 83 472 q 147 588 121 576 q 190 600 172 600 q 224 588 218 599 q 229 569 229 576 q 187 342 197 442 q 176 181 176 243 q 176 144 176 160 q 178 118 176 129 q 181 96 179 106 q 192 71 182 76 q 200 68 196 67 q 295 83 247 68 q 382 124 343 99 q 446 179 421 149 q 471 242 471 210 q 439 307 471 283 q 368 342 407 331 q 295 357 329 354 q 258 363 261 360 q 247 394 247 375 q 260 442 247 426 q 289 464 274 457 q 371 508 342 488 q 413 544 400 529 q 428 579 428 563 q 404 632 428 611 q 345 665 381 653 q 269 683 310 678 q 196 688 229 688 q 103 681 142 688 q 39 667 65 675 q -5 652 13 658 q -35 646 -22 646 q -58 656 -53 646 q -64 679 -64 667 q -51 721 -64 699 q -11 762 -39 743 q 61 794 17 781 q 168 807 106 807 q 286 796 217 807 q 419 760 356 785 q 528 694 483 735 q 574 594 574 653 q 565 554 574 576 q 540 510 556 532 q 501 470 524 489 q 450 440 478 451 q 446 438 447 439 q 443 431 443 435 q 447 425 443 426 q 537 385 503 407 q 590 340 571 363 q 615 296 608 317 q 622 258 622 275 z "},"C":{"ha":615,"x_min":36,"x_max":599,"o":"m 599 204 q 571 115 599 161 q 497 31 543 69 q 393 -31 451 -7 q 275 -54 335 -54 q 178 -37 218 -54 q 111 6 138 -19 q 69 63 85 32 q 47 124 54 94 q 38 176 40 153 q 36 208 36 199 q 66 381 36 289 q 150 553 96 474 q 279 684 204 632 q 444 736 354 736 q 473 734 453 736 q 515 719 493 732 q 553 681 536 707 q 569 604 569 654 q 563 547 569 583 q 540 475 556 511 q 497 413 524 439 q 431 386 471 386 q 396 395 411 386 q 381 431 381 404 q 396 476 381 451 q 414 510 406 493 q 426 540 421 525 q 432 571 432 556 q 397 601 432 601 q 328 572 365 601 q 260 492 292 543 q 207 374 228 442 q 186 229 186 306 q 188 190 186 214 q 199 141 190 165 q 224 99 207 117 q 272 81 242 81 q 311 84 286 81 q 367 103 336 88 q 433 150 399 119 q 500 235 468 181 q 513 249 506 243 q 528 258 519 254 q 547 263 536 263 q 583 249 568 263 q 599 204 599 235 z "},"D":{"ha":639,"x_min":-33,"x_max":625,"o":"m 625 388 q 592 242 625 311 q 508 115 560 174 q 390 10 456 57 q 260 -68 325 -36 q 135 -117 194 -100 q 35 -135 75 -135 q -8 -123 0 -135 q -17 -104 -17 -111 q -3 -65 -14 -81 q 19 -43 8 -50 q 50 -32 33 -35 q 213 33 135 -11 q 349 133 290 78 q 442 247 407 189 q 476 356 476 306 q 447 451 476 411 q 378 515 417 490 q 301 552 339 540 q 249 564 264 564 q 244 563 246 564 q 240 557 240 558 q 233 496 236 529 q 229 432 231 468 q 228 358 228 396 q 231 272 228 314 q 246 197 235 229 q 249 186 247 192 q 251 174 250 181 q 253 161 253 168 q 235 126 253 138 q 196 115 217 115 q 144 138 164 115 q 115 192 125 161 q 101 258 104 224 q 99 315 99 292 q 106 447 99 378 q 121 579 113 517 q 119 583 121 582 q 113 588 118 585 q 39 592 68 592 q 3 593 10 593 q -28 606 -24 593 q -33 622 -33 618 q -15 666 -31 650 q 18 689 1 682 q 61 699 38 697 q 101 699 85 699 q 135 697 118 699 q 142 703 142 697 q 172 760 146 733 q 238 788 197 788 q 255 784 244 788 q 265 764 265 781 q 263 740 265 760 q 256 689 260 721 q 258 682 256 685 q 261 681 260 681 q 390 643 325 668 q 508 581 456 618 q 592 496 560 544 q 625 388 625 447 z "},"E":{"ha":603,"x_min":-61,"x_max":613,"o":"m 613 372 q 588 322 613 340 q 535 292 564 303 q 457 275 500 279 q 365 263 407 269 q 292 250 322 257 q 228 236 256 243 q 222 232 224 235 q 221 226 221 229 q 229 191 221 217 q 257 138 238 165 q 309 90 276 111 q 390 68 342 68 q 423 72 406 68 q 460 79 440 75 q 479 86 469 82 q 497 91 488 89 q 518 93 507 93 q 545 85 536 93 q 554 54 554 76 q 542 13 554 33 q 507 -23 531 -7 q 449 -49 483 -39 q 368 -58 414 -58 q 281 -48 319 -58 q 213 -20 242 -37 q 162 19 183 -3 q 125 64 140 40 q 76 188 89 118 l 74 190 q 67 194 69 194 q 49 191 60 194 q 24 183 38 188 q -2 176 11 179 q -24 172 -15 172 q -47 177 -39 172 q -57 189 -54 182 q -61 207 -61 196 q -58 231 -61 214 q -44 267 -56 247 q -8 304 -32 286 q 58 333 15 322 q 64 335 61 333 q 69 346 69 338 q 78 403 69 367 q 103 483 86 440 q 148 570 121 526 q 215 650 175 614 q 306 709 254 686 q 422 732 357 732 q 451 731 432 732 q 487 723 469 729 q 517 703 504 717 q 531 668 531 690 q 501 613 531 625 q 418 600 471 600 q 326 576 365 600 q 263 517 288 551 q 224 442 238 482 q 211 372 211 403 q 213 368 211 369 q 221 365 215 365 q 374 385 292 376 q 535 394 457 394 q 560 394 547 394 q 585 391 574 393 q 605 385 597 389 q 613 372 613 381 z "},"F":{"ha":514,"x_min":-3,"x_max":519,"o":"m 519 682 q 508 642 519 663 q 469 622 497 622 q 459 623 464 622 q 447 625 454 624 q 409 620 438 625 q 348 594 381 615 q 285 528 315 572 q 243 404 256 483 q 246 397 243 400 q 250 396 247 396 q 299 403 274 401 q 347 406 324 406 q 417 394 390 406 q 443 349 443 383 q 435 322 443 332 q 419 307 428 313 q 396 300 408 301 q 313 290 354 297 q 233 271 271 282 q 229 268 231 269 q 224 260 228 267 q 219 196 221 226 q 218 138 218 165 q 221 47 218 88 q 228 -21 224 7 q 239 -79 233 -54 q 231 -108 239 -96 q 213 -127 224 -119 q 189 -139 201 -135 q 165 -143 176 -143 q 133 -132 146 -143 q 113 -107 119 -121 q 100 -71 104 -92 q 85 51 89 -12 q 82 208 82 114 q 76 215 82 215 q 62 210 72 215 q 36 204 51 204 q 15 210 22 204 q 3 224 7 217 q -3 244 -3 232 q 11 292 -3 272 q 43 324 25 311 q 89 349 63 339 q 93 350 90 349 q 99 358 97 351 q 135 512 104 440 q 213 636 167 583 q 319 719 260 689 q 439 749 378 749 q 495 734 471 749 q 519 682 519 719 z "},"G":{"ha":689,"x_min":29,"x_max":689,"o":"m 689 407 q 682 375 689 396 q 640 335 675 354 q 610 317 624 328 q 590 292 599 307 q 581 256 581 278 l 581 224 q 582 169 581 201 q 588 101 583 136 q 600 35 592 67 q 622 -15 608 4 q 625 -22 624 -18 q 628 -29 626 -25 q 629 -37 629 -33 q 621 -64 628 -53 q 602 -81 614 -74 q 567 -89 590 -89 q 510 -62 531 -89 q 481 -5 490 -36 q 469 53 471 26 q 467 79 467 79 q 461 89 467 89 q 454 86 457 89 q 451 85 453 85 q 386 20 419 44 q 323 -17 353 -4 q 268 -33 293 -29 q 226 -37 243 -37 q 151 -22 182 -37 q 97 17 119 -7 q 62 70 75 42 q 42 125 49 99 q 32 172 35 151 q 29 199 29 192 q 60 382 29 290 q 148 548 92 474 q 283 669 204 622 q 458 715 363 715 q 498 713 476 715 q 539 701 519 710 q 572 676 558 693 q 585 632 585 660 q 581 607 585 621 q 567 581 576 593 q 544 559 558 568 q 513 550 531 550 q 479 569 493 550 q 463 579 472 574 q 443 585 454 582 q 417 589 432 589 q 335 560 378 589 q 256 483 292 532 q 196 368 219 435 q 172 225 172 301 q 174 191 172 213 q 185 149 176 169 q 213 113 194 128 q 261 97 231 97 q 301 104 276 97 q 351 131 325 111 q 403 183 378 150 q 447 271 429 217 q 447 276 447 274 q 440 279 446 279 q 417 276 429 279 q 381 260 406 272 q 365 253 372 256 q 351 249 358 250 q 335 247 343 247 q 310 256 321 247 q 300 281 300 264 q 302 299 300 288 q 313 325 304 311 q 336 353 321 339 q 376 381 351 368 q 456 414 414 399 q 535 438 492 426 q 622 449 578 449 q 667 442 646 449 q 689 407 689 435 z "},"H":{"ha":661,"x_min":-8,"x_max":717,"o":"m 717 725 q 713 705 717 715 q 703 679 710 694 q 658 607 681 647 q 619 522 639 571 q 585 408 599 472 q 571 331 576 372 q 562 248 565 294 q 558 150 558 201 q 560 81 558 115 q 569 11 563 46 q 571 4 569 8 q 574 -12 574 -4 q 567 -44 574 -32 q 549 -64 560 -57 q 527 -74 539 -71 q 506 -78 515 -78 q 457 -57 474 -78 q 433 -6 440 -36 q 424 59 425 25 q 422 119 422 93 q 426 208 422 164 q 433 299 429 253 q 422 305 433 304 q 399 306 410 306 q 331 300 367 306 q 263 286 296 294 q 256 282 257 283 q 254 279 254 281 q 214 117 238 188 q 192 57 204 86 q 164 5 179 28 q 131 -32 149 -18 q 94 -46 114 -46 q 57 -32 68 -46 q 46 1 46 -18 q 50 29 46 18 q 54 42 51 35 q 85 118 71 82 q 106 183 96 150 q 115 238 115 217 q 108 239 115 239 q 84 230 93 235 q 67 222 75 225 q 53 216 60 218 q 33 214 46 214 q 10 219 18 214 q -3 231 1 224 q -8 244 -7 238 q -8 257 -8 251 q -1 290 -8 276 q 18 315 7 304 q 46 336 31 328 q 67 347 54 342 q 93 359 78 353 q 129 374 108 365 l 132 376 q 136 383 135 379 q 138 413 138 399 q 138 442 138 428 q 133 524 138 489 q 125 585 129 560 q 113 635 119 613 q 111 642 111 638 q 110 658 110 646 q 126 699 110 682 q 174 715 142 715 q 217 701 193 715 q 257 638 240 686 q 264 594 260 619 q 269 544 267 574 q 271 476 271 514 q 271 449 271 463 q 269 419 271 435 q 271 417 269 418 q 276 414 274 414 q 356 427 313 421 q 450 438 399 433 q 456 443 454 438 q 490 567 469 508 q 536 672 510 626 q 595 743 563 717 q 668 769 628 769 q 681 768 672 769 q 697 763 689 767 q 710 749 704 758 q 717 725 717 740 z "},"I":{"ha":414,"x_min":24,"x_max":403,"o":"m 403 650 q 401 634 403 642 q 393 618 400 626 q 372 602 386 610 q 335 588 358 594 q 315 582 324 586 q 301 575 308 579 q 290 567 293 571 q 263 434 274 510 q 251 242 251 358 q 252 197 251 221 q 256 152 253 172 q 265 119 260 132 q 278 106 269 106 l 286 106 q 294 106 289 106 q 304 107 299 107 q 354 63 354 107 q 342 23 354 38 q 317 1 331 8 q 279 -8 300 -7 q 213 -19 244 -11 q 157 -36 182 -28 q 101 -57 128 -46 q 68 -64 83 -64 q 44 -58 53 -64 q 31 -43 35 -51 q 24 -22 25 -35 q 31 11 24 -3 q 47 35 38 25 q 72 53 58 46 q 94 67 85 60 q 110 81 103 74 q 118 94 118 88 q 123 228 118 153 q 135 371 128 303 q 153 532 142 450 q 146 542 154 540 q 131 544 138 544 q 96 540 103 540 q 65 553 72 540 q 58 575 58 565 q 72 616 58 590 q 136 664 85 642 q 192 682 163 674 q 248 694 217 689 q 313 700 279 700 q 336 699 321 700 q 366 694 351 699 q 392 678 381 689 q 403 650 403 668 z "},"J":{"ha":547,"x_min":-11,"x_max":588,"o":"m 588 688 q 582 661 588 681 q 547 628 576 642 q 526 615 538 621 q 515 597 515 608 l 515 578 q 516 556 515 568 q 517 526 517 543 q 514 443 517 500 q 500 315 511 386 q 467 169 489 244 q 408 31 446 93 q 313 -71 369 -31 q 176 -111 257 -111 q 72 -87 110 -111 q 16 -31 35 -62 q -7 33 -3 1 q -11 76 -11 64 q 11 182 -11 139 q 64 252 33 225 q 127 292 94 279 q 181 304 160 304 q 213 300 200 304 q 231 289 225 296 q 240 274 238 282 q 242 258 242 265 q 237 240 242 247 q 226 228 232 233 q 213 218 221 222 q 160 182 179 203 q 132 142 142 161 q 118 94 121 118 q 134 24 118 46 q 186 3 150 3 q 255 28 225 3 q 306 93 285 53 q 343 183 328 133 q 367 282 358 232 q 380 376 376 332 q 383 450 383 421 q 383 485 383 469 q 381 511 382 500 q 379 535 379 525 q 372 569 374 560 q 357 578 369 578 q 327 572 342 578 q 298 558 313 565 q 269 544 283 550 q 242 538 254 538 q 209 553 214 538 q 204 579 204 569 q 214 619 204 594 q 260 671 224 644 q 335 706 292 690 q 422 729 371 718 q 539 740 472 740 q 551 739 543 740 q 567 732 560 738 q 581 716 575 726 q 588 688 588 706 z "},"K":{"ha":622,"x_min":29,"x_max":615,"o":"m 615 -44 q 605 -86 615 -72 q 583 -107 594 -100 q 551 -115 568 -114 q 519 -105 532 -115 q 499 -82 506 -94 q 485 -47 489 -67 q 416 65 461 15 q 325 149 371 114 q 244 201 279 183 q 208 219 210 219 q 201 215 206 219 q 200 213 200 214 q 192 117 199 164 q 173 31 186 69 q 138 -32 160 -8 q 82 -56 115 -56 q 56 -50 65 -56 q 42 -36 46 -44 q 37 -19 38 -28 q 36 -6 36 -11 q 43 42 36 14 q 58 99 50 69 q 72 158 65 129 q 79 211 79 188 q 75 217 79 213 q 72 218 74 218 q 36 235 43 218 q 29 264 29 253 q 38 297 29 281 q 57 325 46 313 q 86 353 69 340 q 90 360 90 357 l 90 364 q 83 493 90 435 q 67 593 75 551 q 43 679 56 642 q 40 686 42 682 q 39 701 39 690 q 60 747 39 725 q 117 768 81 768 q 150 760 133 768 q 178 724 167 751 q 194 667 188 703 q 206 583 201 635 q 213 451 211 531 q 214 449 213 450 q 218 446 217 446 q 222 449 221 446 q 235 467 222 450 q 269 508 247 483 q 320 559 292 532 q 381 610 349 586 q 445 649 413 633 q 508 665 478 665 q 547 652 532 665 q 563 610 563 639 q 555 578 563 596 q 522 549 547 561 q 490 535 508 542 q 444 508 472 528 q 377 449 417 488 q 279 342 338 410 q 278 340 278 342 l 278 335 q 282 326 278 329 q 449 215 375 275 q 510 160 479 190 q 563 97 540 131 q 601 28 586 64 q 615 -44 615 -7 z "},"L":{"ha":454,"x_min":-19,"x_max":504,"o":"m 504 69 q 493 33 504 46 q 468 14 482 21 q 432 6 453 7 q 401 10 417 6 q 365 14 386 14 q 256 -2 308 14 q 158 -38 203 -18 q 81 -74 114 -58 q 29 -90 47 -90 q -9 -74 1 -90 q -19 -39 -19 -57 q -8 -1 -19 -18 q 18 29 3 15 q 49 53 33 43 q 76 71 65 64 q 82 78 81 74 q 83 85 83 82 q 79 213 79 156 q 88 394 79 314 q 108 528 97 474 q 138 639 121 592 q 158 681 144 663 q 190 710 169 696 q 240 724 210 724 q 257 722 247 724 q 275 717 267 721 q 289 703 283 713 q 294 679 294 694 q 283 631 294 657 q 246 507 261 574 q 219 374 231 449 q 208 217 208 300 q 210 168 208 193 q 214 119 211 143 q 215 115 214 117 q 222 113 218 113 q 240 117 224 113 q 279 126 256 121 q 333 136 303 132 q 390 140 363 140 q 426 138 406 140 q 463 129 446 136 q 492 108 481 122 q 504 69 504 94 z "},"M":{"ha":735,"x_min":60,"x_max":706,"o":"m 706 650 q 699 597 706 635 q 685 504 693 560 q 670 377 676 449 q 664 222 664 306 q 669 122 664 164 q 683 50 675 81 q 696 -1 690 19 q 701 -35 701 -21 q 681 -74 701 -64 q 644 -85 660 -85 q 584 -62 607 -85 q 549 -1 561 -39 q 532 85 536 36 q 528 186 528 133 q 530 271 528 231 q 535 343 532 311 q 543 414 539 379 q 538 428 544 428 q 528 422 533 428 l 524 418 q 460 334 489 363 q 411 292 432 306 q 367 274 386 276 q 319 301 340 274 q 283 361 299 328 q 251 450 265 400 q 243 463 247 463 q 226 444 233 463 q 213 397 218 425 q 204 333 208 368 q 198 267 200 299 q 195 211 196 236 q 194 176 194 186 q 194 129 194 151 q 196 92 194 107 q 199 58 197 74 q 190 23 200 35 q 168 4 179 11 q 136 -4 153 -3 q 110 1 124 -4 q 86 20 97 7 q 67 56 75 33 q 60 111 60 78 q 61 181 60 129 q 69 301 63 233 q 89 442 76 368 q 125 578 101 517 q 183 681 149 640 q 268 721 218 721 q 288 717 278 721 q 301 697 299 713 q 333 574 317 628 q 365 488 347 526 q 400 450 383 450 q 412 453 401 450 q 443 478 422 457 q 496 545 464 499 q 569 678 528 592 q 581 699 574 689 q 598 713 588 706 q 624 719 608 719 q 646 717 632 719 q 673 706 660 714 q 696 684 686 697 q 706 650 706 671 z "},"N":{"ha":668,"x_min":44,"x_max":685,"o":"m 685 688 q 681 662 685 676 q 667 628 678 647 q 613 490 636 575 q 576 302 593 417 q 560 19 560 188 q 549 -27 560 -11 q 525 -50 538 -43 q 490 -60 510 -58 q 431 -33 460 -60 q 376 37 401 -6 q 327 131 350 79 q 285 234 304 183 q 253 328 267 285 q 229 399 239 372 q 221 413 224 413 q 216 409 218 413 q 211 403 214 406 q 207 394 208 399 q 184 293 190 342 q 178 201 178 244 q 181 124 178 153 q 189 78 185 96 q 197 47 193 60 q 200 17 200 33 q 178 -30 200 -18 q 138 -42 157 -42 q 85 -17 104 -42 q 58 43 67 8 q 47 115 49 78 q 44 175 44 151 q 47 226 44 188 q 57 317 50 265 q 77 425 64 368 q 112 529 90 482 q 164 608 133 576 q 238 639 194 639 q 265 631 253 639 q 287 606 276 624 q 308 556 297 588 q 331 478 318 525 q 371 357 350 410 q 407 274 388 311 q 442 236 426 236 q 453 245 449 236 q 458 292 457 254 q 460 340 458 303 q 467 428 461 378 q 483 532 472 478 q 513 632 493 586 q 561 708 532 678 q 633 738 590 738 q 669 729 653 738 q 685 688 685 721 z "},"O":{"ha":660,"x_min":19,"x_max":640,"o":"m 640 407 q 635 349 640 389 q 617 259 631 308 q 581 156 604 210 q 519 59 557 103 q 427 -12 481 15 q 301 -40 374 -40 q 224 -23 267 -40 q 145 33 182 -6 q 83 135 108 72 q 58 288 58 197 q 68 385 58 340 q 89 465 78 431 q 110 519 100 499 q 119 542 119 539 q 115 547 119 543 q 111 550 113 549 q 83 542 101 550 q 50 533 65 533 q 29 540 39 533 q 19 568 19 546 q 41 628 19 596 q 103 687 63 660 q 199 732 143 714 q 326 750 256 750 q 445 728 389 750 q 545 664 501 707 q 615 556 589 621 q 640 407 640 492 m 503 376 q 481 490 499 440 q 460 532 472 511 q 431 569 449 553 q 390 594 414 585 q 338 604 367 604 q 290 599 308 604 q 260 586 271 593 q 242 569 247 579 q 214 507 226 542 q 194 438 203 478 q 186 353 186 399 q 194 283 186 326 q 219 197 201 239 q 267 124 238 154 q 340 93 297 93 q 391 108 363 93 q 444 157 419 124 q 486 244 469 190 q 503 376 503 299 z "},"P":{"ha":574,"x_min":-33,"x_max":604,"o":"m 604 514 q 588 440 604 474 q 545 376 572 406 q 484 324 518 347 q 415 282 450 300 q 228 210 332 238 q 219 203 222 210 q 218 197 218 200 q 215 171 217 185 q 214 144 214 160 q 214 113 214 128 q 216 64 214 88 q 224 25 218 40 q 237 -26 235 -8 q 239 -56 239 -44 q 210 -94 232 -87 q 165 -101 188 -101 q 122 -78 138 -101 q 97 -22 106 -56 q 86 50 89 13 q 83 117 83 88 l 83 154 q 85 168 83 161 q 82 178 85 172 l 79 181 q 42 190 56 181 q 23 211 29 200 q 15 233 17 222 q 14 244 14 243 q 19 269 14 260 q 32 285 25 279 q 51 292 40 290 q 76 294 63 292 q 89 299 82 296 q 96 308 96 301 q 108 402 101 361 q 121 471 114 443 q 135 529 128 504 q 158 568 144 561 q 179 575 172 575 q 215 567 201 575 q 235 548 228 560 q 244 522 242 536 q 247 497 247 508 q 244 472 247 492 q 238 427 242 451 q 232 379 235 403 q 229 343 229 356 q 233 333 229 335 q 238 332 235 332 q 360 383 317 353 q 425 442 404 414 q 449 492 446 471 q 453 514 453 513 q 413 584 453 556 q 319 629 374 613 q 206 653 264 646 q 108 661 147 661 q 69 660 83 661 q 47 658 56 660 q 32 656 39 657 q 15 656 25 656 q -22 666 -11 656 q -33 688 -33 676 q -25 711 -33 696 q 3 740 -17 726 q 58 765 24 754 q 143 775 92 775 q 235 768 185 775 q 336 747 285 761 q 435 712 388 733 q 521 662 483 690 q 581 596 558 633 q 604 514 604 558 z "},"Q":{"ha":658,"x_min":36,"x_max":674,"o":"m 674 -15 q 665 -75 674 -54 q 645 -106 657 -96 q 622 -117 633 -115 q 606 -118 611 -118 q 580 -110 589 -118 q 567 -93 571 -103 q 561 -68 561 -82 q 553 -9 561 -32 q 538 28 546 14 q 514 53 526 43 q 512 52 513 53 q 510 51 511 51 l 508 51 q 474 16 496 36 q 418 -22 451 -4 q 340 -53 385 -40 q 238 -67 294 -67 q 154 -43 190 -62 q 97 9 122 -26 q 72 108 72 44 q 83 160 75 133 q 104 210 90 183 q 143 265 118 238 q 146 269 146 268 q 143 274 146 271 l 142 275 q 84 319 106 296 q 52 363 63 342 q 39 403 42 385 q 36 435 36 422 q 59 525 36 472 q 125 627 82 578 q 231 710 168 676 q 372 744 293 744 q 453 728 411 744 q 529 669 494 711 q 587 558 564 628 q 610 382 610 488 q 605 305 610 342 q 593 240 600 268 q 578 181 586 207 q 579 174 578 175 l 582 171 q 628 122 607 150 q 659 64 644 99 q 674 -15 674 29 m 485 396 q 474 503 485 460 q 444 573 463 546 q 403 612 426 600 q 354 624 379 624 q 293 609 324 624 q 238 571 263 594 q 199 517 214 547 q 183 454 183 486 q 210 387 183 415 q 278 335 238 358 q 368 292 319 313 q 460 246 417 271 l 463 246 q 467 250 467 246 q 475 293 471 269 q 481 339 478 313 q 485 396 485 365 m 418 133 q 414 140 418 138 q 349 177 382 160 q 292 206 317 194 q 235 231 261 219 l 233 231 q 231 231 232 231 q 228 232 229 232 q 219 228 222 232 q 208 201 214 215 q 201 174 204 189 q 197 139 197 158 q 202 106 197 122 q 217 76 207 89 q 245 56 228 64 q 289 47 263 47 q 342 60 318 47 q 383 90 367 74 q 418 133 403 108 z "},"R":{"ha":608,"x_min":-39,"x_max":638,"o":"m 638 -107 q 629 -137 636 -124 q 609 -158 622 -149 q 572 -167 596 -167 q 506 -141 539 -167 q 442 -76 472 -115 q 387 11 413 -36 q 342 99 361 58 q 311 170 324 140 q 297 206 299 200 q 288 215 293 215 q 285 215 286 215 q 283 214 285 214 l 282 213 q 249 219 261 213 q 231 236 238 226 q 224 256 225 246 q 222 269 222 265 q 225 283 222 276 q 231 294 228 289 q 240 304 235 300 q 349 360 310 332 q 407 413 388 389 q 431 455 426 438 q 435 479 435 472 q 400 549 435 518 q 315 599 365 579 q 206 630 264 619 q 100 640 147 640 q 41 638 64 640 q 13 635 18 635 q -17 641 -7 635 q -32 656 -26 647 q -39 676 -37 664 q 1 725 -37 701 q 119 749 40 749 q 278 731 196 749 q 426 679 360 713 q 536 598 493 646 q 579 490 579 550 q 576 463 579 483 q 556 414 572 443 q 505 351 539 385 q 410 282 471 317 q 406 279 407 281 q 403 272 403 276 q 417 232 403 271 q 456 140 431 193 q 518 32 482 86 q 599 -53 554 -22 q 624 -74 611 -61 q 638 -107 636 -87 m 239 497 q 235 472 239 486 q 203 335 217 407 q 181 196 190 272 q 171 40 171 119 q 171 17 171 29 q 172 -7 171 4 l 172 -10 q 173 -13 172 -11 q 174 -18 174 -15 q 164 -47 174 -37 q 143 -62 154 -57 q 113 -69 129 -68 q 75 -55 89 -69 q 54 -20 61 -40 q 45 22 47 0 q 43 58 43 43 q 57 232 43 150 q 89 378 71 314 q 135 517 108 453 q 147 533 140 526 q 164 546 154 540 q 186 551 174 551 q 199 549 190 551 q 217 541 208 547 q 233 524 226 535 q 239 497 239 514 z "},"S":{"ha":622,"x_min":40,"x_max":606,"o":"m 606 175 q 583 97 606 142 q 513 13 560 53 q 395 -56 465 -28 q 229 -83 325 -83 q 141 -69 174 -83 q 91 -35 108 -54 q 69 6 74 -15 q 64 42 64 26 q 81 115 64 86 q 119 160 99 143 q 158 183 140 176 q 175 190 175 190 q 201 183 196 190 q 207 168 207 175 q 206 165 207 165 q 206 163 206 164 l 206 160 q 197 125 199 140 q 194 99 194 110 q 217 44 194 58 q 271 29 239 29 q 336 40 304 29 q 394 67 368 50 q 435 109 419 85 q 451 161 451 133 q 421 215 451 194 q 344 251 390 236 q 246 278 299 265 q 147 308 193 290 q 71 353 101 326 q 40 424 40 381 q 80 534 40 478 q 180 637 119 590 q 314 713 240 683 q 457 742 388 742 q 501 735 479 742 q 541 716 524 729 q 569 681 558 703 q 579 625 579 658 q 572 576 579 601 q 550 529 564 550 q 517 494 536 508 q 475 481 497 481 q 455 488 468 481 q 442 519 442 494 q 443 534 442 529 q 445 544 444 539 q 447 555 446 549 q 449 574 449 561 q 396 624 449 624 q 330 607 367 624 q 260 565 293 590 q 206 510 228 540 q 185 456 185 481 q 216 412 185 429 q 294 379 247 394 q 395 348 340 364 q 497 310 450 332 q 574 255 543 288 q 606 175 606 222 z "},"T":{"ha":350,"x_min":-33,"x_max":517,"o":"m 517 731 q 515 710 517 722 q 508 686 514 697 q 492 667 503 675 q 464 660 482 660 q 432 658 458 660 q 371 650 406 656 q 299 635 336 644 q 232 608 261 625 q 231 606 232 608 q 235 601 231 603 q 247 595 240 599 q 258 588 253 592 q 265 576 264 583 q 256 513 263 551 q 244 426 250 475 q 233 322 238 378 q 228 208 228 267 q 234 101 228 151 q 257 13 240 50 q 260 7 258 11 q 263 -8 263 -1 q 260 -20 263 -11 q 251 -39 258 -29 q 231 -56 244 -49 q 193 -64 217 -64 q 152 -50 169 -64 q 124 -15 135 -36 q 106 31 113 6 q 97 79 100 56 q 92 121 93 103 q 92 146 92 139 q 100 285 92 210 q 119 428 108 361 q 147 582 132 504 q 142 589 147 589 q 98 576 117 583 q 63 560 79 568 q 33 548 47 553 q 7 543 19 543 q -26 561 -17 543 q -33 579 -32 568 q -24 622 -33 594 q 28 672 -14 649 q 156 731 89 706 q 283 771 213 753 q 424 789 353 789 q 449 788 433 789 q 480 780 465 786 q 506 762 494 774 q 517 731 517 750 z "},"U":{"ha":633,"x_min":57,"x_max":599,"o":"m 599 578 q 558 263 594 400 q 519 147 543 203 q 461 46 496 90 q 379 -26 426 1 q 271 -53 332 -53 q 200 -38 231 -53 q 147 0 169 -24 q 110 54 125 24 q 85 117 94 85 q 57 288 61 192 q 78 488 57 413 q 143 589 99 564 q 158 594 150 592 q 174 599 165 597 q 192 600 182 600 q 224 592 210 600 q 238 558 238 585 q 230 526 238 551 q 213 462 222 501 q 195 370 203 422 q 188 258 188 318 q 192 195 188 226 q 206 139 196 164 q 232 98 215 114 q 275 82 249 82 q 355 123 321 82 q 411 226 389 164 q 444 363 433 289 q 454 504 454 438 q 450 605 454 550 q 435 717 446 660 q 451 767 436 744 q 510 790 467 790 q 581 741 563 790 q 599 578 599 692 z "},"V":{"ha":563,"x_min":22,"x_max":635,"o":"m 635 732 q 628 702 635 719 q 604 664 622 685 q 546 590 575 636 q 491 492 521 551 q 435 344 461 432 q 397 225 414 281 q 369 133 382 178 q 351 69 356 88 q 332 18 343 38 q 308 -11 321 -1 q 283 -24 296 -21 q 257 -26 269 -26 q 219 -16 236 -26 q 190 8 201 -6 q 165 43 175 24 q 85 229 114 135 q 42 405 56 324 q 25 545 28 486 q 22 624 22 604 q 29 649 22 635 q 48 677 36 664 q 76 699 60 690 q 114 708 93 708 q 130 706 121 708 q 147 697 139 704 q 161 675 156 689 q 167 636 167 661 q 165 619 165 629 l 165 574 q 168 493 165 540 q 178 394 171 446 q 201 291 186 343 q 239 194 215 239 q 243 188 240 190 q 254 181 247 181 q 265 193 261 181 q 283 260 271 210 q 315 377 296 311 q 361 515 335 443 q 421 647 388 586 q 493 746 454 707 q 578 785 532 785 q 617 774 600 785 q 635 732 635 763 z "},"W":{"ha":949,"x_min":51,"x_max":924,"o":"m 924 557 q 913 446 924 507 q 882 322 901 385 q 835 201 863 260 q 777 95 808 142 q 710 21 746 49 q 638 -7 674 -7 q 592 5 613 -7 q 553 35 571 17 q 521 79 535 54 q 496 129 507 104 q 454 267 471 189 q 446 281 453 281 q 436 274 443 281 q 432 268 433 271 q 409 224 422 257 q 382 156 396 192 q 350 65 367 114 q 326 25 339 39 q 299 4 313 11 q 275 -4 286 -3 q 258 -6 264 -6 q 190 19 221 -6 q 137 84 160 44 q 98 173 114 124 q 72 271 82 222 q 56 363 61 319 q 51 432 51 406 q 56 504 51 472 q 65 557 60 536 q 81 599 71 582 q 97 624 86 613 q 123 640 107 633 q 163 649 139 647 q 185 642 175 649 q 200 622 193 635 q 207 585 207 608 q 201 540 207 564 q 192 496 196 521 q 186 447 189 475 q 183 386 183 418 q 187 337 183 372 q 199 264 190 301 q 222 198 208 226 q 257 169 236 169 q 276 174 265 169 q 299 207 286 179 q 340 310 319 261 q 379 396 358 351 q 417 471 400 440 l 419 482 q 422 497 422 493 q 426 525 421 511 q 439 549 431 536 q 464 574 447 563 l 483 583 q 501 590 492 586 q 522 593 511 593 q 543 585 535 593 q 553 558 551 578 q 553 515 553 549 q 557 438 554 482 q 565 346 560 394 q 582 257 571 297 q 610 190 593 217 q 653 164 628 164 q 694 190 671 164 q 738 260 717 215 q 772 365 758 304 q 786 494 786 425 q 780 563 786 528 q 765 638 774 599 q 761 647 763 642 q 758 669 758 658 q 775 717 758 694 q 831 740 792 740 q 903 688 882 740 q 924 557 924 636 z "},"X":{"ha":619,"x_min":-26,"x_max":692,"o":"m 692 676 q 683 644 692 657 q 664 621 675 631 q 636 603 651 610 q 597 581 618 594 q 556 552 579 569 q 508 513 533 535 q 450 456 481 488 q 390 390 424 428 q 318 308 356 353 q 317 307 317 308 l 317 301 q 318 296 317 297 q 353 249 333 275 q 399 201 374 224 q 455 164 425 179 q 521 149 485 149 q 552 152 540 149 q 575 156 564 156 q 614 142 599 156 q 629 97 629 129 q 617 57 629 74 q 586 29 606 40 q 543 13 567 18 q 499 7 519 7 q 394 35 442 7 q 310 96 346 63 q 253 157 275 129 q 229 185 232 185 q 225 182 228 185 q 222 181 224 181 q 180 115 200 149 q 142 47 160 82 q 125 8 131 26 q 110 -32 119 -10 q 86 -68 99 -56 q 62 -87 74 -81 q 41 -94 50 -93 q 29 -94 32 -94 q -3 -84 7 -94 q -19 -61 -14 -74 q -26 -26 -25 -46 q -22 4 -26 -12 q -11 38 -19 19 q 13 79 -3 56 q 51 140 29 106 q 97 207 71 168 q 154 290 122 246 q 157 296 157 293 q 156 299 157 297 q 156 301 156 300 l 154 303 q 100 427 119 368 q 72 531 81 486 q 61 601 63 575 q 60 628 60 628 q 65 656 60 642 q 81 683 69 671 q 108 704 92 696 q 144 713 124 713 q 174 703 158 713 q 193 658 190 693 q 200 589 194 625 q 216 515 206 557 q 246 425 226 474 q 247 424 246 424 q 251 422 249 422 q 385 578 318 510 q 444 635 413 607 q 506 685 475 663 q 566 720 536 707 q 621 733 596 733 q 637 732 625 733 q 661 725 649 731 q 683 708 674 719 q 692 676 692 696 z "},"Y":{"ha":571,"x_min":3,"x_max":554,"o":"m 554 738 q 553 707 554 733 q 544 634 551 681 q 522 522 538 588 q 478 374 507 457 q 479 369 478 371 q 481 367 481 368 q 483 365 481 365 q 526 338 517 357 q 532 318 532 328 q 502 258 532 281 q 436 236 472 236 q 426 232 431 236 q 424 228 424 229 q 369 111 403 174 q 293 -5 336 49 q 199 -94 250 -58 q 90 -129 147 -129 q 51 -120 65 -129 q 31 -100 38 -111 q 21 -69 22 -86 q 26 -42 21 -53 q 38 -24 31 -31 q 56 -10 44 -15 q 137 17 103 -3 q 193 60 171 38 q 236 115 218 85 q 268 171 253 143 q 294 229 283 199 q 296 236 296 232 q 290 242 296 242 q 140 299 197 260 q 53 388 83 339 q 13 488 22 436 q 3 579 3 539 q 7 639 3 615 q 11 663 8 651 q 28 693 17 679 q 51 715 38 704 q 89 725 65 725 q 101 724 90 725 q 122 717 111 724 q 141 699 132 711 q 150 663 150 686 q 149 645 150 651 q 146 631 147 639 q 143 611 144 624 q 142 575 142 599 q 152 500 142 535 q 185 439 163 465 q 247 395 208 413 q 342 372 285 378 q 350 381 347 372 q 383 496 369 438 q 403 603 396 554 q 415 711 411 658 q 439 758 415 732 q 506 783 463 783 q 538 775 522 783 q 554 738 554 767 z "},"Z":{"ha":539,"x_min":-21,"x_max":560,"o":"m 560 611 q 552 581 560 597 q 525 546 544 565 q 364 390 438 467 q 301 322 332 357 q 244 250 271 286 q 199 179 218 214 q 172 114 179 144 q 171 110 171 111 q 169 103 169 107 q 179 94 169 94 q 201 99 181 94 q 251 108 221 103 q 317 118 282 114 q 385 122 353 122 q 429 119 406 122 q 472 106 453 115 q 505 81 492 96 q 518 42 518 65 q 508 4 518 17 q 486 -15 497 -8 q 456 -24 472 -22 q 415 -17 440 -24 q 344 -10 390 -10 q 242 -15 282 -10 q 172 -27 201 -21 q 119 -38 143 -33 q 64 -43 94 -43 q 20 -36 36 -43 q -6 -19 4 -29 q -18 3 -15 -8 q -21 26 -21 15 q -21 39 -21 33 q -19 49 -21 44 q -17 58 -18 54 q 37 165 3 108 q 111 276 71 221 q 193 382 151 331 q 269 473 235 433 q 324 538 303 513 q 346 568 346 564 q 335 583 346 578 q 311 590 325 588 q 284 592 297 592 q 265 593 271 593 q 214 589 238 593 q 172 579 190 585 q 133 565 151 574 q 118 563 122 563 q 94 569 103 563 q 79 583 85 575 q 72 599 74 592 q 71 608 71 606 q 128 691 71 663 q 281 719 186 719 q 338 715 293 719 q 433 699 383 711 q 521 665 482 686 q 560 611 560 644 z "},"[":{"ha":292,"x_min":81,"x_max":254,"o":"m 254 779 q 248 760 254 772 q 221 729 242 749 q 206 714 211 722 q 195 697 200 707 q 190 674 190 686 q 186 593 188 640 q 182 346 182 511 l 182 -26 q 188 -60 185 -44 q 211 -99 192 -76 q 233 -125 225 -111 q 242 -151 242 -139 q 235 -168 242 -162 q 219 -176 228 -174 q 199 -179 210 -181 q 117 -140 153 -179 q 81 -37 81 -101 q 82 97 81 29 q 83 215 83 165 q 85 368 83 289 q 88 515 86 447 q 92 632 90 583 q 93 692 93 681 q 109 743 93 721 q 146 780 125 765 q 188 802 167 794 q 219 810 208 810 q 240 805 233 810 q 250 794 247 800 q 254 779 254 788 z "},"\\":{"ha":467,"x_min":-78,"x_max":382,"o":"m 382 -67 q 373 -101 382 -85 q 344 -117 364 -117 q 318 -109 328 -117 q 301 -85 308 -101 q 288 -47 294 -69 q 269 7 281 -24 q 203 167 240 83 q 128 334 167 251 q 53 494 90 417 q -13 635 15 571 q -60 747 -42 700 q -78 815 -78 793 q -71 848 -78 835 q -44 864 -64 861 q -32 860 -37 864 q -22 851 -26 856 q -12 839 -17 846 q 185 424 99 613 q 258 264 222 343 q 321 117 293 185 q 365 1 349 50 q 382 -67 382 -49 z "},"]":{"ha":292,"x_min":40,"x_max":214,"o":"m 214 668 q 213 533 214 601 q 211 415 211 465 q 210 263 211 342 q 206 115 208 183 q 203 -1 204 47 q 201 -61 201 -50 q 185 -112 201 -90 q 149 -149 169 -135 q 106 -172 128 -164 q 75 -179 85 -179 q 44 -164 51 -179 q 40 -149 40 -158 q 47 -130 40 -142 q 74 -99 53 -118 q 89 -83 83 -92 q 99 -67 94 -76 q 104 -43 103 -57 q 108 38 106 -10 q 111 140 110 78 q 113 285 113 201 l 113 657 q 106 691 110 675 q 83 729 103 707 q 61 756 69 742 q 53 782 53 769 q 59 798 53 793 q 74 806 65 803 q 96 810 83 808 q 178 771 142 810 q 214 668 214 732 z "},"_":{"ha":617,"x_min":40,"x_max":533,"o":"m 533 -69 q 514 -101 533 -93 q 467 -108 494 -108 q 444 -108 456 -108 q 421 -106 432 -107 q 331 -99 356 -100 q 290 -97 306 -97 q 213 -100 250 -97 q 144 -106 175 -103 q 76 -114 108 -110 q 54 -102 65 -110 q 40 -75 43 -94 q 60 -47 42 -57 q 103 -32 79 -36 q 150 -26 126 -28 q 186 -22 174 -25 q 224 -19 203 -21 q 266 -17 242 -18 q 319 -15 290 -15 q 378 -17 342 -15 q 449 -23 414 -18 q 508 -39 483 -28 q 533 -69 533 -50 z "},"`":{"ha":694,"x_min":268,"x_max":474,"o":"m 474 532 q 468 519 474 521 q 457 518 463 518 q 432 524 447 518 q 396 549 417 529 q 351 583 372 568 q 315 609 333 597 q 286 624 297 621 q 276 631 281 626 q 268 651 268 639 q 270 662 268 653 q 280 681 272 671 q 303 698 288 690 q 347 706 319 706 q 385 685 364 706 q 427 636 407 664 q 460 579 447 608 q 474 532 474 550 z "},"a":{"ha":464,"x_min":17,"x_max":446,"o":"m 446 -39 q 438 -65 446 -56 q 418 -78 429 -74 q 390 -83 406 -83 q 348 -69 365 -83 q 319 -36 331 -54 q 297 13 306 -15 q 292 19 296 19 q 286 17 289 19 l 283 14 q 240 -24 263 -10 q 197 -47 218 -39 q 160 -56 176 -54 q 132 -58 143 -58 q 68 -44 92 -58 q 33 -10 44 -29 q 19 27 22 8 q 17 54 17 46 q 26 108 17 82 q 53 156 36 133 q 90 199 69 179 q 133 235 111 218 q 251 303 185 272 q 260 307 256 304 q 268 319 268 313 q 243 340 268 335 q 189 346 218 346 q 165 345 176 346 q 144 343 153 344 q 125 342 133 342 q 101 345 110 340 q 88 357 92 350 q 82 372 83 364 q 81 383 81 379 q 83 397 81 388 q 97 416 86 406 q 130 434 108 426 q 189 442 151 442 q 250 436 214 442 q 319 417 286 431 q 374 383 351 404 q 397 332 397 363 q 378 290 397 310 q 329 251 358 269 q 266 214 300 233 q 203 174 232 194 q 154 127 174 153 q 135 71 135 101 q 140 53 135 65 q 164 40 144 40 q 195 49 178 40 q 228 70 213 57 q 254 100 243 83 q 265 135 265 117 q 264 138 264 136 l 264 146 q 269 168 264 156 q 283 191 274 181 q 306 208 293 201 q 333 215 318 215 q 349 211 342 215 q 357 193 357 207 q 369 118 361 154 q 389 57 376 88 q 421 10 401 26 q 433 -6 428 1 q 442 -21 438 -12 q 446 -39 446 -29 z "},"b":{"ha":492,"x_min":53,"x_max":460,"o":"m 460 311 q 444 193 460 256 q 399 78 428 131 q 329 -8 369 26 q 240 -43 289 -43 q 196 -28 213 -43 q 168 6 179 -14 q 149 54 156 26 q 144 58 146 58 q 133 51 138 58 q 122 37 128 44 q 106 22 115 29 q 82 15 96 15 q 65 23 71 15 q 57 41 60 31 q 53 62 54 51 q 53 79 53 72 q 54 244 53 151 q 62 433 56 336 q 79 623 68 529 q 111 792 90 717 q 121 808 115 801 q 135 821 126 815 q 157 826 143 826 q 188 817 176 826 q 204 797 199 808 q 211 768 210 783 q 181 615 194 696 q 160 456 169 544 q 150 268 150 367 q 150 261 149 264 q 156 254 150 254 q 163 260 158 254 q 271 397 215 350 q 371 443 326 443 q 390 441 375 443 q 419 426 404 439 q 447 388 435 414 q 460 311 460 361 m 356 265 q 345 310 356 303 q 329 318 335 318 q 281 290 304 318 q 238 231 257 263 q 197 144 215 193 q 210 106 201 122 q 228 79 217 90 q 260 68 240 68 q 299 90 281 68 q 329 142 317 111 q 349 207 342 174 q 356 265 356 240 z "},"c":{"ha":426,"x_min":25,"x_max":383,"o":"m 383 118 q 366 56 383 86 q 319 0 349 25 q 249 -40 289 -25 q 165 -56 210 -56 q 92 -33 119 -56 q 49 19 64 -11 q 30 81 35 50 q 25 126 25 111 q 44 238 25 181 q 99 344 64 296 q 182 422 133 392 q 289 453 231 453 q 343 438 325 453 q 371 406 361 424 q 383 358 381 385 q 381 329 383 351 q 367 283 378 307 q 336 241 357 260 q 279 222 315 222 q 258 238 264 222 q 256 254 256 244 q 260 272 256 264 q 269 289 264 281 q 279 307 275 297 q 283 328 283 317 q 279 347 283 336 q 260 357 275 357 q 226 345 247 357 q 183 308 204 333 q 148 242 163 282 q 133 147 133 203 q 135 110 133 129 q 144 76 138 92 q 163 49 151 60 q 193 39 174 39 q 214 41 201 39 q 242 52 226 43 q 274 79 257 61 q 307 131 290 97 q 326 151 314 143 q 350 160 338 160 q 369 153 363 160 q 379 139 376 146 q 383 118 383 129 z "},"d":{"ha":519,"x_min":19,"x_max":496,"o":"m 496 358 q 483 324 496 332 q 458 315 471 315 q 443 317 447 315 q 436 319 439 318 q 435 283 435 303 q 435 244 435 263 q 437 174 435 208 q 443 113 439 140 q 455 65 447 85 q 474 38 463 46 q 484 24 482 31 q 486 13 486 17 q 478 -14 486 -4 q 460 -28 469 -24 q 442 -35 450 -33 q 433 -36 433 -36 q 382 -17 400 -36 q 354 25 364 1 q 342 86 343 51 q 339 93 342 93 q 335 90 338 93 l 332 88 q 256 10 294 38 q 187 -29 218 -17 q 133 -44 156 -42 q 107 -46 111 -46 q 61 -33 78 -46 q 35 -3 44 -21 q 22 35 25 15 q 19 71 19 56 q 48 204 19 144 q 122 308 76 264 q 224 381 167 353 q 339 419 281 408 q 342 421 340 419 q 344 423 343 422 q 346 426 346 424 q 349 480 347 451 q 351 543 350 508 q 361 676 354 615 q 368 728 364 703 q 378 777 372 754 q 390 817 383 800 q 406 842 397 833 q 422 856 414 850 q 440 866 429 861 q 461 871 450 871 q 482 865 472 871 q 492 833 492 860 q 488 797 492 819 q 469 692 476 746 q 457 594 463 639 q 447 493 451 542 q 446 472 447 483 q 444 449 444 463 q 442 418 443 435 q 443 414 442 415 q 446 413 444 413 q 480 393 464 406 q 496 358 496 381 m 338 311 q 329 317 338 317 q 258 292 293 313 q 197 242 224 272 q 152 176 169 213 q 135 101 135 139 q 140 74 135 86 q 163 61 146 61 q 215 81 185 61 q 273 136 246 101 q 319 216 300 171 q 338 311 338 261 z "},"e":{"ha":399,"x_min":-7,"x_max":392,"o":"m 392 346 q 374 262 392 303 q 326 189 356 221 q 257 138 296 157 q 175 118 218 118 q 169 115 172 118 q 168 113 168 114 q 183 63 171 81 q 207 33 194 44 q 240 17 222 21 q 284 -9 276 7 q 292 -36 292 -25 q 283 -63 292 -54 q 263 -76 274 -72 q 235 -83 250 -82 q 156 -62 188 -83 q 106 -14 125 -40 q 71 57 83 17 l 67 74 q 63 93 64 82 q 60 119 61 104 q 58 122 60 121 q 53 125 56 125 q 22 135 36 128 q 2 154 11 142 q -7 190 -7 167 q -1 210 -6 201 q 8 223 1 217 q 24 229 14 229 q 35 227 26 229 q 60 222 44 225 q 64 224 63 222 q 65 225 65 224 q 117 342 85 290 q 147 385 131 364 q 185 422 164 406 q 232 449 207 439 q 288 458 257 458 q 319 454 301 458 q 353 438 338 450 q 381 403 369 425 q 392 346 392 381 m 292 332 q 289 346 292 340 q 282 356 286 351 q 269 361 278 361 q 234 346 253 361 q 199 308 215 331 q 174 259 183 285 q 164 213 164 233 q 169 206 164 206 q 199 213 179 206 q 240 236 219 221 q 276 275 261 251 q 292 332 292 299 z "},"f":{"ha":365,"x_min":8,"x_max":485,"o":"m 485 682 q 476 628 485 654 q 453 582 467 601 q 422 551 439 563 q 390 539 406 539 q 375 544 379 539 q 371 556 371 550 q 375 582 371 567 q 379 625 379 597 q 369 673 379 664 q 353 682 358 682 q 283 619 318 682 q 221 425 249 557 l 221 422 q 225 421 221 421 q 267 426 244 424 q 322 428 290 428 q 342 424 333 428 q 355 413 349 421 q 361 390 361 404 q 347 346 361 363 q 314 329 332 329 q 256 326 282 329 q 207 318 231 322 q 203 315 204 317 q 201 313 203 314 q 200 310 200 311 q 190 211 193 263 q 186 103 186 160 q 188 26 186 54 q 192 -20 190 -1 q 197 -56 194 -39 q 199 -97 199 -72 q 192 -120 199 -111 q 178 -134 186 -129 q 160 -141 169 -139 q 143 -143 150 -143 q 107 -127 119 -143 q 88 -86 94 -111 q 81 -29 82 -61 q 79 35 79 3 q 79 75 79 56 q 81 110 79 94 q 83 142 82 126 q 92 275 85 214 l 92 278 q 88 281 92 281 q 79 278 86 281 q 64 271 72 275 q 47 264 56 267 q 32 261 38 261 q 11 276 17 261 q 8 293 8 283 q 14 322 8 310 q 26 343 19 335 q 46 360 35 353 q 61 368 53 363 q 78 376 68 372 q 101 386 89 381 q 104 388 104 386 q 106 390 104 389 q 107 393 106 392 q 157 576 124 499 q 231 702 190 653 q 313 775 271 751 q 389 799 354 799 q 420 794 403 799 q 451 776 438 789 q 475 740 465 763 q 485 682 485 717 z "},"g":{"ha":508,"x_min":13,"x_max":476,"o":"m 476 125 q 472 -20 476 56 q 456 -169 467 -96 q 426 -308 444 -242 q 381 -423 408 -374 q 315 -501 353 -472 q 229 -531 278 -531 q 205 -526 214 -531 q 190 -515 196 -522 q 182 -500 185 -510 q 190 -478 182 -489 q 207 -457 197 -467 q 233 -437 218 -447 q 310 -335 281 -396 q 357 -206 340 -274 q 380 -70 374 -137 q 386 50 386 -3 q 386 78 386 65 q 385 101 386 90 q 377 138 383 129 q 367 146 371 146 q 331 119 360 146 q 260 60 301 92 q 173 1 219 28 q 85 -26 126 -26 q 45 -16 60 -26 q 23 9 31 -6 q 14 40 15 24 q 13 68 13 57 q 42 185 13 122 q 119 303 72 249 q 226 394 167 358 q 344 431 286 431 q 369 428 357 431 q 393 418 382 425 q 411 397 404 411 q 418 363 418 383 q 417 343 418 351 q 416 326 417 335 q 413 306 415 318 q 407 276 411 294 l 406 275 l 406 272 q 408 268 406 268 q 414 271 408 268 q 426 276 421 274 q 453 282 440 282 q 469 275 465 282 q 474 243 472 268 q 476 186 475 215 q 476 125 476 157 m 321 272 q 317 293 321 283 q 308 307 314 300 q 293 314 303 314 q 224 288 256 314 q 168 226 192 261 q 131 156 144 190 q 118 104 118 121 q 133 85 118 85 q 186 103 154 85 q 248 150 218 122 q 299 210 278 178 q 321 272 321 243 z "},"h":{"ha":492,"x_min":42,"x_max":447,"o":"m 447 75 q 444 -12 447 35 q 432 -110 440 -58 q 424 -128 432 -121 q 406 -137 415 -135 q 381 -143 394 -142 q 340 -125 350 -143 q 331 -87 329 -107 q 337 18 333 -28 q 340 100 340 64 q 333 232 340 192 q 310 272 325 272 q 268 240 292 272 q 222 162 244 207 q 179 68 199 117 q 151 -11 160 19 q 139 -35 147 -26 q 121 -47 131 -43 q 103 -52 111 -51 q 89 -53 94 -53 q 64 -33 74 -53 q 49 18 54 -12 q 43 84 44 49 q 42 149 42 119 q 49 340 42 240 q 67 527 57 439 q 89 683 78 615 q 106 782 100 751 q 118 828 110 807 q 156 849 126 849 q 192 833 178 849 q 206 781 206 817 q 204 744 206 765 q 196 693 203 724 q 168 528 181 611 q 149 374 157 457 q 142 221 142 292 q 142 213 140 217 q 147 204 142 204 q 156 214 150 204 q 172 248 156 217 q 215 316 189 279 q 273 383 240 353 q 339 413 306 413 q 416 331 385 413 q 447 75 447 250 z "},"i":{"ha":224,"x_min":39,"x_max":210,"o":"m 210 639 q 205 613 210 629 q 189 579 200 596 q 159 550 178 563 q 113 538 140 538 q 77 553 86 538 q 68 586 68 568 q 76 618 68 601 q 97 649 83 635 q 130 673 111 664 q 169 682 149 682 q 194 675 179 682 q 210 639 210 668 m 167 382 q 161 353 165 375 q 153 302 157 332 q 145 235 149 272 q 142 157 142 197 q 144 99 142 126 q 150 53 147 72 q 158 8 154 28 q 140 -17 156 -11 q 113 -24 124 -24 q 89 -18 100 -24 q 81 -12 83 -15 q 48 65 57 15 q 39 172 39 115 q 42 257 39 215 q 50 332 46 299 q 61 406 56 371 q 67 417 61 411 q 81 424 71 421 q 107 428 90 428 q 124 426 114 428 q 144 419 135 424 q 160 405 153 414 q 167 382 167 396 z "},"j":{"ha":321,"x_min":-71,"x_max":283,"o":"m 243 628 q 234 579 243 600 q 210 544 225 558 q 179 522 196 529 q 146 514 163 514 q 109 531 121 514 q 97 564 97 547 q 106 602 97 583 q 127 635 114 621 q 158 659 140 650 q 197 668 176 668 q 224 661 214 668 q 238 647 233 654 q 243 628 243 639 m 283 381 q 278 354 283 372 q 244 321 272 336 q 235 314 239 318 q 226 292 226 306 l 226 18 q 220 -80 226 -25 q 201 -191 214 -135 q 168 -301 188 -247 q 121 -398 149 -356 q 58 -466 93 -440 q -19 -492 24 -492 q -49 -485 -39 -492 q -64 -472 -58 -479 q -71 -453 -69 -464 q -62 -431 -71 -442 q -53 -422 -58 -425 q -13 -387 -32 -407 q 19 -349 6 -368 q 50 -304 35 -326 q 90 -197 75 -258 q 113 -70 106 -135 q 124 55 121 -6 q 126 160 126 115 q 126 190 126 176 q 125 214 125 204 l 125 233 q 118 249 122 249 q 103 244 111 249 q 87 233 96 239 q 67 222 78 226 q 47 217 57 217 q 27 222 35 217 q 16 233 19 226 q 12 247 13 240 q 11 258 11 254 q 15 282 11 271 q 25 301 19 293 q 40 319 31 311 q 107 368 72 346 q 171 403 136 388 q 239 424 206 419 q 267 417 250 424 q 283 381 283 410 z "},"k":{"ha":463,"x_min":46,"x_max":482,"o":"m 482 -60 q 465 -92 482 -76 q 426 -107 449 -107 q 411 -106 415 -107 q 406 -104 407 -106 q 374 -91 389 -103 q 343 -61 358 -79 q 314 -22 328 -43 q 288 22 300 0 q 232 142 258 75 q 226 150 231 150 q 221 147 224 150 l 218 144 q 182 86 197 115 q 156 33 167 57 q 135 -18 143 7 q 118 -37 128 -33 q 100 -40 108 -40 q 73 -31 83 -40 q 57 -8 63 -21 q 47 25 50 7 q 46 57 46 40 q 46 89 46 74 q 51 208 46 147 q 63 330 56 269 q 79 448 69 390 q 99 557 89 506 q 151 792 122 676 q 161 804 156 799 q 174 814 167 810 q 196 818 182 818 q 209 816 200 818 q 228 808 218 814 q 245 793 238 803 q 253 767 253 783 q 251 754 253 758 q 213 608 231 692 q 178 435 196 538 q 146 203 161 333 q 147 196 146 199 q 151 190 150 190 q 157 196 153 190 q 189 251 172 224 q 221 303 204 275 q 257 356 238 332 q 304 410 279 385 q 349 447 325 429 q 397 464 374 464 q 411 461 403 464 q 428 453 419 458 q 442 438 436 447 q 449 417 449 429 q 444 397 449 406 q 432 382 439 388 q 417 371 425 375 q 368 335 390 354 q 332 297 349 318 q 310 254 315 276 q 339 156 319 204 q 385 64 356 113 q 461 -25 415 15 l 471 -35 q 482 -60 482 -46 z "},"l":{"ha":244,"x_min":53,"x_max":236,"o":"m 235 775 q 197 586 213 683 q 171 403 182 503 q 160 208 160 303 q 168 76 160 138 q 199 -28 176 15 q 203 -37 200 -32 q 208 -61 208 -49 q 194 -92 208 -74 q 151 -110 181 -110 q 127 -104 138 -110 q 110 -92 117 -99 q 94 -72 101 -83 q 62 39 71 -28 q 53 183 53 106 q 59 332 53 256 q 76 483 65 408 q 99 626 86 557 q 128 754 113 696 q 139 778 131 767 q 159 795 146 788 q 194 806 172 803 q 223 802 210 806 q 236 783 236 799 l 235 775 z "},"m":{"ha":764,"x_min":31,"x_max":747,"o":"m 747 -25 q 740 -49 747 -39 q 724 -67 733 -60 q 703 -77 714 -74 q 685 -81 692 -81 q 629 -59 650 -81 q 598 -5 608 -37 q 584 66 588 28 q 581 138 581 104 q 582 184 581 165 q 583 214 583 203 q 579 242 583 236 q 568 247 575 247 q 558 243 563 247 q 549 235 553 239 q 539 224 543 229 q 508 174 524 204 q 476 115 492 143 q 443 46 460 82 q 419 9 432 26 q 383 -8 407 -8 q 340 19 356 -8 q 317 83 325 47 q 307 154 310 119 q 301 201 304 189 q 286 221 297 221 q 280 219 283 221 q 274 217 276 218 q 268 213 269 214 q 223 147 243 188 q 188 68 203 107 q 157 -28 171 22 q 139 -57 150 -53 q 114 -61 128 -61 q 86 -54 97 -61 q 69 -37 75 -47 q 60 -17 63 -28 q 58 3 58 -6 q 63 54 58 31 q 67 82 64 68 q 71 127 69 106 q 72 168 72 149 q 66 252 72 217 q 53 311 60 288 q 35 358 44 339 q 32 364 33 360 q 31 379 31 368 q 35 398 31 388 q 46 417 39 408 q 64 433 53 426 q 89 440 75 440 q 121 428 103 440 q 150 375 139 417 q 157 340 153 361 q 162 292 160 321 q 164 224 164 264 q 165 221 164 222 q 168 218 165 218 q 172 222 169 218 q 190 256 176 232 q 226 307 204 281 q 275 353 247 333 q 333 374 303 374 q 372 355 361 374 q 389 275 382 336 q 394 229 390 249 q 401 199 397 213 q 410 185 404 185 q 418 190 413 185 q 439 228 428 200 q 455 264 440 233 q 493 328 469 294 q 547 390 517 363 q 613 417 578 417 q 651 404 636 417 q 673 373 665 392 q 683 331 681 354 q 685 286 685 307 q 692 97 685 168 q 735 -3 699 25 q 740 -8 738 -4 q 745 -15 743 -11 q 747 -25 747 -19 z "},"n":{"ha":504,"x_min":49,"x_max":490,"o":"m 490 32 q 480 -2 490 10 q 457 -19 469 -14 q 425 -26 442 -25 q 371 -2 390 -26 q 342 58 351 22 q 331 131 333 93 q 329 199 329 169 l 329 225 q 318 239 329 239 q 283 218 300 239 q 248 166 265 197 q 215 99 231 135 q 184 31 199 63 q 156 -24 169 -1 q 133 -49 143 -46 q 121 -51 126 -50 q 110 -53 115 -53 q 77 -36 89 -53 q 59 8 65 -19 q 51 69 53 35 q 49 140 49 104 q 52 210 49 169 q 61 292 56 251 q 74 366 67 332 q 92 417 82 400 q 108 440 99 429 q 130 456 117 449 q 163 464 143 464 q 172 463 165 464 q 186 459 179 463 q 199 449 193 456 q 204 429 204 442 q 193 388 204 411 q 175 326 182 357 q 163 269 168 300 q 158 211 158 238 q 164 193 158 193 q 168 196 167 193 q 193 235 174 204 q 241 301 213 267 q 303 363 269 336 q 372 390 336 390 q 422 363 413 390 q 432 272 432 335 q 431 243 432 258 q 429 208 429 228 q 430 172 429 194 q 435 125 431 149 q 449 81 440 101 q 474 53 458 61 l 482 47 q 490 32 490 39 z "},"o":{"ha":435,"x_min":33,"x_max":406,"o":"m 406 260 q 386 141 406 192 q 335 56 367 90 q 263 5 303 22 q 183 -12 224 -12 q 100 14 129 -12 q 57 72 71 40 q 39 158 42 110 q 46 219 39 190 q 63 271 53 247 q 88 321 74 297 q 83 326 88 322 q 81 328 82 328 q 46 337 58 328 q 33 360 33 346 q 48 396 33 378 q 87 427 63 414 q 141 449 111 440 q 200 457 171 457 q 260 449 225 457 q 327 421 294 442 q 383 361 360 400 q 406 260 406 322 m 293 231 q 283 292 292 265 q 262 333 276 315 q 219 351 247 351 q 199 342 211 351 q 177 313 188 332 q 159 264 167 293 q 151 197 151 235 q 152 167 151 186 q 159 129 153 149 q 178 96 165 110 q 217 82 192 82 q 260 105 244 82 q 282 156 275 128 q 293 231 290 189 z "},"p":{"ha":546,"x_min":-18,"x_max":535,"o":"m 535 307 q 501 174 535 235 q 416 69 467 114 q 306 -4 365 24 q 197 -40 247 -32 q 190 -44 194 -40 q 188 -49 189 -47 q 183 -222 183 -131 q 186 -283 183 -254 q 192 -337 189 -310 q 203 -385 196 -365 q 214 -421 211 -408 q 217 -439 217 -433 q 198 -477 217 -467 q 167 -487 179 -487 q 151 -486 156 -487 q 146 -485 147 -486 q 110 -445 122 -476 q 92 -379 97 -414 q 85 -315 86 -344 q 83 -281 83 -286 q 83 -198 83 -233 q 84 -135 83 -162 q 85 -87 85 -108 q 86 -47 86 -67 q 85 -44 86 -46 q 78 -40 82 -42 q 29 -22 50 -35 q -3 4 11 -12 q -18 44 -18 21 q -4 78 -18 67 q 21 89 10 89 q 52 79 36 89 q 82 69 68 69 q 90 74 88 69 q 92 78 92 75 q 108 246 99 176 q 128 361 118 315 q 149 450 138 414 q 161 471 153 461 q 181 485 168 478 q 213 492 193 492 q 235 488 222 492 q 247 465 247 485 q 242 439 247 463 q 232 385 238 415 q 222 327 226 356 q 217 286 217 299 q 219 281 217 281 q 226 288 221 281 q 288 346 251 321 q 360 387 317 368 q 457 406 403 406 q 496 390 479 403 q 523 360 511 379 q 535 307 535 340 m 426 264 q 422 282 426 275 q 413 292 418 289 q 399 296 407 296 q 327 269 364 296 q 260 207 290 243 q 212 133 231 171 q 193 74 193 96 q 197 64 193 65 q 203 63 200 63 q 280 85 240 63 q 352 139 319 107 q 406 205 385 171 q 426 264 426 239 z "},"q":{"ha":524,"x_min":17,"x_max":544,"o":"m 544 15 q 542 0 544 10 q 536 -20 540 -10 q 525 -38 532 -31 q 507 -46 518 -46 q 491 -40 496 -46 q 472 -35 486 -35 q 453 -37 464 -35 q 432 -45 442 -40 q 415 -55 422 -50 q 407 -64 408 -60 q 388 -213 397 -129 q 379 -381 379 -297 q 381 -452 379 -426 q 386 -494 383 -478 q 391 -521 389 -510 q 393 -546 393 -532 q 387 -567 393 -560 q 373 -578 381 -575 q 358 -583 365 -582 q 349 -583 350 -583 q 292 -540 313 -583 q 272 -418 272 -497 q 276 -359 272 -397 q 283 -279 279 -321 q 293 -199 288 -237 q 303 -140 299 -161 q 300 -137 303 -137 q 290 -146 297 -139 q 274 -161 283 -153 q 254 -176 265 -169 q 232 -183 243 -183 q 217 -178 222 -183 q 208 -167 211 -174 q 203 -150 204 -160 q 206 -126 203 -137 q 214 -108 210 -115 q 226 -93 219 -100 q 253 -68 238 -82 q 282 -42 265 -57 q 321 -12 299 -28 q 339 71 335 33 q 343 110 343 108 q 339 115 343 115 q 307 90 332 115 q 247 35 282 65 q 172 -19 213 6 q 93 -44 131 -44 q 49 -29 64 -44 q 26 4 33 -14 q 18 38 19 22 q 17 54 17 54 q 44 168 17 104 q 115 288 71 232 q 213 383 158 344 q 325 422 268 422 q 349 420 336 422 q 374 408 363 418 q 394 376 386 397 q 401 319 401 356 q 400 289 401 306 q 394 250 399 272 q 401 244 394 244 q 411 249 406 246 q 420 251 415 250 q 431 253 425 253 q 451 218 451 253 q 450 192 451 201 q 446 169 449 183 q 439 129 443 156 q 428 53 435 103 q 429 50 428 51 q 433 49 431 49 q 465 61 450 56 q 499 67 479 67 q 531 56 518 67 q 544 15 544 44 m 304 215 q 303 244 304 229 q 298 271 301 258 q 288 292 294 283 q 268 300 281 300 q 217 277 243 300 q 171 222 192 254 q 137 156 150 190 q 124 100 124 122 q 127 78 124 89 q 144 68 131 68 q 187 89 160 68 q 240 136 214 110 q 285 186 265 163 q 304 215 304 210 z "},"r":{"ha":399,"x_min":42,"x_max":399,"o":"m 399 254 q 391 237 399 243 q 374 228 383 231 q 349 224 363 224 q 306 233 321 224 q 283 253 292 242 q 271 273 275 264 q 261 282 267 282 q 234 253 253 282 q 196 178 215 224 q 162 76 176 132 q 147 -32 147 21 q 134 -64 147 -56 q 101 -72 121 -72 q 67 -53 79 -72 q 50 -4 56 -33 q 43 61 44 25 q 42 131 42 97 q 45 240 42 186 q 53 333 49 294 q 64 386 57 365 q 81 418 71 407 q 106 434 92 429 q 139 439 119 439 q 151 433 146 438 q 160 423 156 431 q 164 403 164 415 q 163 390 164 394 q 156 350 160 371 q 149 309 153 332 q 144 261 146 286 q 146 256 144 258 q 151 251 147 251 q 157 258 156 251 q 176 304 165 279 q 199 351 186 325 q 229 401 211 376 q 240 423 238 414 q 257 453 243 432 q 279 472 267 464 q 303 486 290 479 q 331 493 315 493 q 351 486 342 493 q 361 464 361 479 q 358 428 361 446 q 354 388 354 411 q 361 326 354 349 q 376 291 368 304 q 392 270 385 278 q 399 254 399 263 z "},"s":{"ha":406,"x_min":28,"x_max":378,"o":"m 378 115 q 351 41 378 72 q 288 -11 325 10 q 210 -42 250 -32 q 142 -51 169 -51 q 54 -26 81 -51 q 28 26 28 -1 q 44 61 28 50 q 74 72 61 72 q 110 62 88 72 q 164 51 132 51 q 228 65 207 51 q 250 94 250 78 q 234 120 250 110 q 194 138 218 131 q 142 153 169 146 q 90 173 114 161 q 49 202 65 185 q 33 246 33 219 q 55 317 33 279 q 111 385 76 354 q 190 438 146 417 q 281 458 235 458 q 344 435 321 458 q 368 364 368 413 q 357 322 368 342 q 317 303 346 303 q 294 312 300 303 q 285 331 289 321 q 274 351 281 342 q 246 360 267 360 q 222 353 238 360 q 191 336 207 347 q 163 310 175 325 q 151 276 151 294 q 168 249 151 260 q 210 228 185 238 q 265 210 235 218 q 319 189 294 201 q 361 159 344 176 q 378 115 378 142 z "},"t":{"ha":260,"x_min":-47,"x_max":360,"o":"m 360 533 q 353 512 360 519 q 339 501 346 504 q 319 497 331 497 q 283 494 306 497 q 240 487 261 492 q 202 476 218 482 q 185 467 186 471 q 176 394 181 439 q 171 299 174 357 q 168 158 168 240 q 181 54 172 103 q 199 -32 188 11 q 231 -99 211 -75 q 243 -128 243 -115 q 224 -156 243 -147 q 194 -165 206 -165 q 158 -156 172 -165 q 144 -146 150 -151 q 104 -83 119 -122 q 81 3 89 -43 q 69 101 72 50 q 65 197 65 151 q 67 279 65 235 q 72 363 69 324 q 81 453 76 408 q 78 457 81 457 l 75 457 q -21 469 6 457 q -47 507 -47 481 q -46 519 -47 511 q -38 536 -44 528 q -19 551 -32 544 q 14 557 -7 557 q 38 554 29 557 q 65 551 46 551 q 82 553 69 551 q 94 561 94 554 q 120 687 106 642 q 151 753 135 732 q 184 780 167 775 q 218 785 201 785 q 233 782 226 785 q 245 773 240 779 q 250 756 250 767 q 246 724 250 739 q 235 690 242 708 q 220 645 228 671 q 204 579 213 619 q 208 574 204 574 q 239 580 214 574 q 285 586 264 586 q 326 578 311 586 q 349 560 342 569 q 360 533 357 547 z "},"u":{"ha":483,"x_min":39,"x_max":464,"o":"m 464 26 q 456 -3 464 7 q 438 -18 449 -14 q 410 -24 425 -24 q 370 -11 386 -24 q 344 17 354 1 q 331 48 335 33 q 326 65 326 63 q 324 69 326 69 q 318 67 321 69 q 315 65 317 65 q 267 1 292 24 q 220 -33 242 -22 q 184 -45 199 -43 q 167 -47 169 -47 q 108 -24 132 -47 q 68 35 83 0 q 46 113 53 71 q 39 192 39 154 q 45 270 39 226 q 65 351 51 314 q 99 415 78 389 q 150 440 119 440 q 163 440 156 440 q 178 434 171 439 q 190 419 185 429 q 194 392 194 410 q 191 360 194 378 q 176 315 188 342 q 160 261 167 289 q 149 208 153 238 q 144 153 144 179 q 156 98 144 121 q 194 75 167 75 q 236 97 217 79 q 271 146 253 113 q 300 239 289 179 q 303 260 301 249 q 306 282 304 269 q 307 307 307 294 q 313 324 307 314 q 327 344 318 335 q 349 361 336 354 q 379 368 363 368 q 406 361 394 368 q 418 331 418 354 q 413 289 418 318 q 408 206 408 260 q 415 133 408 168 q 436 76 422 97 q 453 55 442 68 q 464 26 464 42 z "},"v":{"ha":488,"x_min":33,"x_max":489,"o":"m 489 415 q 482 394 489 408 q 456 358 475 381 q 413 306 436 339 q 367 231 390 274 q 322 135 343 188 q 283 25 300 83 q 265 -21 276 -1 q 239 -51 256 -37 q 199 -65 222 -65 q 146 -44 169 -65 q 103 12 122 -22 q 72 88 85 46 q 50 170 58 129 q 38 246 42 211 q 33 301 33 281 q 44 371 33 346 q 88 396 54 396 q 102 394 93 396 q 119 388 111 393 q 132 372 126 382 q 138 343 138 361 q 143 266 138 313 q 156 176 149 219 q 174 100 164 132 q 193 68 183 68 q 204 79 200 68 q 254 219 228 153 q 279 278 265 249 q 308 336 293 308 q 340 389 324 364 q 375 432 357 414 q 393 446 383 440 q 413 456 401 451 q 439 461 424 461 q 473 452 457 461 q 489 415 489 443 z "},"w":{"ha":711,"x_min":28,"x_max":686,"o":"m 686 375 q 663 216 686 292 q 606 83 639 140 q 536 -8 572 25 q 475 -42 500 -42 q 414 -13 439 -42 q 372 51 389 15 q 340 146 353 93 q 335 154 339 154 q 329 150 333 154 l 326 147 q 284 75 308 110 q 234 14 260 40 q 185 -28 208 -12 q 144 -44 161 -44 q 89 -10 111 -44 q 53 72 67 25 q 34 167 40 119 q 28 238 28 214 q 29 286 28 264 q 33 324 31 308 q 40 357 36 342 q 53 382 46 371 q 70 399 60 392 q 96 407 81 407 q 119 401 108 407 q 135 387 128 397 q 143 358 143 376 q 136 321 139 340 q 132 281 133 303 q 131 233 131 258 q 133 199 131 222 q 139 153 135 176 q 151 111 143 129 q 172 93 160 93 q 192 102 179 93 q 223 133 206 111 q 260 192 240 156 q 303 285 281 229 q 317 339 306 315 q 368 363 329 363 q 397 354 383 363 q 413 318 410 346 q 429 208 418 256 q 451 133 438 167 q 485 99 465 99 q 514 115 497 99 q 545 161 531 131 q 569 235 560 192 q 579 335 579 279 q 577 370 579 357 q 573 393 575 383 q 569 411 571 403 q 568 432 568 419 q 582 480 568 458 q 632 501 596 501 q 675 467 664 501 q 686 375 686 433 z "},"x":{"ha":486,"x_min":14,"x_max":471,"o":"m 471 369 q 463 340 471 353 q 432 319 456 326 q 385 295 411 314 q 333 253 358 276 q 289 208 308 231 q 264 174 269 186 q 265 169 264 171 q 301 146 282 156 q 339 129 318 136 q 381 122 360 122 q 411 116 400 122 q 428 103 422 110 q 435 83 433 94 q 427 53 435 65 q 407 32 419 40 q 381 20 394 24 q 354 17 367 17 q 299 27 326 17 q 250 51 272 38 q 201 88 225 67 q 199 86 200 88 l 197 85 q 140 -14 157 26 q 121 -74 124 -54 q 107 -97 117 -89 q 88 -110 97 -106 q 64 -117 76 -115 q 23 -101 32 -117 q 14 -68 14 -85 q 18 -40 14 -57 q 34 3 22 -24 q 68 66 46 29 q 126 154 90 103 q 128 158 128 156 q 127 160 128 160 q 126 161 126 160 l 126 163 q 78 234 96 200 q 53 295 61 268 q 43 339 44 322 q 42 360 42 356 q 55 403 42 379 q 99 426 68 426 q 123 418 110 426 q 142 382 136 410 q 150 340 144 363 q 165 297 156 321 q 192 249 175 274 l 193 247 q 194 246 193 246 q 199 249 196 246 q 240 296 215 267 q 294 351 265 325 q 353 397 322 378 q 413 417 383 417 q 447 409 435 417 q 464 393 458 401 q 471 369 469 382 z "},"y":{"ha":461,"x_min":21,"x_max":421,"o":"m 421 328 q 417 283 421 307 q 409 226 414 260 q 401 147 404 193 q 397 35 397 100 q 370 -196 397 -96 q 304 -364 343 -296 q 221 -467 265 -432 q 142 -501 176 -501 q 125 -498 131 -501 q 117 -489 119 -494 q 113 -475 113 -483 q 117 -455 113 -465 q 129 -436 122 -444 q 147 -417 136 -426 q 230 -290 200 -362 q 275 -144 260 -218 q 294 -5 290 -71 q 299 103 299 61 q 296 111 299 111 q 292 108 294 111 l 290 107 q 236 27 263 54 q 188 -14 210 0 q 139 -32 163 -29 q 81 -6 103 -32 q 44 58 58 19 q 26 140 31 96 q 21 219 21 183 q 51 395 21 332 q 132 458 81 458 q 142 458 135 458 q 155 453 149 457 q 166 442 161 450 q 171 421 171 435 q 161 385 171 406 q 142 331 150 360 q 128 272 135 306 q 122 200 122 238 q 123 174 122 192 q 127 137 124 156 q 138 104 131 118 q 160 90 146 90 q 183 98 169 90 q 214 129 196 106 q 254 196 232 153 q 306 308 276 239 q 324 344 313 329 q 348 370 333 358 q 383 382 363 382 q 394 381 388 382 q 407 374 401 379 q 417 358 413 369 q 421 328 421 347 z "},"z":{"ha":456,"x_min":22,"x_max":435,"o":"m 435 -85 q 424 -164 435 -115 q 388 -271 413 -212 q 322 -393 363 -329 q 221 -518 281 -457 q 179 -549 197 -543 q 151 -556 161 -556 q 128 -537 128 -556 q 131 -526 128 -532 q 136 -514 133 -519 q 144 -501 140 -508 q 192 -433 161 -478 q 252 -333 222 -387 q 303 -219 282 -278 q 325 -108 325 -160 q 315 -49 325 -72 q 288 -14 304 -26 q 253 3 272 -1 q 214 8 233 8 q 175 3 193 8 q 143 -7 157 -1 q 114 -22 128 -14 q 101 -31 107 -29 q 89 -33 94 -33 q 67 -26 76 -33 q 53 -10 58 -19 q 45 8 47 -1 q 43 24 43 18 q 61 75 43 49 q 106 128 79 101 q 163 181 132 154 q 221 231 194 207 q 265 276 247 254 q 283 314 283 297 q 272 332 283 329 q 250 335 260 335 q 206 326 228 335 q 165 308 183 318 q 124 282 143 296 q 101 265 108 272 q 88 253 93 258 q 76 246 82 249 q 58 243 69 243 q 28 259 35 243 q 22 286 22 275 q 47 346 22 319 q 110 390 72 372 q 192 418 147 408 q 279 428 238 428 q 313 425 292 428 q 356 414 335 422 q 391 391 376 406 q 406 353 406 376 q 373 264 406 306 q 301 188 340 222 q 228 128 261 153 q 196 90 196 103 q 200 86 196 86 q 206 88 203 86 q 225 92 214 89 q 247 94 235 93 q 275 96 260 96 q 390 53 346 96 q 435 -85 435 11 z "},"{":{"ha":285,"x_min":11,"x_max":239,"o":"m 239 757 q 232 733 239 747 q 211 694 219 718 q 198 644 204 675 q 192 572 192 613 q 201 478 192 517 q 211 425 211 440 q 208 403 211 417 q 197 372 206 389 q 173 339 189 356 q 131 307 157 322 q 128 306 129 307 q 125 300 125 303 q 132 290 125 296 q 165 263 150 278 q 189 230 178 249 q 200 189 200 211 q 198 168 200 176 q 194 148 196 160 q 190 117 192 136 q 188 67 188 99 q 197 -27 188 25 q 231 -132 206 -79 q 226 -145 231 -140 q 214 -150 221 -150 q 181 -135 201 -150 q 140 -94 160 -119 q 107 -38 121 -69 q 93 25 93 -7 q 96 67 93 46 q 103 106 99 88 q 110 139 107 125 q 113 160 113 153 q 100 212 113 190 q 72 247 88 233 q 32 272 54 263 q 15 285 18 279 q 11 294 11 292 q 24 317 11 310 q 38 324 29 321 q 81 349 64 335 q 107 380 97 364 q 119 412 117 396 q 122 440 122 428 q 118 475 122 460 q 109 506 114 490 q 100 540 104 522 q 96 583 96 558 q 112 653 96 619 q 150 713 128 688 q 194 755 172 739 q 228 771 215 771 q 239 757 239 771 z "},"|":{"ha":361,"x_min":124,"x_max":251,"o":"m 251 735 q 249 663 251 710 q 242 559 246 617 q 233 437 238 501 q 224 310 228 372 q 217 190 219 247 q 214 93 214 133 q 215 16 214 56 q 219 -67 217 -24 q 204 -96 215 -81 q 169 -111 193 -111 q 146 -97 154 -111 q 132 -61 138 -82 q 125 -17 126 -40 q 124 22 124 6 q 124 58 124 43 q 126 90 125 72 q 130 131 128 107 q 135 193 132 154 q 138 235 136 201 q 143 314 140 268 q 149 411 146 360 q 155 508 153 463 q 159 584 157 553 q 161 622 161 615 q 163 693 161 658 q 167 756 164 728 q 172 818 169 789 q 184 850 174 844 q 201 856 194 856 q 226 845 217 856 q 242 818 236 835 q 249 780 247 801 q 251 735 251 758 z "},"}":{"ha":314,"x_min":75,"x_max":303,"o":"m 303 297 q 299 288 303 294 q 282 275 296 282 q 242 250 258 265 q 214 215 226 236 q 201 163 201 193 q 204 142 201 156 q 211 109 207 128 q 218 69 215 90 q 221 28 221 49 q 207 -35 221 -4 q 174 -92 193 -67 q 133 -132 154 -117 q 100 -147 113 -147 q 88 -142 93 -147 q 83 -129 83 -137 q 117 -24 108 -76 q 126 69 126 28 q 124 120 126 101 q 120 151 122 139 q 116 171 118 163 q 114 192 114 179 q 124 233 114 214 q 147 265 135 251 q 182 293 163 281 q 189 303 189 299 q 186 308 189 306 q 183 310 185 310 q 141 342 157 325 q 117 375 125 358 q 106 406 108 392 q 103 428 103 419 q 113 481 103 443 q 122 575 122 519 q 115 647 122 615 q 101 697 108 678 q 82 736 93 721 q 75 760 75 750 q 86 774 75 774 q 120 758 99 774 q 164 716 142 742 q 202 656 186 690 q 218 586 218 622 q 214 543 218 561 q 205 509 210 525 q 196 478 200 493 q 192 443 192 463 q 194 415 192 431 q 207 383 197 399 q 233 352 217 367 q 276 326 249 338 q 289 319 283 324 q 299 311 294 317 q 303 297 303 306 z "},"~":{"ha":694,"x_min":303,"x_max":578,"o":"m 578 783 q 553 727 578 747 q 501 697 529 707 q 425 683 467 685 q 335 704 368 686 q 303 763 303 722 q 318 815 303 799 q 365 831 333 831 q 390 825 379 831 q 412 813 401 819 q 435 802 422 807 q 467 797 449 797 q 518 808 490 797 q 528 811 522 810 q 537 814 532 813 q 549 815 542 815 q 565 810 560 815 q 574 799 571 806 q 578 783 578 792 z "},"Ä":{"ha":689,"x_min":28,"x_max":667,"o":"m 557 894 q 542 849 557 871 q 496 826 528 826 q 464 836 478 826 q 450 869 450 846 q 460 903 453 888 q 478 926 467 915 q 513 938 490 938 q 546 924 535 938 q 557 894 557 911 m 356 901 q 341 856 356 878 q 294 833 326 833 q 263 843 276 833 q 249 876 249 853 q 258 910 251 894 q 277 933 265 922 q 311 944 289 944 q 344 931 333 944 q 356 901 356 918 m 667 60 q 656 26 667 38 q 631 10 644 15 q 596 3 615 4 q 530 38 556 3 q 489 117 504 74 q 461 231 471 167 q 457 239 461 238 q 449 240 453 240 q 356 227 397 236 q 288 210 315 218 q 229 189 254 200 q 214 174 218 182 q 210 164 211 168 q 185 67 193 103 q 174 9 178 31 q 169 -26 171 -12 q 161 -57 167 -40 q 142 -88 154 -78 q 115 -103 129 -99 q 90 -109 101 -108 q 74 -110 79 -110 q 50 -101 58 -110 q 38 -81 42 -93 q 33 -58 33 -69 q 32 -42 32 -47 q 38 19 32 -14 q 50 82 43 53 q 69 151 58 117 q 67 161 69 158 q 64 163 65 163 q 35 185 42 171 q 28 207 28 200 q 49 253 33 236 q 79 279 64 269 q 118 293 97 289 q 129 300 124 294 q 132 304 131 303 q 165 383 144 336 q 212 481 186 429 q 267 583 238 532 q 328 676 297 635 q 387 742 358 717 q 440 768 415 768 q 458 764 456 768 q 471 760 460 760 q 480 765 475 760 q 492 777 485 771 q 512 790 500 783 q 540 796 524 796 q 567 788 553 797 q 582 739 582 779 q 581 710 582 722 q 578 679 579 697 q 576 634 578 661 q 575 561 575 607 q 578 447 575 508 q 590 322 581 385 q 614 203 599 260 q 654 104 629 146 q 667 60 667 76 m 454 382 q 452 454 453 414 q 451 531 451 494 l 451 614 q 450 619 451 617 q 444 625 447 625 q 410 600 428 621 q 374 549 392 579 q 341 486 357 519 q 313 424 325 453 q 294 376 301 396 q 286 356 286 357 q 292 342 286 342 q 306 345 292 342 q 343 353 321 349 q 392 361 365 357 q 443 367 418 365 q 449 369 446 367 q 454 382 454 375 z "},"Å":{"ha":689,"x_min":28,"x_max":667,"o":"m 531 900 q 498 838 531 860 q 428 815 465 815 q 385 827 400 815 q 363 854 369 839 q 353 893 354 871 q 359 917 353 903 q 378 944 365 931 q 409 968 390 958 q 454 978 428 978 q 478 974 465 978 q 503 960 492 969 q 523 936 515 951 q 531 900 531 921 m 667 60 q 656 26 667 38 q 631 10 644 15 q 596 3 615 4 q 530 38 556 3 q 489 117 504 74 q 461 231 471 167 q 457 239 461 238 q 449 240 453 240 q 356 227 397 236 q 288 210 315 218 q 229 189 254 200 q 214 174 218 182 q 210 164 211 168 q 185 67 193 103 q 174 9 178 31 q 169 -26 171 -12 q 161 -57 167 -40 q 142 -88 154 -78 q 115 -103 129 -99 q 90 -109 101 -108 q 74 -110 79 -110 q 50 -101 58 -110 q 38 -81 42 -93 q 33 -58 33 -69 q 32 -42 32 -47 q 38 19 32 -14 q 50 82 43 53 q 69 151 58 117 q 67 161 69 158 q 64 163 65 163 q 35 185 42 171 q 28 207 28 200 q 49 253 33 236 q 79 279 64 269 q 118 293 97 289 q 129 300 124 294 q 132 304 131 303 q 165 383 144 336 q 212 481 186 429 q 267 583 238 532 q 328 676 297 635 q 387 742 358 717 q 440 768 415 768 q 458 764 456 768 q 471 760 460 760 q 480 765 475 760 q 492 777 485 771 q 512 790 500 783 q 540 796 524 796 q 567 788 553 797 q 582 739 582 779 q 581 710 582 722 q 578 679 579 697 q 576 634 578 661 q 575 561 575 607 q 578 447 575 508 q 590 322 581 385 q 614 203 599 260 q 654 104 629 146 q 667 60 667 76 m 479 900 q 465 926 479 922 q 446 931 450 931 q 418 921 429 931 q 407 892 407 911 q 412 875 407 886 q 442 864 417 864 q 465 872 451 864 q 479 900 479 881 m 454 382 q 452 454 453 414 q 451 531 451 494 l 451 614 q 450 619 451 617 q 444 625 447 625 q 410 600 428 621 q 374 549 392 579 q 341 486 357 519 q 313 424 325 453 q 294 376 301 396 q 286 356 286 357 q 292 342 286 342 q 306 345 292 342 q 343 353 321 349 q 392 361 365 357 q 443 367 418 365 q 449 369 446 367 q 454 382 454 375 z "},"Ç":{"ha":615,"x_min":36,"x_max":599,"o":"m 599 194 q 572 108 599 153 q 501 25 544 63 q 402 -37 457 -12 q 290 -62 347 -61 l 285 -71 q 281 -86 281 -79 q 288 -97 281 -94 q 316 -114 307 -104 q 331 -133 325 -124 q 338 -156 336 -144 q 315 -200 336 -183 q 254 -217 293 -217 q 229 -215 244 -217 q 214 -200 214 -212 q 222 -192 214 -194 q 231 -190 226 -190 q 263 -185 251 -190 q 279 -174 274 -181 q 286 -162 285 -168 q 288 -153 288 -156 q 278 -139 285 -144 q 265 -131 272 -133 q 247 -125 257 -126 q 236 -112 236 -125 q 246 -82 236 -94 q 254 -65 256 -69 q 253 -62 254 -62 q 165 -40 201 -58 q 104 5 128 -21 q 67 60 81 31 q 46 118 53 90 q 38 167 39 146 q 36 199 36 189 q 50 311 36 251 q 90 428 64 371 q 151 539 115 486 q 233 631 188 592 q 333 694 279 671 q 446 718 386 718 q 474 716 454 718 q 516 701 494 714 q 554 663 538 689 q 571 586 571 636 q 564 529 571 565 q 541 457 557 493 q 499 394 525 421 q 432 368 472 368 q 397 377 413 368 q 382 413 382 386 q 397 458 382 433 q 415 492 407 475 q 428 522 422 507 q 433 553 433 538 q 399 583 433 583 q 330 556 367 583 q 261 478 293 528 q 208 363 229 429 q 186 219 186 296 q 188 180 186 204 q 199 131 190 156 q 224 89 207 107 q 272 71 242 71 q 311 74 286 71 q 367 94 336 78 q 433 140 399 110 q 500 225 468 171 q 513 239 506 233 q 528 249 519 244 q 547 253 536 253 q 583 239 568 253 q 599 194 599 225 z "},"É":{"ha":603,"x_min":-61,"x_max":613,"o":"m 494 929 q 491 917 494 922 q 485 908 488 911 q 476 901 481 904 q 426 873 449 890 q 383 839 403 856 q 344 810 363 822 q 306 796 325 797 q 290 803 293 794 q 289 810 288 807 q 304 865 289 835 q 340 922 319 896 q 383 966 361 949 q 415 983 404 983 q 437 981 424 983 q 463 972 450 978 q 485 955 475 965 q 494 929 494 944 m 613 372 q 588 322 613 340 q 535 292 564 303 q 457 275 500 279 q 365 263 407 269 q 292 250 322 257 q 228 236 256 243 q 222 232 224 235 q 221 226 221 229 q 229 191 221 217 q 257 138 238 165 q 309 90 276 111 q 390 68 342 68 q 423 72 406 68 q 460 79 440 75 q 479 86 469 82 q 497 91 488 89 q 518 93 507 93 q 545 85 536 93 q 554 54 554 76 q 542 13 554 33 q 507 -23 531 -7 q 449 -49 483 -39 q 368 -58 414 -58 q 281 -48 319 -58 q 213 -20 242 -37 q 162 19 183 -3 q 125 64 140 40 q 76 188 89 118 l 74 190 q 67 194 69 194 q 49 191 60 194 q 24 183 38 188 q -2 176 11 179 q -24 172 -15 172 q -47 177 -39 172 q -57 189 -54 182 q -61 207 -61 196 q -58 231 -61 214 q -44 267 -56 247 q -8 304 -32 286 q 58 333 15 322 q 64 335 61 333 q 69 346 69 338 q 78 403 69 367 q 103 483 86 440 q 148 570 121 526 q 215 650 175 614 q 306 709 254 686 q 422 732 357 732 q 451 731 432 732 q 487 723 469 729 q 517 703 504 717 q 531 668 531 690 q 501 613 531 625 q 418 600 471 600 q 326 576 365 600 q 263 517 288 551 q 224 442 238 482 q 211 372 211 403 q 213 368 211 369 q 221 365 215 365 q 374 385 292 376 q 535 394 457 394 q 560 394 547 394 q 585 391 574 393 q 605 385 597 389 q 613 372 613 381 z "},"Ñ":{"ha":668,"x_min":44,"x_max":685,"o":"m 528 783 q 503 727 528 747 q 451 697 479 707 q 375 683 417 685 q 285 704 318 686 q 253 763 253 722 q 268 815 253 799 q 315 831 283 831 q 340 825 329 831 q 362 813 351 819 q 385 802 372 807 q 417 797 399 797 q 468 808 440 797 q 478 811 472 810 q 487 814 482 813 q 499 815 492 815 q 515 810 510 815 q 524 799 521 806 q 528 783 528 792 m 685 688 q 681 662 685 676 q 667 628 678 647 q 613 490 636 575 q 576 302 593 417 q 560 19 560 188 q 549 -27 560 -11 q 525 -50 538 -43 q 490 -60 510 -58 q 431 -33 460 -60 q 376 37 401 -6 q 327 131 350 79 q 285 234 304 183 q 253 328 267 285 q 229 399 239 372 q 221 413 224 413 q 216 409 218 413 q 211 403 214 406 q 207 394 208 399 q 184 293 190 342 q 178 201 178 244 q 181 124 178 153 q 189 78 185 96 q 197 47 193 60 q 200 17 200 33 q 178 -30 200 -18 q 138 -42 157 -42 q 85 -17 104 -42 q 58 43 67 8 q 47 115 49 78 q 44 175 44 151 q 47 226 44 188 q 57 317 50 265 q 77 425 64 368 q 112 529 90 482 q 164 608 133 576 q 238 639 194 639 q 265 631 253 639 q 287 606 276 624 q 308 556 297 588 q 331 478 318 525 q 371 357 350 410 q 407 274 388 311 q 442 236 426 236 q 453 245 449 236 q 458 292 457 254 q 460 340 458 303 q 467 428 461 378 q 483 532 472 478 q 513 632 493 586 q 561 708 532 678 q 633 738 590 738 q 669 729 653 738 q 685 688 685 721 z "},"Ö":{"ha":660,"x_min":19,"x_max":640,"o":"m 493 863 q 478 817 493 839 q 432 794 464 794 q 400 804 414 794 q 386 838 386 814 q 396 871 389 856 q 415 894 403 883 q 449 906 426 906 q 482 892 471 906 q 493 863 493 879 m 292 869 q 277 824 292 846 q 231 801 263 801 q 199 811 213 801 q 185 844 185 821 q 194 878 188 863 q 213 901 201 890 q 247 913 225 913 q 281 899 269 913 q 292 869 292 886 m 640 407 q 635 349 640 389 q 617 259 631 308 q 581 156 604 210 q 519 59 557 103 q 427 -12 481 15 q 301 -40 374 -40 q 224 -23 267 -40 q 145 33 182 -6 q 83 135 108 72 q 58 288 58 197 q 68 385 58 340 q 89 465 78 431 q 110 519 100 499 q 119 542 119 539 q 115 547 119 543 q 111 550 113 549 q 83 542 101 550 q 50 533 65 533 q 29 540 39 533 q 19 568 19 546 q 41 628 19 596 q 103 687 63 660 q 199 732 143 714 q 326 750 256 750 q 445 728 389 750 q 545 664 501 707 q 615 556 589 621 q 640 407 640 492 m 503 376 q 481 490 499 440 q 460 532 472 511 q 431 569 449 553 q 390 594 414 585 q 338 604 367 604 q 290 599 308 604 q 260 586 271 593 q 242 569 247 579 q 214 507 226 542 q 194 438 203 478 q 186 353 186 399 q 194 283 186 326 q 219 197 201 239 q 267 124 238 154 q 340 93 297 93 q 391 108 363 93 q 444 157 419 124 q 486 244 469 190 q 503 376 503 299 z "},"Ü":{"ha":633,"x_min":57,"x_max":599,"o":"m 444 851 q 430 806 444 828 q 383 783 415 783 q 351 793 365 783 q 338 826 338 803 q 347 860 340 844 q 366 883 354 872 q 400 894 378 894 q 433 881 422 894 q 444 851 444 868 m 243 858 q 228 813 243 835 q 182 790 214 790 q 150 800 164 790 q 136 833 136 810 q 146 867 139 851 q 165 890 153 879 q 199 901 176 901 q 232 888 221 901 q 243 858 243 875 m 599 578 q 558 263 594 400 q 519 147 543 203 q 461 46 496 90 q 379 -26 426 1 q 271 -53 332 -53 q 200 -38 231 -53 q 147 0 169 -24 q 110 54 125 24 q 85 117 94 85 q 57 288 61 192 q 78 488 57 413 q 143 589 99 564 q 158 594 150 592 q 174 599 165 597 q 192 600 182 600 q 224 592 210 600 q 238 558 238 585 q 230 526 238 551 q 213 462 222 501 q 195 370 203 422 q 188 258 188 318 q 192 195 188 226 q 206 139 196 164 q 232 98 215 114 q 275 82 249 82 q 355 123 321 82 q 411 226 389 164 q 444 363 433 289 q 454 504 454 438 q 450 605 454 550 q 435 717 446 660 q 451 767 436 744 q 510 790 467 790 q 581 741 563 790 q 599 578 599 692 z "},"á":{"ha":464,"x_min":17,"x_max":446,"o":"m 389 651 q 385 639 389 644 q 379 631 382 633 q 371 624 375 626 q 320 595 343 613 q 277 561 297 578 q 238 532 257 544 q 200 518 219 519 q 185 525 188 517 q 183 532 182 529 q 199 588 183 557 q 235 644 214 618 q 277 688 256 671 q 310 706 299 706 q 331 703 318 706 q 357 694 344 700 q 379 677 369 688 q 389 651 389 667 m 446 -39 q 438 -65 446 -56 q 418 -78 429 -74 q 390 -83 406 -83 q 348 -69 365 -83 q 319 -36 331 -54 q 297 13 306 -15 q 292 19 296 19 q 286 17 289 19 l 283 14 q 240 -24 263 -10 q 197 -47 218 -39 q 160 -56 176 -54 q 132 -58 143 -58 q 68 -44 92 -58 q 33 -10 44 -29 q 19 27 22 8 q 17 54 17 46 q 26 108 17 82 q 53 156 36 133 q 90 199 69 179 q 133 235 111 218 q 251 303 185 272 q 260 307 256 304 q 268 319 268 313 q 243 340 268 335 q 189 346 218 346 q 165 345 176 346 q 144 343 153 344 q 125 342 133 342 q 101 345 110 340 q 88 357 92 350 q 82 372 83 364 q 81 383 81 379 q 83 397 81 388 q 97 416 86 406 q 130 434 108 426 q 189 442 151 442 q 250 436 214 442 q 319 417 286 431 q 374 383 351 404 q 397 332 397 363 q 378 290 397 310 q 329 251 358 269 q 266 214 300 233 q 203 174 232 194 q 154 127 174 153 q 135 71 135 101 q 140 53 135 65 q 164 40 144 40 q 195 49 178 40 q 228 70 213 57 q 254 100 243 83 q 265 135 265 117 q 264 138 264 136 l 264 146 q 269 168 264 156 q 283 191 274 181 q 306 208 293 201 q 333 215 318 215 q 349 211 342 215 q 357 193 357 207 q 369 118 361 154 q 389 57 376 88 q 421 10 401 26 q 433 -6 428 1 q 442 -21 438 -12 q 446 -39 446 -29 z "},"à":{"ha":464,"x_min":17,"x_max":446,"o":"m 283 532 q 278 519 283 521 q 267 518 272 518 q 242 524 257 518 q 206 549 226 529 q 161 583 182 568 q 125 609 143 597 q 96 624 107 621 q 86 631 90 626 q 78 651 78 639 q 80 662 78 653 q 90 681 82 671 q 113 698 97 690 q 157 706 129 706 q 195 685 174 706 q 237 636 217 664 q 270 579 257 608 q 283 532 283 550 m 446 -39 q 438 -65 446 -56 q 418 -78 429 -74 q 390 -83 406 -83 q 348 -69 365 -83 q 319 -36 331 -54 q 297 13 306 -15 q 292 19 296 19 q 286 17 289 19 l 283 14 q 240 -24 263 -10 q 197 -47 218 -39 q 160 -56 176 -54 q 132 -58 143 -58 q 68 -44 92 -58 q 33 -10 44 -29 q 19 27 22 8 q 17 54 17 46 q 26 108 17 82 q 53 156 36 133 q 90 199 69 179 q 133 235 111 218 q 251 303 185 272 q 260 307 256 304 q 268 319 268 313 q 243 340 268 335 q 189 346 218 346 q 165 345 176 346 q 144 343 153 344 q 125 342 133 342 q 101 345 110 340 q 88 357 92 350 q 82 372 83 364 q 81 383 81 379 q 83 397 81 388 q 97 416 86 406 q 130 434 108 426 q 189 442 151 442 q 250 436 214 442 q 319 417 286 431 q 374 383 351 404 q 397 332 397 363 q 378 290 397 310 q 329 251 358 269 q 266 214 300 233 q 203 174 232 194 q 154 127 174 153 q 135 71 135 101 q 140 53 135 65 q 164 40 144 40 q 195 49 178 40 q 228 70 213 57 q 254 100 243 83 q 265 135 265 117 q 264 138 264 136 l 264 146 q 269 168 264 156 q 283 191 274 181 q 306 208 293 201 q 333 215 318 215 q 349 211 342 215 q 357 193 357 207 q 369 118 361 154 q 389 57 376 88 q 421 10 401 26 q 433 -6 428 1 q 442 -21 438 -12 q 446 -39 446 -29 z "},"â":{"ha":464,"x_min":17,"x_max":446,"o":"m 382 532 q 376 519 382 521 q 364 518 371 518 q 339 524 354 518 q 300 549 324 531 q 279 565 290 557 q 258 581 269 572 q 235 597 246 589 q 167 546 196 572 q 106 518 138 519 q 96 519 99 517 q 90 525 93 522 q 88 532 88 529 q 103 588 88 557 q 142 644 119 618 q 185 688 164 671 q 219 706 207 706 l 250 706 q 290 685 267 706 q 333 636 313 664 q 368 579 354 608 q 382 532 382 550 m 446 -39 q 438 -65 446 -56 q 418 -78 429 -74 q 390 -83 406 -83 q 348 -69 365 -83 q 319 -36 331 -54 q 297 13 306 -15 q 292 19 296 19 q 286 17 289 19 l 283 14 q 240 -24 263 -10 q 197 -47 218 -39 q 160 -56 176 -54 q 132 -58 143 -58 q 68 -44 92 -58 q 33 -10 44 -29 q 19 27 22 8 q 17 54 17 46 q 26 108 17 82 q 53 156 36 133 q 90 199 69 179 q 133 235 111 218 q 251 303 185 272 q 260 307 256 304 q 268 319 268 313 q 243 340 268 335 q 189 346 218 346 q 165 345 176 346 q 144 343 153 344 q 125 342 133 342 q 101 345 110 340 q 88 357 92 350 q 82 372 83 364 q 81 383 81 379 q 83 397 81 388 q 97 416 86 406 q 130 434 108 426 q 189 442 151 442 q 250 436 214 442 q 319 417 286 431 q 374 383 351 404 q 397 332 397 363 q 378 290 397 310 q 329 251 358 269 q 266 214 300 233 q 203 174 232 194 q 154 127 174 153 q 135 71 135 101 q 140 53 135 65 q 164 40 144 40 q 195 49 178 40 q 228 70 213 57 q 254 100 243 83 q 265 135 265 117 q 264 138 264 136 l 264 146 q 269 168 264 156 q 283 191 274 181 q 306 208 293 201 q 333 215 318 215 q 349 211 342 215 q 357 193 357 207 q 369 118 361 154 q 389 57 376 88 q 421 10 401 26 q 433 -6 428 1 q 442 -21 438 -12 q 446 -39 446 -29 z "},"ä":{"ha":464,"x_min":17,"x_max":446,"o":"m 413 585 q 398 539 413 561 q 351 517 383 517 q 319 526 333 517 q 306 560 306 536 q 315 593 308 578 q 334 617 322 606 q 368 628 346 628 q 401 615 390 628 q 413 585 413 601 m 211 592 q 197 546 211 568 q 150 524 182 524 q 118 533 132 524 q 104 567 104 543 q 114 600 107 585 q 133 624 121 613 q 167 635 144 635 q 200 622 189 635 q 211 592 211 608 m 446 -39 q 438 -65 446 -56 q 418 -78 429 -74 q 390 -83 406 -83 q 348 -69 365 -83 q 319 -36 331 -54 q 297 13 306 -15 q 292 19 296 19 q 286 17 289 19 l 283 14 q 240 -24 263 -10 q 197 -47 218 -39 q 160 -56 176 -54 q 132 -58 143 -58 q 68 -44 92 -58 q 33 -10 44 -29 q 19 27 22 8 q 17 54 17 46 q 26 108 17 82 q 53 156 36 133 q 90 199 69 179 q 133 235 111 218 q 251 303 185 272 q 260 307 256 304 q 268 319 268 313 q 243 340 268 335 q 189 346 218 346 q 165 345 176 346 q 144 343 153 344 q 125 342 133 342 q 101 345 110 340 q 88 357 92 350 q 82 372 83 364 q 81 383 81 379 q 83 397 81 388 q 97 416 86 406 q 130 434 108 426 q 189 442 151 442 q 250 436 214 442 q 319 417 286 431 q 374 383 351 404 q 397 332 397 363 q 378 290 397 310 q 329 251 358 269 q 266 214 300 233 q 203 174 232 194 q 154 127 174 153 q 135 71 135 101 q 140 53 135 65 q 164 40 144 40 q 195 49 178 40 q 228 70 213 57 q 254 100 243 83 q 265 135 265 117 q 264 138 264 136 l 264 146 q 269 168 264 156 q 283 191 274 181 q 306 208 293 201 q 333 215 318 215 q 349 211 342 215 q 357 193 357 207 q 369 118 361 154 q 389 57 376 88 q 421 10 401 26 q 433 -6 428 1 q 442 -21 438 -12 q 446 -39 446 -29 z "},"ã":{"ha":464,"x_min":17,"x_max":446,"o":"m 388 617 q 363 560 388 581 q 311 531 339 540 q 235 517 276 518 q 145 538 178 519 q 113 596 113 556 q 128 648 113 632 q 175 664 143 664 q 200 658 189 664 q 222 647 211 653 q 245 635 232 640 q 276 631 258 631 q 328 642 300 631 q 338 644 332 643 q 347 647 342 646 q 358 649 351 649 q 375 644 369 649 q 383 632 381 639 q 388 617 388 625 m 446 -39 q 438 -65 446 -56 q 418 -78 429 -74 q 390 -83 406 -83 q 348 -69 365 -83 q 319 -36 331 -54 q 297 13 306 -15 q 292 19 296 19 q 286 17 289 19 l 283 14 q 240 -24 263 -10 q 197 -47 218 -39 q 160 -56 176 -54 q 132 -58 143 -58 q 68 -44 92 -58 q 33 -10 44 -29 q 19 27 22 8 q 17 54 17 46 q 26 108 17 82 q 53 156 36 133 q 90 199 69 179 q 133 235 111 218 q 251 303 185 272 q 260 307 256 304 q 268 319 268 313 q 243 340 268 335 q 189 346 218 346 q 165 345 176 346 q 144 343 153 344 q 125 342 133 342 q 101 345 110 340 q 88 357 92 350 q 82 372 83 364 q 81 383 81 379 q 83 397 81 388 q 97 416 86 406 q 130 434 108 426 q 189 442 151 442 q 250 436 214 442 q 319 417 286 431 q 374 383 351 404 q 397 332 397 363 q 378 290 397 310 q 329 251 358 269 q 266 214 300 233 q 203 174 232 194 q 154 127 174 153 q 135 71 135 101 q 140 53 135 65 q 164 40 144 40 q 195 49 178 40 q 228 70 213 57 q 254 100 243 83 q 265 135 265 117 q 264 138 264 136 l 264 146 q 269 168 264 156 q 283 191 274 181 q 306 208 293 201 q 333 215 318 215 q 349 211 342 215 q 357 193 357 207 q 369 118 361 154 q 389 57 376 88 q 421 10 401 26 q 433 -6 428 1 q 442 -21 438 -12 q 446 -39 446 -29 z "},"å":{"ha":464,"x_min":17,"x_max":446,"o":"m 319 601 q 287 539 319 561 q 217 517 254 517 q 174 528 189 517 q 151 556 158 540 q 142 594 143 572 q 148 618 142 604 q 167 646 154 632 q 198 669 179 660 q 243 679 217 679 q 267 675 254 679 q 292 662 281 671 q 312 638 304 653 q 319 601 319 622 m 446 -39 q 438 -65 446 -56 q 418 -78 429 -74 q 390 -83 406 -83 q 348 -69 365 -83 q 319 -36 331 -54 q 297 13 306 -15 q 292 19 296 19 q 286 17 289 19 l 283 14 q 240 -24 263 -10 q 197 -47 218 -39 q 160 -56 176 -54 q 132 -58 143 -58 q 68 -44 92 -58 q 33 -10 44 -29 q 19 27 22 8 q 17 54 17 46 q 26 108 17 82 q 53 156 36 133 q 90 199 69 179 q 133 235 111 218 q 251 303 185 272 q 260 307 256 304 q 268 319 268 313 q 243 340 268 335 q 189 346 218 346 q 165 345 176 346 q 144 343 153 344 q 125 342 133 342 q 101 345 110 340 q 88 357 92 350 q 82 372 83 364 q 81 383 81 379 q 83 397 81 388 q 97 416 86 406 q 130 434 108 426 q 189 442 151 442 q 250 436 214 442 q 319 417 286 431 q 374 383 351 404 q 397 332 397 363 q 378 290 397 310 q 329 251 358 269 q 266 214 300 233 q 203 174 232 194 q 154 127 174 153 q 135 71 135 101 q 140 53 135 65 q 164 40 144 40 q 195 49 178 40 q 228 70 213 57 q 254 100 243 83 q 265 135 265 117 q 264 138 264 136 l 264 146 q 269 168 264 156 q 283 191 274 181 q 306 208 293 201 q 333 215 318 215 q 349 211 342 215 q 357 193 357 207 q 369 118 361 154 q 389 57 376 88 q 421 10 401 26 q 433 -6 428 1 q 442 -21 438 -12 q 446 -39 446 -29 m 268 601 q 253 628 268 624 q 235 632 239 632 q 207 622 218 632 q 196 593 196 613 q 201 576 196 588 q 231 565 206 565 q 254 574 240 565 q 268 601 268 582 z "},"ç":{"ha":426,"x_min":25,"x_max":383,"o":"m 383 132 q 363 63 383 94 q 312 8 342 31 q 249 -28 282 -15 q 192 -40 215 -40 q 185 -47 188 -42 q 183 -56 183 -51 q 189 -62 183 -62 q 210 -72 193 -62 q 226 -101 226 -81 q 210 -135 226 -121 q 165 -149 193 -149 q 148 -147 158 -149 q 136 -136 138 -146 q 149 -131 136 -131 q 184 -119 178 -131 q 190 -100 190 -107 q 184 -91 189 -94 q 174 -85 179 -87 q 158 -82 167 -82 q 154 -81 156 -82 q 151 -72 151 -78 q 157 -54 151 -65 q 164 -43 160 -49 q 163 -40 164 -42 q 86 -13 114 -36 q 45 40 58 10 q 28 99 32 69 q 25 144 25 128 q 43 245 25 189 q 95 351 61 301 q 178 434 129 400 q 290 468 228 468 q 313 466 297 468 q 344 455 328 464 q 372 427 360 446 q 383 374 383 408 q 380 344 383 367 q 366 299 376 322 q 335 256 356 275 q 281 238 314 238 q 268 244 274 239 q 256 269 256 251 q 260 288 256 281 q 270 303 265 296 q 280 319 275 310 q 285 343 285 328 q 281 362 285 351 q 261 372 276 372 q 219 356 242 372 q 178 312 197 340 q 147 244 160 283 q 135 161 135 206 q 137 124 135 143 q 146 90 139 106 q 164 64 153 74 q 194 54 175 54 q 215 57 203 54 q 244 69 228 60 q 276 97 260 79 q 308 146 293 115 q 319 160 314 154 q 333 170 325 165 q 351 175 340 175 q 375 161 367 175 q 383 132 383 147 z "},"é":{"ha":407,"x_min":-7,"x_max":413,"o":"m 413 651 q 409 639 413 644 q 403 631 406 633 q 394 624 399 626 q 344 595 367 613 q 301 561 321 578 q 262 532 281 544 q 224 518 243 519 q 208 525 211 517 q 207 532 206 529 q 222 588 207 557 q 258 644 238 618 q 301 688 279 671 q 333 706 322 706 q 355 703 342 706 q 381 694 368 700 q 403 677 393 688 q 413 651 413 667 m 392 346 q 374 262 392 303 q 326 189 356 221 q 257 138 296 157 q 175 118 218 118 q 169 115 172 118 q 168 113 168 114 q 183 63 171 81 q 207 33 194 44 q 240 17 222 21 q 284 -9 276 7 q 292 -36 292 -25 q 283 -63 292 -54 q 263 -76 274 -72 q 235 -83 250 -82 q 156 -62 188 -83 q 106 -14 125 -40 q 71 57 83 17 l 67 74 q 63 93 64 82 q 60 119 61 104 q 58 122 60 121 q 53 125 56 125 q 22 135 36 128 q 2 154 11 142 q -7 190 -7 167 q -1 210 -6 201 q 8 223 1 217 q 24 229 14 229 q 35 227 26 229 q 60 222 44 225 q 64 224 63 222 q 65 225 65 224 q 117 342 85 290 q 147 385 131 364 q 185 422 164 406 q 232 449 207 439 q 288 458 257 458 q 319 454 301 458 q 353 438 338 450 q 381 403 369 425 q 392 346 392 381 m 292 332 q 289 346 292 340 q 282 356 286 351 q 269 361 278 361 q 234 346 253 361 q 199 308 215 331 q 174 259 183 285 q 164 213 164 233 q 169 206 164 206 q 199 213 179 206 q 240 236 219 221 q 276 275 261 251 q 292 332 292 299 z "},"è":{"ha":399,"x_min":-7,"x_max":392,"o":"m 317 532 q 311 519 317 521 q 300 518 306 518 q 275 524 290 518 q 239 549 260 529 q 194 583 215 568 q 158 609 176 597 q 129 624 140 621 q 119 631 124 626 q 111 651 111 639 q 113 662 111 653 q 123 681 115 671 q 147 698 131 690 q 190 706 163 706 q 228 685 207 706 q 270 636 250 664 q 303 579 290 608 q 317 532 317 550 m 392 346 q 374 262 392 303 q 326 189 356 221 q 257 138 296 157 q 175 118 218 118 q 169 115 172 118 q 168 113 168 114 q 183 63 171 81 q 207 33 194 44 q 240 17 222 21 q 284 -9 276 7 q 292 -36 292 -25 q 283 -63 292 -54 q 263 -76 274 -72 q 235 -83 250 -82 q 156 -62 188 -83 q 106 -14 125 -40 q 71 57 83 17 l 67 74 q 63 93 64 82 q 60 119 61 104 q 58 122 60 121 q 53 125 56 125 q 22 135 36 128 q 2 154 11 142 q -7 190 -7 167 q -1 210 -6 201 q 8 223 1 217 q 24 229 14 229 q 35 227 26 229 q 60 222 44 225 q 64 224 63 222 q 65 225 65 224 q 117 342 85 290 q 147 385 131 364 q 185 422 164 406 q 232 449 207 439 q 288 458 257 458 q 319 454 301 458 q 353 438 338 450 q 381 403 369 425 q 392 346 392 381 m 292 332 q 289 346 292 340 q 282 356 286 351 q 269 361 278 361 q 234 346 253 361 q 199 308 215 331 q 174 259 183 285 q 164 213 164 233 q 169 206 164 206 q 199 213 179 206 q 240 236 219 221 q 276 275 261 251 q 292 332 292 299 z "},"ê":{"ha":399,"x_min":-7,"x_max":392,"o":"m 389 532 q 383 519 389 521 q 371 518 378 518 q 346 524 361 518 q 307 549 331 531 q 286 565 297 557 q 265 581 276 572 q 242 597 253 589 q 174 546 203 572 q 113 518 144 519 q 103 519 106 517 q 97 525 100 522 q 94 532 94 529 q 110 588 94 557 q 149 644 126 618 q 192 688 171 671 q 226 706 214 706 l 257 706 q 297 685 274 706 q 340 636 319 664 q 375 579 361 608 q 389 532 389 550 m 392 346 q 374 262 392 303 q 326 189 356 221 q 257 138 296 157 q 175 118 218 118 q 169 115 172 118 q 168 113 168 114 q 183 63 171 81 q 207 33 194 44 q 240 17 222 21 q 284 -9 276 7 q 292 -36 292 -25 q 283 -63 292 -54 q 263 -76 274 -72 q 235 -83 250 -82 q 156 -62 188 -83 q 106 -14 125 -40 q 71 57 83 17 l 67 74 q 63 93 64 82 q 60 119 61 104 q 58 122 60 121 q 53 125 56 125 q 22 135 36 128 q 2 154 11 142 q -7 190 -7 167 q -1 210 -6 201 q 8 223 1 217 q 24 229 14 229 q 35 227 26 229 q 60 222 44 225 q 64 224 63 222 q 65 225 65 224 q 117 342 85 290 q 147 385 131 364 q 185 422 164 406 q 232 449 207 439 q 288 458 257 458 q 319 454 301 458 q 353 438 338 450 q 381 403 369 425 q 392 346 392 381 m 292 332 q 289 346 292 340 q 282 356 286 351 q 269 361 278 361 q 234 346 253 361 q 199 308 215 331 q 174 259 183 285 q 164 213 164 233 q 169 206 164 206 q 199 213 179 206 q 240 236 219 221 q 276 275 261 251 q 292 332 292 299 z "},"ë":{"ha":399,"x_min":-7,"x_max":392,"o":"m 389 585 q 374 539 389 561 q 328 517 360 517 q 296 526 310 517 q 282 560 282 536 q 292 593 285 578 q 310 617 299 606 q 344 628 322 628 q 378 615 367 628 q 389 585 389 601 m 188 592 q 173 546 188 568 q 126 524 158 524 q 94 533 108 524 q 81 567 81 543 q 90 600 83 585 q 109 624 97 613 q 143 635 121 635 q 176 622 165 635 q 188 592 188 608 m 392 346 q 374 262 392 303 q 326 189 356 221 q 257 138 296 157 q 175 118 218 118 q 169 115 172 118 q 168 113 168 114 q 183 63 171 81 q 207 33 194 44 q 240 17 222 21 q 284 -9 276 7 q 292 -36 292 -25 q 283 -63 292 -54 q 263 -76 274 -72 q 235 -83 250 -82 q 156 -62 188 -83 q 106 -14 125 -40 q 71 57 83 17 l 67 74 q 63 93 64 82 q 60 119 61 104 q 58 122 60 121 q 53 125 56 125 q 22 135 36 128 q 2 154 11 142 q -7 190 -7 167 q -1 210 -6 201 q 8 223 1 217 q 24 229 14 229 q 35 227 26 229 q 60 222 44 225 q 64 224 63 222 q 65 225 65 224 q 117 342 85 290 q 147 385 131 364 q 185 422 164 406 q 232 449 207 439 q 288 458 257 458 q 319 454 301 458 q 353 438 338 450 q 381 403 369 425 q 392 346 392 381 m 292 332 q 289 346 292 340 q 282 356 286 351 q 269 361 278 361 q 234 346 253 361 q 199 308 215 331 q 174 259 183 285 q 164 213 164 233 q 169 206 164 206 q 199 213 179 206 q 240 236 219 221 q 276 275 261 251 q 292 332 292 299 z "},"í":{"ha":240,"x_min":51,"x_max":265,"o":"m 265 651 q 262 639 265 644 q 256 631 258 633 q 247 624 251 626 q 197 595 219 613 q 153 561 174 578 q 115 532 133 544 q 76 518 96 519 q 61 525 64 517 q 60 532 58 529 q 75 588 60 557 q 111 644 90 618 q 153 688 132 671 q 186 706 175 706 q 208 703 194 706 q 233 694 221 700 q 256 677 246 688 q 265 651 265 667 m 179 382 q 174 353 178 375 q 165 302 169 332 q 158 235 161 272 q 154 157 154 197 q 157 99 154 126 q 163 53 160 72 q 171 8 167 28 q 152 -17 168 -11 q 125 -24 136 -24 q 101 -18 113 -24 q 93 -12 96 -15 q 60 65 69 15 q 51 172 51 115 q 55 257 51 215 q 63 332 58 299 q 74 406 68 371 q 79 417 74 411 q 93 424 83 421 q 119 428 103 428 q 137 426 126 428 q 156 419 147 424 q 172 405 165 414 q 179 382 179 396 z "},"ì":{"ha":240,"x_min":18,"x_max":224,"o":"m 224 532 q 218 519 224 521 q 207 518 213 518 q 182 524 197 518 q 146 549 167 529 q 101 583 122 568 q 65 609 83 597 q 36 624 47 621 q 26 631 31 626 q 18 651 18 639 q 20 662 18 653 q 30 681 22 671 q 53 698 38 690 q 97 706 69 706 q 135 685 114 706 q 177 636 157 664 q 210 579 197 608 q 224 532 224 550 m 179 382 q 174 353 178 375 q 165 302 169 332 q 158 235 161 272 q 154 157 154 197 q 157 99 154 126 q 163 53 160 72 q 171 8 167 28 q 152 -17 168 -11 q 125 -24 136 -24 q 101 -18 113 -24 q 93 -12 96 -15 q 60 65 69 15 q 51 172 51 115 q 55 257 51 215 q 63 332 58 299 q 74 406 68 371 q 79 417 74 411 q 93 424 83 421 q 119 428 103 428 q 137 426 126 428 q 156 419 147 424 q 172 405 165 414 q 179 382 179 396 z "},"î":{"ha":240,"x_min":-26,"x_max":268,"o":"m 268 532 q 263 519 268 521 q 250 518 257 518 q 225 524 240 518 q 186 549 210 531 q 165 565 176 557 q 144 581 156 572 q 121 597 132 589 q 53 546 82 572 q -8 518 24 519 q -18 519 -15 517 q -24 525 -21 522 q -26 532 -26 529 q -10 588 -26 557 q 28 644 6 618 q 72 688 50 671 q 106 706 93 706 l 136 706 q 176 685 153 706 q 219 636 199 664 q 254 579 240 608 q 268 532 268 550 m 179 382 q 174 353 178 375 q 165 302 169 332 q 158 235 161 272 q 154 157 154 197 q 157 99 154 126 q 163 53 160 72 q 171 8 167 28 q 152 -17 168 -11 q 125 -24 136 -24 q 101 -18 113 -24 q 93 -12 96 -15 q 60 65 69 15 q 51 172 51 115 q 55 257 51 215 q 63 332 58 299 q 74 406 68 371 q 79 417 74 411 q 93 424 83 421 q 119 428 103 428 q 137 426 126 428 q 156 419 147 424 q 172 405 165 414 q 179 382 179 396 z "},"ï":{"ha":240,"x_min":-33,"x_max":275,"o":"m 275 585 q 260 539 275 561 q 214 517 246 517 q 182 526 196 517 q 168 560 168 536 q 178 593 171 578 q 197 617 185 606 q 231 628 208 628 q 264 615 253 628 q 275 585 275 601 m 74 592 q 59 546 74 568 q 13 524 44 524 q -19 533 -6 524 q -33 567 -33 543 q -24 600 -31 585 q -5 624 -17 613 q 29 635 7 635 q 63 622 51 635 q 74 592 74 608 m 179 382 q 174 353 178 375 q 165 302 169 332 q 158 235 161 272 q 154 157 154 197 q 157 99 154 126 q 163 53 160 72 q 171 8 167 28 q 152 -17 168 -11 q 125 -24 136 -24 q 101 -18 113 -24 q 93 -12 96 -15 q 60 65 69 15 q 51 172 51 115 q 55 257 51 215 q 63 332 58 299 q 74 406 68 371 q 79 417 74 411 q 93 424 83 421 q 119 428 103 428 q 137 426 126 428 q 156 419 147 424 q 172 405 165 414 q 179 382 179 396 z "},"ñ":{"ha":504,"x_min":49,"x_max":490,"o":"m 465 585 q 453 547 465 564 q 411 529 442 529 q 376 525 392 529 q 350 515 361 521 q 328 501 338 510 q 297 486 310 490 q 274 482 283 482 q 244 494 250 482 q 239 519 239 506 q 250 549 239 531 q 283 584 261 567 q 335 614 304 601 q 406 626 365 626 q 419 625 410 626 q 440 619 429 624 q 458 607 450 615 q 465 585 465 599 m 490 32 q 480 -2 490 10 q 457 -19 469 -14 q 425 -26 442 -25 q 371 -2 390 -26 q 342 58 351 22 q 331 131 333 93 q 329 199 329 169 l 329 225 q 318 239 329 239 q 283 218 300 239 q 248 166 265 197 q 215 99 231 135 q 184 31 199 63 q 156 -24 169 -1 q 133 -49 143 -46 q 121 -51 126 -50 q 110 -53 115 -53 q 77 -36 89 -53 q 59 8 65 -19 q 51 69 53 35 q 49 140 49 104 q 52 210 49 169 q 61 292 56 251 q 74 366 67 332 q 92 417 82 400 q 108 440 99 429 q 130 456 117 449 q 163 464 143 464 q 172 463 165 464 q 186 459 179 463 q 199 449 193 456 q 204 429 204 442 q 193 388 204 411 q 175 326 182 357 q 163 269 168 300 q 158 211 158 238 q 164 193 158 193 q 168 196 167 193 q 193 235 174 204 q 241 301 213 267 q 303 363 269 336 q 372 390 336 390 q 422 363 413 390 q 432 272 432 335 q 431 243 432 258 q 429 208 429 228 q 430 172 429 194 q 435 125 431 149 q 449 81 440 101 q 474 53 458 61 l 482 47 q 490 32 490 39 z "},"ó":{"ha":435,"x_min":33,"x_max":406,"o":"m 361 651 q 358 639 361 644 q 351 631 354 633 q 343 624 347 626 q 292 595 315 613 q 249 561 269 578 q 210 532 229 544 q 172 518 192 519 q 157 525 160 517 q 156 532 154 529 q 171 588 156 557 q 207 644 186 618 q 249 688 228 671 q 282 706 271 706 q 303 703 290 706 q 329 694 317 700 q 351 677 342 688 q 361 651 361 667 m 406 260 q 386 141 406 192 q 335 56 367 90 q 263 5 303 22 q 183 -12 224 -12 q 100 14 129 -12 q 57 72 71 40 q 39 158 42 110 q 46 219 39 190 q 63 271 53 247 q 88 321 74 297 q 83 326 88 322 q 81 328 82 328 q 46 337 58 328 q 33 360 33 346 q 48 396 33 378 q 87 427 63 414 q 141 449 111 440 q 200 457 171 457 q 260 449 225 457 q 327 421 294 442 q 383 361 360 400 q 406 260 406 322 m 293 231 q 283 292 292 265 q 262 333 276 315 q 219 351 247 351 q 199 342 211 351 q 177 313 188 332 q 159 264 167 293 q 151 197 151 235 q 152 167 151 186 q 159 129 153 149 q 178 96 165 110 q 217 82 192 82 q 260 105 244 82 q 282 156 275 128 q 293 231 290 189 z "},"ò":{"ha":435,"x_min":33,"x_max":406,"o":"m 290 532 q 285 519 290 521 q 274 518 279 518 q 249 524 264 518 q 213 549 233 529 q 168 583 189 568 q 132 609 150 597 q 103 624 114 621 q 93 631 97 626 q 85 651 85 639 q 87 662 85 653 q 97 681 89 671 q 120 698 104 690 q 164 706 136 706 q 202 685 181 706 q 244 636 224 664 q 277 579 264 608 q 290 532 290 550 m 406 260 q 386 141 406 192 q 335 56 367 90 q 263 5 303 22 q 183 -12 224 -12 q 100 14 129 -12 q 57 72 71 40 q 39 158 42 110 q 46 219 39 190 q 63 271 53 247 q 88 321 74 297 q 83 326 88 322 q 81 328 82 328 q 46 337 58 328 q 33 360 33 346 q 48 396 33 378 q 87 427 63 414 q 141 449 111 440 q 200 457 171 457 q 260 449 225 457 q 327 421 294 442 q 383 361 360 400 q 406 260 406 322 m 293 231 q 283 292 292 265 q 262 333 276 315 q 219 351 247 351 q 199 342 211 351 q 177 313 188 332 q 159 264 167 293 q 151 197 151 235 q 152 167 151 186 q 159 129 153 149 q 178 96 165 110 q 217 82 192 82 q 260 105 244 82 q 282 156 275 128 q 293 231 290 189 z "},"ô":{"ha":435,"x_min":33,"x_max":406,"o":"m 365 532 q 360 519 365 521 q 347 518 354 518 q 322 524 338 518 q 283 549 307 531 q 263 565 274 557 q 241 581 253 572 q 218 597 229 589 q 150 546 179 572 q 89 518 121 519 q 79 519 82 517 q 74 525 76 522 q 71 532 71 529 q 87 588 71 557 q 125 644 103 618 q 169 688 147 671 q 203 706 190 706 l 233 706 q 273 685 250 706 q 317 636 296 664 q 351 579 338 608 q 365 532 365 550 m 406 260 q 386 141 406 192 q 335 56 367 90 q 263 5 303 22 q 183 -12 224 -12 q 100 14 129 -12 q 57 72 71 40 q 39 158 42 110 q 46 219 39 190 q 63 271 53 247 q 88 321 74 297 q 83 326 88 322 q 81 328 82 328 q 46 337 58 328 q 33 360 33 346 q 48 396 33 378 q 87 427 63 414 q 141 449 111 440 q 200 457 171 457 q 260 449 225 457 q 327 421 294 442 q 383 361 360 400 q 406 260 406 322 m 293 231 q 283 292 292 265 q 262 333 276 315 q 219 351 247 351 q 199 342 211 351 q 177 313 188 332 q 159 264 167 293 q 151 197 151 235 q 152 167 151 186 q 159 129 153 149 q 178 96 165 110 q 217 82 192 82 q 260 105 244 82 q 282 156 275 128 q 293 231 290 189 z "},"ö":{"ha":435,"x_min":33,"x_max":406,"o":"m 372 585 q 358 539 372 561 q 311 517 343 517 q 279 526 293 517 q 265 560 265 536 q 275 593 268 578 q 294 617 282 606 q 328 628 306 628 q 361 615 350 628 q 372 585 372 601 m 171 592 q 156 546 171 568 q 110 524 142 524 q 78 533 92 524 q 64 567 64 543 q 74 600 67 585 q 92 624 81 613 q 126 635 104 635 q 160 622 149 635 q 171 592 171 608 m 406 260 q 386 141 406 192 q 335 56 367 90 q 263 5 303 22 q 183 -12 224 -12 q 100 14 129 -12 q 57 72 71 40 q 39 158 42 110 q 46 219 39 190 q 63 271 53 247 q 88 321 74 297 q 83 326 88 322 q 81 328 82 328 q 46 337 58 328 q 33 360 33 346 q 48 396 33 378 q 87 427 63 414 q 141 449 111 440 q 200 457 171 457 q 260 449 225 457 q 327 421 294 442 q 383 361 360 400 q 406 260 406 322 m 293 231 q 283 292 292 265 q 262 333 276 315 q 219 351 247 351 q 199 342 211 351 q 177 313 188 332 q 159 264 167 293 q 151 197 151 235 q 152 167 151 186 q 159 129 153 149 q 178 96 165 110 q 217 82 192 82 q 260 105 244 82 q 282 156 275 128 q 293 231 290 189 z "},"õ":{"ha":435,"x_min":33,"x_max":406,"o":"m 333 632 q 309 576 333 596 q 257 546 285 556 q 181 532 222 533 q 91 553 124 535 q 58 611 58 571 q 74 663 58 647 q 121 679 89 679 q 146 674 135 679 q 167 662 157 668 q 191 651 178 656 q 222 646 204 646 q 274 657 246 646 q 283 660 278 658 q 292 663 288 661 q 304 664 297 664 q 321 659 315 664 q 329 647 326 654 q 333 632 333 640 m 406 260 q 386 141 406 192 q 335 56 367 90 q 263 5 303 22 q 183 -12 224 -12 q 100 14 129 -12 q 57 72 71 40 q 39 158 42 110 q 46 219 39 190 q 63 271 53 247 q 88 321 74 297 q 83 326 88 322 q 81 328 82 328 q 46 337 58 328 q 33 360 33 346 q 48 396 33 378 q 87 427 63 414 q 141 449 111 440 q 200 457 171 457 q 260 449 225 457 q 327 421 294 442 q 383 361 360 400 q 406 260 406 322 m 293 231 q 283 292 292 265 q 262 333 276 315 q 219 351 247 351 q 199 342 211 351 q 177 313 188 332 q 159 264 167 293 q 151 197 151 235 q 152 167 151 186 q 159 129 153 149 q 178 96 165 110 q 217 82 192 82 q 260 105 244 82 q 282 156 275 128 q 293 231 290 189 z "},"ú":{"ha":483,"x_min":39,"x_max":464,"o":"m 393 617 q 390 604 393 610 q 383 596 386 599 q 375 589 379 592 q 324 560 347 578 q 281 526 301 543 q 242 497 261 510 q 204 483 224 485 q 189 490 192 482 q 188 497 186 494 q 203 553 188 522 q 239 610 218 583 q 281 653 260 636 q 314 671 303 671 q 335 668 322 671 q 361 659 349 665 q 383 642 374 653 q 393 617 393 632 m 464 26 q 456 -3 464 7 q 438 -18 449 -14 q 410 -24 425 -24 q 370 -11 386 -24 q 344 17 354 1 q 331 48 335 33 q 326 65 326 63 q 324 69 326 69 q 318 67 321 69 q 315 65 317 65 q 267 1 292 24 q 220 -33 242 -22 q 184 -45 199 -43 q 167 -47 169 -47 q 108 -24 132 -47 q 68 35 83 0 q 46 113 53 71 q 39 192 39 154 q 45 270 39 226 q 65 351 51 314 q 99 415 78 389 q 150 440 119 440 q 163 440 156 440 q 178 434 171 439 q 190 419 185 429 q 194 392 194 410 q 191 360 194 378 q 176 315 188 342 q 160 261 167 289 q 149 208 153 238 q 144 153 144 179 q 156 98 144 121 q 194 75 167 75 q 236 97 217 79 q 271 146 253 113 q 300 239 289 179 q 303 260 301 249 q 306 282 304 269 q 307 307 307 294 q 313 324 307 314 q 327 344 318 335 q 349 361 336 354 q 379 368 363 368 q 406 361 394 368 q 418 331 418 354 q 413 289 418 318 q 408 206 408 260 q 415 133 408 168 q 436 76 422 97 q 453 55 442 68 q 464 26 464 42 z "},"ù":{"ha":483,"x_min":39,"x_max":464,"o":"m 325 489 q 319 476 325 478 q 308 475 314 475 q 283 481 299 475 q 247 506 268 486 q 203 540 224 525 q 167 566 185 554 q 138 581 149 578 q 128 588 132 583 q 119 608 119 596 q 122 619 119 610 q 131 638 124 628 q 155 655 139 647 q 199 663 171 663 q 237 642 215 663 q 278 593 258 621 q 312 536 299 565 q 325 489 325 507 m 464 26 q 456 -3 464 7 q 438 -18 449 -14 q 410 -24 425 -24 q 370 -11 386 -24 q 344 17 354 1 q 331 48 335 33 q 326 65 326 63 q 324 69 326 69 q 318 67 321 69 q 315 65 317 65 q 267 1 292 24 q 220 -33 242 -22 q 184 -45 199 -43 q 167 -47 169 -47 q 108 -24 132 -47 q 68 35 83 0 q 46 113 53 71 q 39 192 39 154 q 45 270 39 226 q 65 351 51 314 q 99 415 78 389 q 150 440 119 440 q 163 440 156 440 q 178 434 171 439 q 190 419 185 429 q 194 392 194 410 q 191 360 194 378 q 176 315 188 342 q 160 261 167 289 q 149 208 153 238 q 144 153 144 179 q 156 98 144 121 q 194 75 167 75 q 236 97 217 79 q 271 146 253 113 q 300 239 289 179 q 303 260 301 249 q 306 282 304 269 q 307 307 307 294 q 313 324 307 314 q 327 344 318 335 q 349 361 336 354 q 379 368 363 368 q 406 361 394 368 q 418 331 418 354 q 413 289 418 318 q 408 206 408 260 q 415 133 408 168 q 436 76 422 97 q 453 55 442 68 q 464 26 464 42 z "},"û":{"ha":483,"x_min":39,"x_max":464,"o":"m 389 532 q 383 519 389 521 q 371 518 378 518 q 346 524 361 518 q 307 549 331 531 q 286 565 297 557 q 265 581 276 572 q 242 597 253 589 q 174 546 203 572 q 113 518 144 519 q 103 519 106 517 q 97 525 100 522 q 94 532 94 529 q 110 588 94 557 q 149 644 126 618 q 192 688 171 671 q 226 706 214 706 l 257 706 q 297 685 274 706 q 340 636 319 664 q 375 579 361 608 q 389 532 389 550 m 464 26 q 456 -3 464 7 q 438 -18 449 -14 q 410 -24 425 -24 q 370 -11 386 -24 q 344 17 354 1 q 331 48 335 33 q 326 65 326 63 q 324 69 326 69 q 318 67 321 69 q 315 65 317 65 q 267 1 292 24 q 220 -33 242 -22 q 184 -45 199 -43 q 167 -47 169 -47 q 108 -24 132 -47 q 68 35 83 0 q 46 113 53 71 q 39 192 39 154 q 45 270 39 226 q 65 351 51 314 q 99 415 78 389 q 150 440 119 440 q 163 440 156 440 q 178 434 171 439 q 190 419 185 429 q 194 392 194 410 q 191 360 194 378 q 176 315 188 342 q 160 261 167 289 q 149 208 153 238 q 144 153 144 179 q 156 98 144 121 q 194 75 167 75 q 236 97 217 79 q 271 146 253 113 q 300 239 289 179 q 303 260 301 249 q 306 282 304 269 q 307 307 307 294 q 313 324 307 314 q 327 344 318 335 q 349 361 336 354 q 379 368 363 368 q 406 361 394 368 q 418 331 418 354 q 413 289 418 318 q 408 206 408 260 q 415 133 408 168 q 436 76 422 97 q 453 55 442 68 q 464 26 464 42 z "},"ü":{"ha":483,"x_min":39,"x_max":464,"o":"m 396 585 q 381 539 396 561 q 335 517 367 517 q 303 526 317 517 q 289 560 289 536 q 299 593 292 578 q 317 617 306 606 q 351 628 329 628 q 385 615 374 628 q 396 585 396 601 m 194 592 q 180 546 194 568 q 133 524 165 524 q 101 533 115 524 q 88 567 88 543 q 97 600 90 585 q 116 624 104 613 q 150 635 128 635 q 183 622 172 635 q 194 592 194 608 m 464 26 q 456 -3 464 7 q 438 -18 449 -14 q 410 -24 425 -24 q 370 -11 386 -24 q 344 17 354 1 q 331 48 335 33 q 326 65 326 63 q 324 69 326 69 q 318 67 321 69 q 315 65 317 65 q 267 1 292 24 q 220 -33 242 -22 q 184 -45 199 -43 q 167 -47 169 -47 q 108 -24 132 -47 q 68 35 83 0 q 46 113 53 71 q 39 192 39 154 q 45 270 39 226 q 65 351 51 314 q 99 415 78 389 q 150 440 119 440 q 163 440 156 440 q 178 434 171 439 q 190 419 185 429 q 194 392 194 410 q 191 360 194 378 q 176 315 188 342 q 160 261 167 289 q 149 208 153 238 q 144 153 144 179 q 156 98 144 121 q 194 75 167 75 q 236 97 217 79 q 271 146 253 113 q 300 239 289 179 q 303 260 301 249 q 306 282 304 269 q 307 307 307 294 q 313 324 307 314 q 327 344 318 335 q 349 361 336 354 q 379 368 363 368 q 406 361 394 368 q 418 331 418 354 q 413 289 418 318 q 408 206 408 260 q 415 133 408 168 q 436 76 422 97 q 453 55 442 68 q 464 26 464 42 z "},"†":{"ha":694,"x_min":74,"x_max":593,"o":"m 593 414 q 569 387 593 397 q 510 371 544 376 q 438 364 475 365 q 374 363 400 363 q 365 357 368 363 q 364 353 364 354 q 360 324 361 338 q 358 303 360 311 q 353 228 356 269 q 348 145 350 188 q 345 62 346 103 q 344 -12 344 21 q 336 -37 344 -26 q 306 -49 328 -49 q 285 -35 293 -49 q 274 -1 278 -21 q 269 38 269 18 q 268 69 268 57 q 271 157 268 111 q 275 247 272 197 q 282 349 278 296 q 275 354 282 354 q 229 351 257 354 q 176 344 201 347 q 130 337 150 340 q 107 333 110 333 q 85 339 96 333 q 74 360 74 344 q 98 396 74 382 q 156 417 122 410 q 226 428 190 425 q 288 435 263 432 q 293 438 290 435 q 296 442 294 439 q 300 494 299 469 q 308 540 301 518 q 334 578 317 571 q 358 586 351 586 q 374 567 369 586 q 379 518 379 547 q 375 447 379 485 q 376 443 375 444 q 382 440 379 440 q 494 444 438 444 q 526 444 510 444 q 561 443 542 443 q 580 439 574 443 q 589 430 586 435 q 592 420 592 425 q 593 414 593 415 z "},"°":{"ha":443,"x_min":83,"x_max":350,"o":"m 350 603 q 336 550 350 574 q 301 510 322 526 q 251 484 279 493 q 196 475 224 475 q 131 493 153 475 q 97 533 108 511 q 83 592 85 558 q 92 628 83 606 q 120 670 101 650 q 167 705 139 690 q 236 719 196 719 q 273 713 253 719 q 310 693 293 707 q 339 657 328 679 q 350 603 350 635 m 274 603 q 267 629 274 619 q 251 643 260 639 q 235 648 243 647 q 224 649 226 649 q 181 633 197 649 q 164 590 164 618 q 165 579 164 586 q 172 565 167 572 q 187 553 176 558 q 217 549 197 549 q 253 562 232 549 q 274 603 274 575 z "},"¢":{"ha":469,"x_min":56,"x_max":414,"o":"m 414 132 q 399 77 414 104 q 365 28 385 50 q 322 -8 344 7 q 282 -26 299 -22 q 278 -37 278 -28 l 278 -44 q 278 -67 278 -56 q 279 -86 278 -78 q 282 -106 281 -96 q 276 -121 282 -112 q 254 -129 269 -129 q 229 -107 236 -131 q 221 -64 222 -83 q 217 -44 219 -47 q 211 -42 215 -42 q 131 -22 161 -42 q 83 26 100 -1 q 61 84 67 54 q 56 133 56 114 q 59 186 56 147 q 81 272 63 225 q 135 366 99 318 q 238 447 171 414 q 240 449 239 447 q 243 456 240 449 l 246 535 q 250 550 246 544 q 258 558 254 556 q 271 561 264 561 q 290 553 283 561 q 301 533 297 546 q 305 505 304 521 q 306 472 306 489 q 307 467 306 467 q 310 467 308 465 l 325 468 q 376 453 357 468 q 403 418 394 438 q 414 369 413 396 q 410 342 414 363 q 396 297 407 321 q 365 256 385 274 q 311 238 344 238 q 293 248 300 238 q 286 268 286 258 q 290 289 286 281 q 300 305 294 297 q 310 322 306 313 q 314 343 314 331 q 308 363 314 354 q 292 372 303 372 q 253 359 275 372 q 212 320 232 346 q 178 255 192 294 q 164 163 164 215 q 166 126 164 144 q 175 91 168 107 q 193 65 182 75 q 224 54 204 54 q 247 58 233 54 q 277 73 261 63 q 309 101 293 83 q 338 146 325 118 q 351 164 339 153 q 382 175 363 175 q 407 160 400 175 q 414 132 414 144 z "},"£":{"ha":610,"x_min":22,"x_max":576,"o":"m 576 71 q 575 60 576 69 q 567 38 574 50 q 547 17 560 26 q 511 7 533 7 q 476 11 492 7 q 439 15 460 15 q 344 1 393 15 q 253 -29 294 -12 q 158 -72 204 -49 q 132 -83 143 -81 q 111 -86 121 -86 q 71 -69 79 -86 q 63 -35 63 -51 q 69 -7 63 -19 q 83 15 75 6 q 104 36 92 26 q 117 44 108 39 q 135 57 125 50 q 157 72 144 64 q 163 80 163 75 q 164 88 164 85 l 164 89 q 162 158 164 125 q 160 224 160 192 q 160 277 160 251 q 163 326 161 303 q 157 331 163 331 l 46 311 q 30 316 38 311 q 22 336 22 321 q 35 360 22 350 q 67 378 49 371 q 105 389 85 385 q 139 396 125 393 q 146 397 142 396 q 165 401 151 399 q 169 404 169 401 l 169 407 q 183 505 175 463 q 197 578 190 547 q 214 639 206 613 q 233 681 219 663 q 264 709 244 696 q 315 722 283 722 q 349 715 331 722 q 368 679 368 708 q 357 631 368 658 q 339 572 349 604 q 321 506 331 544 q 304 422 311 468 q 308 417 304 417 q 343 417 322 417 q 388 418 364 418 q 450 413 432 417 q 468 393 468 410 q 449 367 468 375 q 402 354 429 358 q 347 349 375 350 q 297 347 318 349 q 294 346 296 346 q 292 342 292 343 q 286 278 289 310 q 283 213 283 246 q 285 164 283 189 q 289 115 286 139 q 290 113 289 114 q 297 110 293 110 q 315 115 299 110 q 356 125 331 119 q 410 135 381 131 q 467 140 439 140 q 492 139 474 140 q 528 131 510 138 q 562 110 547 125 q 576 71 576 96 z "},"§":{"ha":669,"x_min":47,"x_max":622,"o":"m 622 385 q 619 351 622 372 q 601 301 615 329 q 558 237 586 272 q 481 163 529 201 q 478 161 479 163 q 476 156 476 160 q 482 149 476 153 q 514 132 499 143 q 535 108 525 122 q 546 71 546 93 q 513 -12 546 31 q 428 -92 479 -56 q 318 -153 378 -129 q 207 -176 258 -176 q 161 -162 175 -176 q 144 -132 147 -149 q 158 -90 147 -100 q 193 -75 168 -79 q 349 -25 293 -58 q 404 44 404 8 q 373 79 404 64 q 303 105 342 94 q 233 121 265 115 q 196 128 200 126 q 113 153 143 138 q 69 183 83 168 q 51 211 54 199 q 47 228 47 224 q 74 303 47 268 q 132 367 100 339 q 217 425 168 399 q 224 432 221 428 q 226 436 225 435 q 220 444 226 439 q 207 454 214 450 q 189 465 199 460 q 148 501 157 482 q 139 533 139 519 q 159 585 139 560 q 210 635 179 611 q 280 678 242 658 q 355 711 318 697 q 422 733 392 725 q 468 742 453 742 q 519 730 493 742 q 554 681 546 718 q 548 656 554 668 q 511 644 542 644 q 440 635 479 644 q 365 613 400 626 q 308 581 331 599 q 285 544 285 563 q 310 513 285 524 q 372 494 335 501 q 453 482 410 488 q 535 465 497 476 q 597 435 572 454 q 622 385 622 417 m 488 331 q 465 367 488 353 q 415 388 443 381 q 344 400 383 396 q 268 357 301 379 q 217 313 240 338 q 193 261 193 289 q 199 241 193 251 q 226 228 206 231 q 275 217 251 222 q 316 206 294 211 q 350 196 338 200 q 354 194 351 194 l 363 194 q 383 201 375 194 q 435 242 411 221 q 471 283 454 260 q 488 331 488 306 z "},"•":{"ha":443,"x_min":104,"x_max":371,"o":"m 371 229 q 357 176 371 200 q 322 136 343 153 q 272 110 300 119 q 217 101 244 101 q 151 119 174 101 q 118 160 129 138 q 104 218 106 185 q 113 254 104 232 q 141 297 122 276 q 188 331 160 317 q 257 346 217 346 q 294 340 274 346 q 331 319 314 333 q 360 283 349 306 q 371 229 371 261 z "},"¶":{"ha":694,"x_min":-12,"x_max":679,"o":"m 679 721 q 672 691 679 704 q 654 669 664 678 q 631 653 643 660 q 610 638 618 646 q 600 622 603 629 q 594 607 594 614 q 567 417 575 503 q 560 261 560 331 q 563 159 560 203 q 571 85 567 115 q 583 24 576 49 q 585 6 585 17 q 579 -27 585 -15 q 565 -45 574 -39 q 547 -53 557 -51 q 529 -54 538 -54 q 504 -47 514 -54 q 488 -29 494 -39 q 476 -3 481 -18 q 460 93 465 40 q 454 204 454 146 q 461 363 454 283 q 476 505 468 442 q 492 609 485 568 q 500 651 500 650 q 493 660 500 656 q 488 661 490 661 q 466 660 476 661 q 449 657 456 658 q 432 654 440 656 q 424 647 425 649 q 421 643 422 644 q 375 345 386 472 q 364 132 364 218 q 368 8 364 50 q 374 -33 371 -17 q 378 -72 378 -57 q 363 -125 378 -112 q 328 -137 347 -137 q 306 -133 315 -137 q 290 -121 297 -128 q 278 -104 283 -114 q 257 -26 263 -75 q 251 82 251 24 q 256 199 251 138 q 250 203 256 203 l 201 200 q 88 217 131 196 q 24 270 46 239 q -6 336 1 301 q -12 393 -12 371 q 20 533 -12 475 q 106 631 53 592 q 226 694 160 671 q 360 731 293 718 q 490 747 428 743 q 594 751 551 751 q 642 749 625 751 q 667 743 658 747 q 677 733 675 739 q 679 721 679 728 m 315 607 q 312 622 315 618 q 306 625 308 625 q 261 610 286 625 q 215 567 236 596 q 178 499 193 539 q 163 408 163 458 q 166 364 163 386 q 180 323 169 342 q 209 292 190 304 q 257 281 228 281 q 265 294 264 281 l 315 607 l 315 607 z "},"ß":{"ha":650,"x_min":76,"x_max":625,"o":"m 625 250 q 589 139 625 188 q 505 57 553 90 q 409 6 457 24 q 338 -11 361 -11 q 297 -3 313 -11 q 274 14 282 4 q 263 32 265 24 q 260 43 260 40 q 263 52 260 50 q 268 57 265 54 q 278 60 272 58 q 397 108 354 81 q 462 162 440 135 q 488 211 483 189 q 493 243 493 233 q 463 301 492 279 q 400 338 435 324 q 308 361 360 353 q 292 374 296 361 q 288 393 288 386 q 316 441 288 424 q 378 474 344 458 q 441 507 413 489 q 469 558 469 525 q 453 598 469 582 q 415 623 436 614 q 371 636 393 632 q 336 640 349 640 q 280 631 294 640 q 261 611 265 622 q 251 583 254 596 q 244 557 247 571 q 207 330 217 436 q 197 138 197 224 q 200 33 197 76 q 206 -42 203 -11 q 213 -90 210 -72 q 215 -114 215 -107 q 205 -151 215 -137 q 182 -173 194 -165 q 158 -183 169 -181 q 142 -186 146 -186 q 112 -178 122 -186 q 96 -158 101 -169 q 88 -131 90 -146 q 78 -18 81 -74 q 76 92 76 38 q 87 322 76 214 q 111 508 97 429 q 125 583 118 551 q 139 638 132 615 q 153 681 146 663 q 163 693 157 688 q 186 711 172 706 q 222 722 201 717 q 265 730 240 726 q 321 733 289 733 q 413 724 363 733 q 508 692 464 714 q 581 638 551 671 q 611 557 611 604 q 590 500 611 521 q 542 466 568 479 q 494 443 515 453 q 472 419 472 433 q 478 411 472 417 q 504 396 483 406 q 564 357 538 379 q 606 311 588 338 q 625 250 625 285 z "},"®":{"ha":558,"x_min":51,"x_max":510,"o":"m 510 551 q 492 463 510 504 q 442 390 474 421 q 369 340 411 358 q 281 322 328 322 q 192 340 233 322 q 119 390 150 358 q 69 463 88 421 q 51 551 51 504 q 69 640 51 599 q 119 713 88 682 q 192 763 150 744 q 281 781 233 781 q 369 763 328 781 q 442 713 411 744 q 492 640 474 682 q 510 551 510 599 m 469 551 q 455 625 469 590 q 415 685 440 660 q 354 726 389 711 q 281 740 319 740 q 207 726 242 740 q 147 685 172 711 q 106 625 121 660 q 92 551 92 590 q 106 478 92 513 q 147 417 121 443 q 207 377 172 392 q 281 363 242 363 q 354 377 319 363 q 415 417 389 392 q 455 478 440 443 q 469 551 469 513 m 382 425 q 374 410 382 415 q 358 406 365 406 q 328 423 343 406 q 299 463 313 440 q 267 519 283 488 q 260 518 263 518 q 251 517 256 517 q 250 514 250 515 q 246 438 246 478 q 239 425 246 432 q 233 422 236 422 l 226 422 q 208 436 211 422 q 206 456 206 450 q 206 471 206 463 q 207 486 206 479 q 210 501 208 493 q 203 507 206 503 q 197 521 197 513 q 201 532 197 529 q 206 535 203 533 q 215 538 211 538 l 217 538 q 221 572 218 557 q 235 624 225 603 q 240 632 236 628 q 247 638 243 635 q 258 640 251 640 q 267 639 265 640 q 269 628 269 638 q 267 608 268 619 q 262 585 264 599 q 256 557 260 572 l 256 556 q 257 554 256 554 l 258 554 q 314 591 300 574 q 328 618 328 608 q 314 642 328 632 q 280 659 300 653 q 237 668 260 665 q 194 671 214 671 q 183 678 186 671 q 182 685 182 681 q 195 701 183 697 q 228 706 207 706 q 267 701 242 706 q 315 688 292 697 q 356 662 339 678 q 374 624 374 646 q 366 594 374 617 q 314 538 358 572 l 313 538 q 331 496 321 515 q 351 461 339 479 q 378 432 363 443 q 379 429 378 431 q 382 425 382 426 z "},"©":{"ha":804,"x_min":10,"x_max":782,"o":"m 782 344 q 748 184 782 260 q 656 51 714 108 q 521 -40 597 -7 q 361 -74 444 -74 q 222 -47 286 -74 q 110 28 157 -19 q 36 140 63 75 q 10 278 10 204 q 32 420 10 358 q 90 528 54 482 q 172 607 126 575 q 265 658 218 639 q 354 687 311 678 q 429 696 397 696 q 569 669 504 696 q 681 594 633 642 q 755 483 728 547 q 782 344 782 418 m 713 336 q 693 449 715 396 q 631 542 671 503 q 538 603 592 581 q 422 626 485 626 q 317 606 376 626 q 204 544 257 586 q 115 438 151 503 q 79 283 79 372 q 101 170 79 222 q 163 79 124 118 q 254 18 201 40 q 368 -4 307 -4 q 494 21 433 -4 q 601 91 554 46 q 678 199 649 136 q 713 336 708 261 m 543 222 q 529 169 543 196 q 491 119 515 142 q 434 83 467 97 q 365 68 401 68 q 292 88 319 68 q 251 134 265 107 q 231 192 236 161 q 226 243 226 222 q 243 340 226 285 q 291 444 260 394 q 367 528 322 493 q 468 563 411 563 q 510 549 496 563 q 525 496 525 535 q 523 470 525 488 q 514 436 521 453 q 495 406 507 419 q 464 393 483 393 q 449 396 458 393 q 440 418 440 399 q 442 424 440 422 q 443 438 443 426 q 440 456 443 446 q 426 467 438 467 q 390 448 410 467 q 354 398 371 429 q 326 326 338 367 q 315 242 315 285 q 318 210 315 226 q 328 182 321 194 q 347 161 335 169 q 378 153 358 153 q 424 168 394 153 q 486 238 454 183 q 493 247 489 242 q 514 260 501 258 q 533 252 522 260 q 543 222 543 244 z "},"™":{"ha":613,"x_min":72,"x_max":544,"o":"m 544 432 q 544 374 544 400 q 539 329 543 349 q 525 299 535 310 q 499 289 515 289 q 474 300 479 289 q 471 311 471 306 q 476 338 474 321 q 481 376 479 353 q 482 435 482 399 q 479 476 482 463 q 449 431 458 449 q 432 402 439 413 q 419 388 425 392 q 400 383 413 383 q 380 394 389 383 q 364 419 371 404 q 351 449 357 433 q 343 478 346 465 q 336 414 338 442 q 335 368 335 386 q 336 342 335 347 l 336 325 q 319 304 332 310 q 306 301 314 301 q 279 310 283 301 q 275 322 275 318 q 274 346 274 333 q 274 369 274 358 q 285 501 274 450 q 306 568 297 551 q 324 587 310 576 q 357 597 338 597 q 374 593 367 597 q 381 578 381 589 q 383 558 381 575 q 390 522 386 542 q 400 487 394 503 q 411 471 406 471 q 413 472 411 472 q 415 474 414 472 q 431 493 422 481 q 469 567 444 514 q 488 589 475 579 q 515 600 501 599 q 531 595 528 600 q 538 579 535 590 q 540 535 539 558 q 543 488 542 514 q 544 432 544 461 m 306 593 q 297 574 306 588 q 264 560 289 560 q 236 558 249 560 q 216 554 225 557 q 207 547 207 551 q 196 497 201 524 q 188 445 192 474 q 185 385 185 417 q 179 317 185 346 q 143 288 174 288 q 132 292 138 288 q 122 324 122 299 q 125 387 122 353 q 132 451 128 421 q 140 504 136 481 q 146 536 144 528 q 135 532 139 533 q 128 529 131 531 q 121 526 124 528 q 97 518 106 518 q 77 525 82 518 q 72 544 72 532 q 76 560 72 551 q 94 581 81 569 q 115 588 100 582 q 153 601 131 594 q 206 612 176 607 q 269 617 236 617 q 293 614 281 617 q 306 593 306 611 z "},"´":{"ha":364,"x_min":93,"x_max":300,"o":"m 300 651 q 297 639 300 644 q 290 631 293 633 q 282 624 286 626 q 231 595 254 613 q 188 561 208 578 q 149 532 168 544 q 111 518 131 519 q 96 525 99 517 q 94 532 93 529 q 110 588 94 557 q 146 644 125 618 q 188 688 167 671 q 221 706 210 706 q 242 703 229 706 q 268 694 256 700 q 290 677 281 688 q 300 651 300 667 z "},"¨":{"ha":694,"x_min":222,"x_max":531,"o":"m 531 585 q 516 539 531 561 q 469 517 501 517 q 438 526 451 517 q 424 560 424 536 q 433 593 426 578 q 452 617 440 606 q 486 628 464 628 q 519 615 508 628 q 531 585 531 601 m 329 592 q 315 546 329 568 q 268 524 300 524 q 236 533 250 524 q 222 567 222 543 q 232 600 225 585 q 251 624 239 613 q 285 635 263 635 q 318 622 307 635 q 329 592 329 608 z "},"≠":{"ha":593,"x_min":43,"x_max":549,"o":"m 549 232 q 542 208 549 217 q 528 197 535 200 q 508 193 519 192 q 458 197 493 193 q 394 201 422 201 q 341 200 367 201 q 290 196 315 199 q 283 178 285 186 q 261 103 269 142 q 239 35 253 65 q 225 16 233 22 q 194 10 217 10 q 179 21 183 10 q 175 47 175 32 q 180 92 175 68 q 190 131 185 115 l 210 185 q 159 175 182 179 q 121 167 136 171 q 88 157 101 161 q 71 154 81 154 q 48 165 53 154 q 43 178 43 176 q 44 187 43 179 q 51 203 46 194 q 69 222 57 213 q 103 236 82 231 q 139 243 118 239 q 181 250 157 246 q 236 258 206 254 l 274 363 q 212 353 243 358 q 154 343 181 347 q 94 332 124 338 q 67 340 79 332 q 54 368 54 347 q 76 393 54 382 q 133 413 97 404 q 212 428 168 422 q 300 439 256 435 q 322 497 310 468 q 347 547 333 525 q 376 581 361 568 q 410 594 392 594 q 424 572 424 594 q 413 524 424 557 q 385 443 401 490 q 403 444 394 444 q 419 444 411 444 q 515 440 482 444 q 549 408 549 436 q 528 382 549 390 q 477 372 507 374 q 414 370 447 369 q 357 369 381 371 q 338 319 347 344 q 317 267 328 294 q 422 271 364 271 q 458 270 436 271 q 499 266 479 269 q 534 254 519 263 q 549 232 549 246 z "},"Æ":{"ha":949,"x_min":28,"x_max":958,"o":"m 958 404 q 956 385 958 397 q 938 360 953 374 q 890 335 922 347 q 799 317 857 322 q 678 305 736 310 q 576 289 621 300 q 574 288 575 289 q 571 279 571 285 q 578 239 571 267 q 603 183 585 211 q 653 133 621 154 q 739 111 686 111 q 777 114 764 111 q 800 121 790 117 q 821 128 810 125 q 853 131 832 131 q 880 122 871 131 q 889 93 889 114 q 844 18 889 49 q 715 -12 800 -12 q 615 4 663 -12 q 527 54 567 21 q 460 136 488 88 q 425 250 433 185 q 422 253 425 251 q 417 256 419 254 q 408 257 414 257 q 317 234 353 246 q 263 213 282 222 q 226 190 238 201 q 213 174 217 183 l 208 165 q 187 86 194 119 q 175 29 179 53 q 168 -17 169 3 q 154 -57 168 -42 q 123 -81 140 -72 q 89 -93 106 -90 q 67 -96 72 -96 q 44 -87 51 -96 q 33 -68 36 -79 q 28 -46 29 -57 q 28 -29 28 -35 q 33 29 28 -3 q 46 89 39 61 q 58 136 53 117 q 64 156 64 156 q 61 161 64 158 l 58 164 q 33 185 38 171 q 28 211 28 200 q 46 253 33 238 q 74 276 58 268 q 110 289 89 286 q 121 296 115 290 q 124 300 122 299 q 194 474 156 400 q 265 599 233 549 q 340 699 303 657 q 367 718 353 710 q 392 732 378 725 q 422 739 407 739 q 435 735 429 738 q 444 733 440 733 q 451 736 449 733 q 474 753 461 746 q 498 765 485 760 q 529 769 511 769 q 539 764 533 769 q 545 749 542 760 q 549 721 549 739 q 547 697 549 710 q 543 665 546 685 q 550 658 543 658 q 599 705 571 685 q 659 738 628 725 q 721 756 690 750 q 776 763 751 763 q 806 761 786 763 q 844 753 825 760 q 878 733 864 746 q 892 696 892 719 q 874 649 892 669 q 804 629 857 629 q 796 631 801 629 q 787 631 792 631 q 775 632 782 632 q 728 626 756 632 q 674 597 701 619 q 629 553 650 579 q 594 495 611 529 q 568 414 576 461 q 569 411 568 413 q 576 408 572 408 q 629 415 599 411 q 694 421 660 418 q 766 426 729 424 q 839 428 803 428 q 891 426 867 428 q 936 422 915 425 q 947 419 942 422 q 958 404 958 414 m 422 590 q 417 597 422 597 q 408 594 414 597 q 404 593 406 593 q 361 538 383 576 q 322 458 339 499 q 293 385 304 417 q 282 353 282 354 q 289 343 282 343 q 329 354 308 349 q 367 363 347 358 q 407 371 388 368 q 411 374 408 371 q 417 386 417 379 l 417 424 q 417 481 417 451 q 419 533 418 510 q 422 586 421 560 l 422 590 z "},"Ø":{"ha":660,"x_min":19,"x_max":640,"o":"m 640 393 q 635 335 640 375 q 617 245 631 294 q 581 142 604 196 q 519 45 557 89 q 427 -26 481 1 q 301 -54 374 -54 q 235 -40 268 -54 q 233 -47 233 -43 q 231 -54 232 -51 q 213 -108 219 -85 q 199 -147 206 -131 q 182 -170 192 -162 q 156 -178 172 -178 q 127 -162 136 -178 q 118 -128 118 -146 q 129 -78 118 -112 q 160 6 140 -43 q 88 108 117 43 q 58 274 58 174 q 68 372 58 326 q 89 451 78 417 q 110 505 100 485 q 119 528 119 525 q 115 533 119 529 q 111 536 113 535 q 83 528 101 536 q 50 519 65 519 q 29 526 39 519 q 19 554 19 532 q 41 614 19 582 q 103 673 63 646 q 199 718 143 700 q 326 736 256 736 q 475 700 406 736 q 490 731 483 717 q 501 756 496 744 l 513 778 q 522 790 517 785 q 532 799 526 794 q 544 803 538 803 q 571 787 564 800 q 578 754 578 774 q 569 712 578 739 q 546 649 561 685 q 615 542 589 606 q 640 393 640 478 m 503 363 q 499 403 503 382 q 490 443 496 421 q 474 489 483 465 q 383 297 432 400 q 290 93 335 194 q 340 79 314 79 q 391 94 363 79 q 444 143 419 110 q 486 231 469 176 q 503 363 503 285 m 411 569 q 338 590 379 590 q 290 585 308 590 q 260 572 271 579 q 242 556 247 565 q 214 493 226 528 q 194 424 203 464 q 186 339 186 385 q 195 260 186 310 q 226 167 204 211 q 320 373 271 267 q 411 569 369 479 z "},"≤":{"ha":601,"x_min":51,"x_max":543,"o":"m 511 269 q 497 243 511 250 q 471 236 482 236 q 446 240 454 236 q 436 246 440 243 q 358 265 407 257 q 263 276 310 272 q 183 282 217 281 q 147 283 149 283 q 102 290 118 283 q 79 304 86 296 q 69 326 71 314 q 92 368 69 344 q 151 417 115 392 q 232 468 188 443 q 319 513 276 493 q 399 546 363 533 q 457 558 436 558 q 488 542 481 558 q 496 519 496 526 q 487 497 496 510 q 443 476 478 483 q 365 453 406 468 q 289 419 331 440 q 206 367 247 397 q 203 363 204 365 q 200 354 200 357 q 208 349 200 349 q 300 346 254 349 q 380 339 339 343 q 451 326 421 335 q 501 298 490 315 q 511 269 511 281 m 543 133 q 533 113 543 121 q 508 101 524 106 q 474 96 493 97 q 433 94 454 94 l 365 94 q 272 88 321 94 q 183 75 224 82 q 90 57 136 67 q 67 67 79 60 q 51 93 56 74 q 69 123 51 111 q 110 141 86 135 q 157 151 133 147 q 192 157 181 154 q 257 168 221 163 q 326 176 288 172 q 410 181 365 181 q 454 179 432 181 q 500 175 476 178 q 538 156 532 169 q 543 133 543 143 z "},"≥":{"ha":601,"x_min":51,"x_max":543,"o":"m 525 454 q 502 413 525 436 q 443 363 479 389 q 363 313 407 338 q 275 267 318 288 q 195 235 232 247 q 138 222 158 222 q 106 238 114 222 q 99 261 99 254 q 108 284 99 271 q 151 304 117 297 q 228 328 188 313 q 305 361 263 340 q 389 414 347 382 q 392 418 390 415 q 394 426 394 424 q 386 432 394 432 q 294 435 340 432 q 214 442 256 438 q 143 454 172 446 q 94 483 104 465 q 83 511 83 500 q 98 538 83 531 q 124 544 113 544 q 149 539 135 544 q 158 535 154 536 q 236 516 188 524 q 331 504 285 508 q 412 499 378 500 q 447 497 446 497 q 492 490 476 497 q 515 475 508 483 q 525 454 524 465 m 543 174 q 526 143 543 154 q 485 126 508 132 q 438 116 461 119 q 403 110 414 113 q 338 97 374 103 q 268 90 307 93 q 185 86 229 86 q 140 88 163 86 q 94 92 118 89 q 57 110 63 97 q 51 133 51 124 q 61 153 51 146 q 86 165 71 161 q 121 171 101 169 q 161 172 140 172 l 229 172 q 322 178 274 172 q 410 190 369 183 q 504 210 457 199 q 527 200 515 207 q 543 174 539 193 z "},"¥":{"ha":694,"x_min":96,"x_max":657,"o":"m 657 328 q 644 307 657 315 q 613 294 632 299 q 572 289 594 290 q 529 288 550 288 l 515 288 q 510 285 513 288 q 508 282 508 283 l 493 236 q 496 232 493 232 l 538 233 q 559 233 544 233 q 588 230 574 232 q 614 224 603 228 q 625 211 625 219 q 608 182 625 192 q 568 168 592 172 q 518 164 544 164 q 472 163 492 164 q 463 158 465 161 q 461 154 461 157 q 376 10 422 74 q 333 -44 357 -18 q 281 -90 308 -69 q 224 -122 254 -110 q 163 -135 194 -135 q 127 -126 140 -135 q 107 -108 114 -118 q 98 -90 100 -99 q 96 -79 96 -81 q 101 -55 96 -64 q 113 -39 106 -46 q 129 -26 119 -32 q 204 11 172 -11 q 258 58 236 33 q 292 103 279 82 q 313 139 306 125 q 308 142 313 142 q 251 132 282 138 q 208 124 219 126 q 190 128 197 124 q 178 136 183 131 q 172 153 172 142 q 190 176 172 167 q 230 192 207 186 q 276 202 253 199 q 310 208 299 206 q 318 210 313 208 q 342 214 328 213 q 346 215 343 214 q 351 222 350 219 q 360 249 357 238 q 365 271 363 260 q 360 275 365 275 q 226 256 290 267 q 210 258 217 256 q 198 265 203 261 q 194 278 193 269 q 211 304 194 294 q 249 319 228 314 q 291 328 269 325 q 324 333 313 331 q 331 335 331 333 q 325 339 331 339 q 207 406 251 365 q 140 492 163 447 q 110 579 117 536 q 103 651 103 622 q 122 726 103 696 q 175 756 140 756 q 192 754 182 756 q 213 744 203 753 q 231 717 224 736 q 238 665 238 699 q 242 615 238 649 q 263 546 246 581 q 315 482 281 511 q 410 447 349 453 q 419 449 414 447 q 428 460 425 451 q 451 558 446 515 q 456 625 456 600 q 455 648 456 640 q 454 657 454 656 q 477 709 456 683 q 542 735 499 735 q 574 724 557 735 q 590 679 590 714 q 583 589 589 639 q 567 488 578 546 q 535 360 556 429 q 540 356 535 356 q 582 355 561 356 q 622 354 603 354 q 651 340 644 353 q 657 328 656 335 z "},"∂":{"ha":325,"x_min":8,"x_max":444,"o":"m 444 721 q 442 699 444 714 q 435 669 440 683 q 419 643 429 654 q 394 632 410 632 q 383 637 388 632 q 376 649 379 642 q 372 665 374 656 q 358 690 368 685 q 347 693 353 693 q 317 681 331 693 q 293 656 304 669 q 272 618 281 639 q 253 569 263 597 q 235 510 244 546 q 218 425 225 474 q 221 419 218 419 q 321 431 272 431 q 340 426 332 431 q 354 415 347 424 q 361 392 361 407 q 360 376 361 382 q 348 349 356 358 q 333 336 340 340 q 314 331 325 331 q 256 326 282 331 q 206 317 231 322 q 201 314 201 314 l 201 311 q 194 231 197 272 q 192 143 192 189 q 208 -76 192 40 q 210 -89 210 -83 q 210 -99 210 -94 q 203 -120 210 -111 q 188 -135 197 -129 q 168 -142 178 -140 q 153 -144 158 -144 q 133 -142 142 -144 q 126 -137 129 -140 q 103 -99 111 -133 q 93 -20 96 -65 q 90 69 90 25 q 89 139 89 114 q 93 272 89 210 q 90 276 93 276 l 88 276 q 73 271 79 274 q 63 265 67 268 l 54 261 q 33 256 43 256 q 13 268 18 256 q 8 289 8 281 q 14 317 8 304 q 26 338 19 329 q 46 356 35 347 q 60 364 51 358 q 77 372 67 367 q 100 382 88 376 q 103 383 103 382 q 104 386 103 385 q 106 389 104 388 q 139 559 117 490 q 183 669 161 628 q 239 747 208 718 q 275 775 256 763 q 314 795 292 786 q 360 804 336 804 q 422 781 400 804 q 444 721 444 757 z "},"∑":{"ha":613,"x_min":57,"x_max":579,"o":"m 579 425 q 575 346 579 393 q 560 245 571 299 q 529 139 549 192 q 478 43 510 86 q 401 -26 446 0 q 294 -53 356 -53 q 216 -35 250 -53 q 157 13 182 -17 q 115 79 132 42 q 86 156 97 117 q 57 364 61 247 q 63 498 57 424 q 83 638 68 572 q 124 747 97 703 q 196 792 151 792 q 247 775 231 792 q 263 735 263 758 q 262 728 263 731 q 261 722 261 725 q 260 718 260 719 q 222 588 236 651 q 201 472 208 524 q 193 385 194 419 q 192 343 192 350 q 209 194 192 247 q 249 117 226 142 q 292 87 271 92 q 321 82 314 82 q 384 116 360 82 q 422 200 408 150 q 439 307 435 250 q 443 408 443 364 q 442 462 443 438 q 439 506 440 486 q 436 544 438 526 q 459 587 439 572 q 503 601 479 601 q 546 584 531 601 q 569 540 561 567 q 578 483 576 514 q 579 425 579 451 z "},"∏":{"ha":325,"x_min":83,"x_max":313,"o":"m 313 901 q 301 850 313 872 q 271 813 289 828 q 233 790 253 797 q 200 782 214 782 q 153 799 169 782 q 136 844 136 817 q 146 888 136 867 q 172 926 156 910 q 208 953 188 943 q 249 964 228 964 q 296 947 279 964 q 313 901 313 929 m 275 647 q 266 594 275 644 q 247 460 257 544 q 228 265 236 376 q 219 29 219 154 q 213 1 219 11 q 197 -12 206 -8 q 175 -18 188 -18 q 130 -10 146 -18 q 106 10 114 -1 q 94 36 96 22 q 85 128 88 82 q 83 218 83 174 q 90 367 83 297 q 103 490 96 438 q 124 603 111 551 q 142 633 128 618 q 176 658 153 646 q 238 676 199 669 q 261 672 247 676 q 275 647 275 667 z "},"π":{"ha":636,"x_min":83,"x_max":564,"o":"m 564 435 q 552 404 564 417 q 526 382 540 392 q 490 364 511 371 q 483 358 488 363 q 481 354 482 356 q 469 284 472 318 q 467 218 467 250 q 473 126 467 167 q 488 56 479 85 q 508 -6 496 21 q 515 -23 514 -17 q 517 -33 517 -29 q 499 -62 517 -50 q 458 -75 482 -75 q 428 -67 440 -75 q 410 -49 417 -60 q 394 -22 401 -37 q 378 58 382 6 q 374 167 374 110 q 374 228 374 199 q 376 282 375 258 q 379 333 378 308 q 375 340 379 336 q 371 342 372 342 q 322 332 349 335 q 293 329 307 329 q 286 324 289 329 q 285 319 285 321 q 269 124 282 201 q 242 -1 257 46 q 204 -89 225 -57 q 163 -127 183 -118 q 128 -136 143 -136 q 83 -100 83 -136 q 87 -79 83 -89 q 94 -60 90 -69 q 107 -39 100 -50 q 150 72 135 10 q 172 186 165 133 q 183 313 181 249 q 179 318 183 314 q 175 319 176 319 q 122 337 139 321 q 104 374 104 353 q 108 394 104 385 q 119 410 113 403 q 136 425 126 418 q 140 426 138 425 q 153 429 146 429 q 167 426 156 429 q 183 422 174 424 q 232 418 200 418 q 302 426 261 418 q 400 449 343 435 q 442 463 421 457 q 480 473 460 468 q 517 478 500 478 q 547 469 529 478 q 564 435 564 461 z "},"∫":{"ha":281,"x_min":-54,"x_max":494,"o":"m 494 550 q 483 522 493 526 q 465 517 472 517 q 449 518 456 518 q 435 518 442 518 q 381 514 410 518 q 325 504 351 510 q 264 490 294 499 q 229 481 246 485 q 197 472 213 476 q 194 471 196 472 q 190 465 190 467 q 181 376 185 425 q 174 279 176 335 q 171 158 171 224 q 183 50 175 100 q 201 -36 190 7 q 231 -100 213 -79 q 242 -128 242 -115 q 223 -156 242 -147 q 193 -165 204 -165 q 157 -156 171 -165 q 143 -146 149 -151 q 105 -87 119 -124 q 82 -6 90 -50 q 71 85 74 38 q 68 178 68 133 q 71 272 68 224 q 78 360 74 319 q 88 449 82 406 q 86 451 88 450 q 81 456 82 456 q 65 454 72 454 q 54 454 58 454 l 46 454 q -8 460 11 453 q -38 477 -28 467 q -51 498 -49 488 q -54 515 -54 508 q -52 525 -54 518 q -44 540 -50 532 q -27 553 -37 547 q 1 558 -17 558 q 19 557 14 558 q 29 553 24 556 q 46 550 35 551 q 82 549 57 549 q 101 556 100 549 q 117 639 110 606 q 131 692 124 672 q 143 726 136 715 q 161 754 149 742 q 188 774 171 765 q 228 783 204 783 q 248 779 235 783 q 261 756 261 775 q 258 738 261 749 q 251 713 256 728 q 239 679 247 699 q 231 653 236 668 q 221 619 226 639 q 210 574 215 600 q 214 568 210 568 q 238 573 225 568 q 265 582 251 578 q 318 598 293 592 q 361 607 343 604 q 400 611 382 611 q 453 604 435 611 q 481 588 472 597 q 492 569 490 579 q 494 550 494 558 z "},"ª":{"ha":431,"x_min":82,"x_max":383,"o":"m 383 368 q 377 351 383 357 q 364 342 371 344 q 344 338 356 338 q 315 348 326 338 q 294 371 303 358 q 279 404 285 386 q 275 408 278 408 q 273 408 274 408 q 271 407 272 407 l 269 406 q 209 363 239 372 q 164 354 179 354 q 119 364 135 354 q 94 388 103 374 q 84 414 86 401 q 82 433 82 426 q 107 505 82 474 q 164 560 132 536 q 247 607 200 586 q 253 611 250 608 q 258 619 258 617 q 241 634 258 631 q 203 638 224 638 q 186 637 193 638 q 172 636 179 636 q 158 635 165 635 q 133 645 138 633 q 128 664 128 657 q 130 673 128 667 q 140 686 132 679 q 163 699 147 693 q 203 704 178 704 q 246 700 221 704 q 294 687 271 696 q 333 663 317 678 q 349 628 349 649 q 320 585 349 604 q 257 545 292 565 q 194 501 222 525 q 165 444 165 478 q 168 433 165 442 q 186 424 171 424 q 208 429 196 424 q 231 444 219 435 q 249 466 242 454 q 257 490 257 478 q 256 492 256 490 l 256 497 q 269 528 256 511 q 304 546 283 546 q 316 543 311 546 q 321 531 321 540 q 329 479 324 504 q 343 436 335 458 q 365 403 351 414 q 374 392 369 397 q 380 381 376 386 q 383 368 383 375 z "},"º":{"ha":407,"x_min":50,"x_max":354,"o":"m 354 565 q 348 515 354 551 q 324 442 342 479 q 274 375 307 404 q 188 346 242 346 q 150 354 171 346 q 112 382 129 363 q 82 432 94 401 q 69 507 69 463 q 74 555 69 532 q 85 594 79 578 q 95 621 90 611 q 100 632 100 631 q 97 635 100 632 q 94 636 96 635 q 81 632 90 636 q 65 628 72 628 q 55 631 60 628 q 50 644 50 633 q 60 674 50 658 q 91 703 71 690 q 139 725 111 717 q 201 733 167 733 q 260 723 232 733 q 308 691 288 713 q 342 638 329 669 q 354 565 354 607 m 288 551 q 276 607 285 582 q 252 645 268 628 q 207 663 236 663 q 183 660 192 663 q 168 654 174 657 q 160 646 163 650 q 146 615 151 632 q 136 581 140 600 q 132 539 132 561 q 136 505 132 526 q 149 463 140 483 q 173 427 158 442 q 208 413 188 413 q 233 419 219 413 q 259 443 247 426 q 279 486 271 460 q 288 551 288 513 z "},"Ω":{"ha":394,"x_min":10,"x_max":390,"o":"m 390 44 q 381 15 390 28 q 357 -8 372 1 q 322 -25 342 -18 q 283 -36 303 -32 q 176 -47 236 -46 q 90 -43 124 -47 q 54 -39 71 -42 q 17 -18 24 -32 q 10 10 10 -4 q 26 63 10 33 q 67 124 42 93 q 119 185 92 154 q 172 241 147 215 q 213 286 197 267 q 229 315 229 306 q 222 327 229 322 q 205 334 215 332 q 184 337 194 336 q 167 338 174 338 q 135 336 146 338 q 116 333 124 335 q 101 331 108 332 q 81 329 93 329 q 56 333 65 329 q 43 344 47 338 q 38 357 39 350 q 36 368 36 364 q 42 388 36 376 q 60 410 47 400 q 96 428 74 421 q 150 435 118 435 q 210 430 174 435 q 283 413 247 425 q 344 383 318 401 q 369 340 369 365 q 363 314 369 329 q 336 282 356 299 q 271 217 304 253 q 210 147 243 186 q 151 65 178 108 q 150 63 150 64 q 149 56 149 61 q 165 44 149 46 q 197 43 182 43 q 248 49 217 43 q 313 74 279 54 q 324 81 318 76 q 335 86 329 83 q 350 89 342 89 q 373 82 365 89 q 385 67 381 75 q 390 44 390 57 z "},"æ":{"ha":607,"x_min":17,"x_max":600,"o":"m 600 346 q 582 262 600 303 q 534 189 564 221 q 465 138 504 157 q 383 118 426 118 q 378 115 381 118 q 376 113 376 114 q 391 63 379 81 q 415 33 403 44 q 449 17 431 21 q 492 -9 485 7 q 500 -36 500 -25 q 491 -63 500 -54 q 471 -76 482 -72 q 443 -83 458 -82 q 385 -72 410 -83 q 342 -45 360 -61 q 311 -11 324 -29 q 292 22 299 7 q 288 19 289 21 q 286 17 288 18 l 283 14 q 196 -45 238 -32 q 132 -58 154 -58 q 68 -44 92 -58 q 33 -10 44 -29 q 19 27 22 8 q 17 54 17 46 q 26 108 17 82 q 53 156 36 133 q 90 199 69 179 q 133 235 111 218 q 251 303 185 272 q 260 307 256 304 q 268 319 268 313 q 243 340 268 335 q 189 346 218 346 q 165 345 176 346 q 144 343 153 344 q 125 342 133 342 q 101 345 110 340 q 88 357 92 350 q 82 372 83 364 q 81 383 81 379 q 83 397 81 388 q 97 416 86 406 q 130 434 108 426 q 189 442 151 442 q 228 439 206 442 q 273 431 250 436 q 318 417 296 426 q 358 396 340 408 q 417 441 382 424 q 496 458 451 458 q 528 454 510 458 q 562 438 546 450 q 589 403 578 425 q 600 346 600 381 m 500 332 q 497 346 500 340 q 490 356 494 351 q 478 361 486 361 q 442 346 461 361 q 408 308 424 331 q 382 259 392 285 q 372 213 372 233 q 378 206 372 206 q 408 213 388 206 q 449 236 428 221 q 485 275 469 251 q 500 332 500 299 m 281 224 q 269 218 275 219 q 201 171 231 196 q 156 124 176 150 q 135 71 135 99 q 140 53 135 65 q 164 40 144 40 q 190 47 175 40 q 219 64 204 53 q 248 89 235 75 q 268 118 261 103 q 271 160 268 132 q 281 224 274 188 z "},"ø":{"ha":435,"x_min":33,"x_max":406,"o":"m 406 260 q 386 141 406 192 q 335 56 367 90 q 263 5 303 22 q 183 -12 224 -12 q 170 -12 176 -12 q 157 -10 164 -11 q 151 -26 154 -18 q 146 -40 149 -33 q 133 -79 138 -62 q 123 -107 128 -96 q 110 -124 118 -118 q 90 -129 103 -129 q 70 -118 76 -129 q 64 -93 64 -107 q 74 -53 64 -81 q 99 15 83 -25 q 65 58 76 33 q 47 106 53 83 q 39 158 40 131 q 46 219 39 190 q 63 271 53 247 q 88 321 74 297 q 83 326 88 322 q 81 328 82 328 q 46 337 58 328 q 33 360 33 346 q 48 396 33 378 q 87 427 63 414 q 141 449 111 440 q 200 457 171 457 q 242 453 218 457 q 289 439 265 450 q 314 491 303 467 q 333 532 325 515 l 351 568 q 358 576 354 572 q 375 585 367 585 q 394 574 389 583 q 400 549 400 564 q 385 494 400 532 q 347 406 371 457 q 389 347 372 382 q 406 260 406 313 m 244 346 q 219 351 231 351 q 199 341 211 351 q 177 312 188 331 q 159 264 167 293 q 151 197 151 235 q 151 176 151 189 q 154 147 151 163 q 199 247 176 196 q 244 346 222 297 m 293 231 q 292 244 293 238 q 290 260 290 251 q 286 279 289 268 q 241 183 264 232 q 197 85 218 133 q 217 82 203 82 q 260 105 244 82 q 282 156 275 128 q 293 231 290 189 z "},"¿":{"ha":694,"x_min":149,"x_max":592,"o":"m 501 488 q 496 459 501 475 q 480 429 490 443 q 453 406 469 415 q 417 397 438 397 q 376 411 394 397 q 358 461 358 425 q 369 496 358 481 q 393 522 379 511 q 422 538 407 532 q 449 543 438 543 q 491 526 481 543 q 501 488 501 508 m 592 -119 q 578 -166 592 -142 q 540 -211 565 -190 q 476 -246 514 -232 q 386 -260 438 -260 q 313 -251 354 -260 q 235 -222 272 -242 q 174 -168 199 -201 q 149 -86 149 -135 q 165 -19 149 -49 q 206 37 181 11 q 258 87 231 63 q 311 137 286 111 q 352 192 336 163 q 368 257 368 221 q 366 277 368 265 q 366 299 364 289 q 375 317 368 310 q 401 325 382 325 q 438 313 424 325 q 460 287 451 301 q 471 257 468 272 q 474 236 474 242 q 442 146 474 186 q 374 71 411 106 q 305 4 336 36 q 274 -61 274 -28 q 310 -141 274 -115 q 389 -167 346 -167 q 459 -148 439 -167 q 479 -104 479 -129 q 474 -78 479 -89 q 465 -58 469 -67 q 455 -40 460 -49 q 450 -19 450 -31 q 465 3 450 -3 q 490 10 481 10 q 536 -5 517 10 q 568 -40 556 -19 q 586 -82 581 -60 q 592 -119 592 -104 z "},"¡":{"ha":304,"x_min":56,"x_max":239,"o":"m 239 496 q 233 469 239 483 q 217 442 228 454 q 189 420 206 429 q 151 411 172 411 q 114 424 129 411 q 99 468 99 438 q 109 504 99 489 q 133 530 119 519 q 163 545 147 540 q 188 550 178 550 q 201 549 193 550 q 218 542 210 547 q 233 525 226 536 q 239 496 239 514 m 199 276 q 196 237 199 274 q 189 144 193 200 q 182 24 185 89 q 179 -96 179 -40 q 181 -169 179 -136 q 189 -219 183 -201 q 190 -231 190 -224 q 182 -250 190 -243 q 164 -260 174 -257 q 139 -264 153 -264 q 94 -253 111 -264 q 67 -212 76 -243 q 60 -181 63 -200 q 57 -143 58 -161 q 56 -99 56 -122 q 62 31 56 -36 q 76 156 68 97 q 99 286 86 222 q 106 303 100 296 q 118 315 110 310 q 142 319 126 319 q 169 314 157 319 q 190 301 181 310 q 199 276 199 292 z "},"ƒ":{"ha":494,"x_min":-67,"x_max":531,"o":"m 531 724 q 522 669 531 696 q 499 624 513 643 q 468 592 485 604 q 436 581 451 581 q 421 586 425 581 q 417 597 417 592 q 421 624 417 608 q 425 667 425 639 q 415 715 425 706 q 399 724 404 724 q 329 661 364 724 q 267 467 294 599 l 267 464 q 271 463 267 463 q 313 467 290 465 q 368 469 336 469 q 388 465 379 469 q 401 454 394 463 q 407 432 407 446 q 392 388 407 404 q 360 371 378 371 q 302 367 328 371 q 253 360 276 364 q 249 357 250 358 q 247 354 249 356 q 246 351 246 353 q 235 247 239 304 q 231 132 231 189 q 224 34 231 89 q 205 -77 218 -21 q 172 -187 192 -133 q 125 -284 153 -242 q 63 -352 97 -326 q -15 -378 28 -378 q -44 -372 -35 -378 q -60 -358 -54 -365 q -67 -339 -65 -350 q -58 -317 -67 -328 q -49 -308 -54 -311 q -9 -274 -28 -293 q 24 -235 10 -254 q 54 -190 39 -212 q 94 -94 79 -144 q 117 8 110 -43 q 128 108 125 58 q 131 201 131 157 q 133 262 131 238 q 138 317 135 286 l 138 319 q 133 322 138 322 q 125 319 132 322 q 110 313 118 317 q 92 306 101 308 q 78 303 83 303 q 57 318 63 303 q 54 335 54 325 q 60 364 54 351 q 72 385 65 376 q 92 401 81 394 q 107 410 99 404 q 124 418 114 414 q 147 428 135 422 q 150 429 150 428 q 151 432 150 431 q 153 435 151 433 q 203 617 169 540 q 276 744 236 694 q 358 817 317 793 q 435 840 400 840 q 466 835 449 840 q 497 817 483 831 q 521 781 511 804 q 531 724 531 758 z "},"«":{"ha":726,"x_min":47,"x_max":690,"o":"m 690 419 q 685 399 690 410 q 664 378 679 388 q 557 308 603 342 q 517 279 536 294 q 483 251 499 264 q 458 226 468 238 q 449 206 449 214 q 469 158 450 188 q 524 94 486 133 q 635 1 563 56 q 643 -10 639 -4 q 649 -21 646 -15 q 653 -33 653 -26 q 643 -56 653 -44 q 615 -67 633 -67 q 579 -58 601 -67 q 524 -24 557 -50 q 428 61 469 19 q 362 135 392 97 q 332 203 332 174 q 344 238 332 219 q 378 278 357 257 q 425 319 399 299 q 479 360 451 340 q 626 450 544 406 q 635 453 629 451 q 643 455 639 454 q 654 456 647 456 q 671 452 663 456 q 685 442 679 449 q 688 435 686 439 q 690 419 690 426 m 408 436 q 400 413 408 425 q 367 389 392 400 q 268 322 313 354 q 199 267 231 294 q 165 224 168 239 l 165 221 q 170 203 165 217 q 194 163 175 189 q 251 94 214 136 q 356 -7 289 53 q 367 -17 361 -11 q 375 -29 371 -22 q 379 -43 379 -36 q 366 -69 379 -58 q 338 -79 353 -79 q 318 -76 326 -79 q 303 -68 310 -72 q 288 -56 294 -62 q 159 60 207 13 q 86 141 111 108 q 54 192 61 174 q 47 218 47 210 q 69 267 47 240 q 123 322 90 294 q 193 374 156 349 q 263 419 231 400 q 315 451 294 439 q 335 464 336 464 q 344 467 339 465 q 354 469 349 468 q 367 471 360 471 q 395 464 382 471 q 408 436 408 457 z "},"»":{"ha":726,"x_min":49,"x_max":692,"o":"m 692 218 q 685 192 692 210 q 653 141 678 174 q 580 60 628 108 q 451 -56 532 13 q 436 -68 444 -62 q 420 -76 429 -72 q 401 -79 411 -79 q 373 -69 386 -79 q 360 -43 360 -58 q 363 -29 360 -36 q 371 -17 367 -22 q 383 -7 376 -11 q 488 94 450 53 q 544 163 525 136 q 569 203 564 189 q 574 221 574 217 l 574 224 q 563 243 572 232 q 540 267 554 254 q 507 294 525 281 q 471 322 489 308 q 372 389 426 354 q 339 413 347 400 q 331 436 331 425 q 344 464 331 457 q 372 471 357 471 q 385 469 379 471 q 394 467 390 468 q 404 464 400 465 q 424 451 403 464 q 476 419 444 439 q 546 374 508 400 q 616 322 583 349 q 670 267 649 294 q 692 218 692 240 m 407 203 q 399 171 407 188 q 376 135 390 154 q 346 98 363 117 q 311 61 329 79 q 215 -24 268 19 q 160 -58 182 -50 q 124 -67 138 -67 q 96 -56 106 -67 q 86 -33 86 -44 q 89 -21 86 -26 q 94 -10 92 -15 q 104 1 99 -4 q 215 94 176 56 q 269 158 253 133 q 290 206 289 188 q 256 251 289 221 q 182 308 222 281 q 75 378 135 342 q 54 399 60 388 q 49 419 49 410 q 51 435 49 426 q 54 442 53 439 q 68 452 60 449 q 85 456 76 456 q 104 453 93 456 q 113 450 110 451 q 260 360 194 406 q 314 319 288 340 q 361 278 340 299 q 394 238 382 257 q 407 203 407 219 z "},"…":{"ha":771,"x_min":115,"x_max":658,"o":"m 658 89 q 651 53 658 68 q 633 28 643 38 q 609 14 622 18 q 586 10 596 10 q 549 25 560 10 q 538 60 538 40 q 541 86 538 72 q 553 112 544 100 q 575 131 561 124 q 608 138 589 138 q 622 136 614 138 q 639 130 631 135 q 653 115 647 125 q 658 89 658 106 m 446 115 q 438 79 446 94 q 420 54 431 64 q 397 40 410 44 q 374 36 383 36 q 336 51 347 36 q 325 86 325 67 q 328 113 325 99 q 340 138 332 126 q 363 157 349 150 q 396 164 376 164 q 410 163 401 164 q 426 156 418 161 q 440 142 435 151 q 446 115 446 132 m 236 89 q 228 53 236 68 q 210 28 221 38 q 187 14 200 18 q 164 10 174 10 q 126 25 138 10 q 115 60 115 40 q 119 86 115 72 q 131 112 122 100 q 153 131 139 124 q 186 138 167 138 q 200 136 192 138 q 217 130 208 135 q 231 115 225 125 q 236 89 236 106 z "},"À":{"ha":689,"x_min":28,"x_max":667,"o":"m 482 849 q 476 836 482 838 q 465 835 471 835 q 440 840 456 835 q 404 865 425 846 q 360 900 381 885 q 324 926 342 914 q 294 940 306 938 q 285 947 289 943 q 276 968 276 956 q 278 978 276 969 q 288 997 281 988 q 312 1015 296 1007 q 356 1022 328 1022 q 394 1001 372 1022 q 435 953 415 981 q 469 896 456 925 q 482 849 482 867 m 667 60 q 656 26 667 38 q 631 10 644 15 q 596 3 615 4 q 530 38 556 3 q 489 117 504 74 q 461 231 471 167 q 457 239 461 238 q 449 240 453 240 q 356 227 397 236 q 288 210 315 218 q 229 189 254 200 q 214 174 218 182 q 210 164 211 168 q 185 67 193 103 q 174 9 178 31 q 169 -26 171 -12 q 161 -57 167 -40 q 142 -88 154 -78 q 115 -103 129 -99 q 90 -109 101 -108 q 74 -110 79 -110 q 50 -101 58 -110 q 38 -81 42 -93 q 33 -58 33 -69 q 32 -42 32 -47 q 38 19 32 -14 q 50 82 43 53 q 69 151 58 117 q 67 161 69 158 q 64 163 65 163 q 35 185 42 171 q 28 207 28 200 q 49 253 33 236 q 79 279 64 269 q 118 293 97 289 q 129 300 124 294 q 132 304 131 303 q 165 383 144 336 q 212 481 186 429 q 267 583 238 532 q 328 676 297 635 q 387 742 358 717 q 440 768 415 768 q 458 764 456 768 q 471 760 460 760 q 480 765 475 760 q 492 777 485 771 q 512 790 500 783 q 540 796 524 796 q 567 788 553 797 q 582 739 582 779 q 581 710 582 722 q 578 679 579 697 q 576 634 578 661 q 575 561 575 607 q 578 447 575 508 q 590 322 581 385 q 614 203 599 260 q 654 104 629 146 q 667 60 667 76 m 454 382 q 452 454 453 414 q 451 531 451 494 l 451 614 q 450 619 451 617 q 444 625 447 625 q 410 600 428 621 q 374 549 392 579 q 341 486 357 519 q 313 424 325 453 q 294 376 301 396 q 286 356 286 357 q 292 342 286 342 q 306 345 292 342 q 343 353 321 349 q 392 361 365 357 q 443 367 418 365 q 449 369 446 367 q 454 382 454 375 z "},"Ã":{"ha":689,"x_min":28,"x_max":667,"o":"m 524 918 q 499 862 524 882 q 447 832 475 842 q 371 818 413 819 q 281 839 314 821 q 249 897 249 857 q 264 949 249 933 q 311 965 279 965 q 336 960 325 965 q 358 948 347 954 q 381 937 368 942 q 413 932 394 932 q 464 943 436 932 q 474 946 468 944 q 483 949 478 947 q 494 950 488 950 q 511 945 506 950 q 519 933 517 940 q 524 918 524 926 m 667 60 q 656 26 667 38 q 631 10 644 15 q 596 3 615 4 q 530 38 556 3 q 489 117 504 74 q 461 231 471 167 q 457 239 461 238 q 449 240 453 240 q 356 227 397 236 q 288 210 315 218 q 229 189 254 200 q 214 174 218 182 q 210 164 211 168 q 185 67 193 103 q 174 9 178 31 q 169 -26 171 -12 q 161 -57 167 -40 q 142 -88 154 -78 q 115 -103 129 -99 q 90 -109 101 -108 q 74 -110 79 -110 q 50 -101 58 -110 q 38 -81 42 -93 q 33 -58 33 -69 q 32 -42 32 -47 q 38 19 32 -14 q 50 82 43 53 q 69 151 58 117 q 67 161 69 158 q 64 163 65 163 q 35 185 42 171 q 28 207 28 200 q 49 253 33 236 q 79 279 64 269 q 118 293 97 289 q 129 300 124 294 q 132 304 131 303 q 165 383 144 336 q 212 481 186 429 q 267 583 238 532 q 328 676 297 635 q 387 742 358 717 q 440 768 415 768 q 458 764 456 768 q 471 760 460 760 q 480 765 475 760 q 492 777 485 771 q 512 790 500 783 q 540 796 524 796 q 567 788 553 797 q 582 739 582 779 q 581 710 582 722 q 578 679 579 697 q 576 634 578 661 q 575 561 575 607 q 578 447 575 508 q 590 322 581 385 q 614 203 599 260 q 654 104 629 146 q 667 60 667 76 m 454 382 q 452 454 453 414 q 451 531 451 494 l 451 614 q 450 619 451 617 q 444 625 447 625 q 410 600 428 621 q 374 549 392 579 q 341 486 357 519 q 313 424 325 453 q 294 376 301 396 q 286 356 286 357 q 292 342 286 342 q 306 345 292 342 q 343 353 321 349 q 392 361 365 357 q 443 367 418 365 q 449 369 446 367 q 454 382 454 375 z "},"Õ":{"ha":660,"x_min":19,"x_max":640,"o":"m 442 915 q 417 859 442 879 q 365 829 393 839 q 289 815 331 817 q 199 836 232 818 q 167 894 167 854 q 182 947 167 931 q 229 963 197 963 q 254 957 243 963 q 276 945 265 951 q 299 934 286 939 q 331 929 313 929 q 382 940 354 929 q 392 943 386 942 q 401 946 396 944 q 413 947 406 947 q 429 942 424 947 q 438 931 435 938 q 442 915 442 924 m 640 407 q 635 349 640 389 q 617 259 631 308 q 581 156 604 210 q 519 59 557 103 q 427 -12 481 15 q 301 -40 374 -40 q 224 -23 267 -40 q 145 33 182 -6 q 83 135 108 72 q 58 288 58 197 q 68 385 58 340 q 89 465 78 431 q 110 519 100 499 q 119 542 119 539 q 115 547 119 543 q 111 550 113 549 q 83 542 101 550 q 50 533 65 533 q 29 540 39 533 q 19 568 19 546 q 41 628 19 596 q 103 687 63 660 q 199 732 143 714 q 326 750 256 750 q 445 728 389 750 q 545 664 501 707 q 615 556 589 621 q 640 407 640 492 m 503 376 q 481 490 499 440 q 460 532 472 511 q 431 569 449 553 q 390 594 414 585 q 338 604 367 604 q 290 599 308 604 q 260 586 271 593 q 242 569 247 579 q 214 507 226 542 q 194 438 203 478 q 186 353 186 399 q 194 283 186 326 q 219 197 201 239 q 267 124 238 154 q 340 93 297 93 q 391 108 363 93 q 444 157 419 124 q 486 244 469 190 q 503 376 503 299 z "},"Œ":{"ha":1026,"x_min":19,"x_max":1036,"o":"m 1036 396 q 1012 345 1036 364 q 958 315 988 326 q 881 299 924 303 q 788 287 831 293 q 715 274 746 281 q 651 260 679 267 q 646 256 647 258 q 644 250 644 253 q 653 215 644 240 q 681 162 661 189 q 733 113 700 135 q 814 92 765 92 q 847 95 829 92 q 883 103 864 99 q 903 110 893 106 q 921 115 911 113 q 942 117 931 117 q 969 108 960 117 q 978 78 978 100 q 966 37 978 57 q 931 1 954 17 q 872 -25 907 -15 q 792 -35 838 -35 q 702 -24 742 -35 q 632 6 663 -12 q 580 47 601 24 q 544 93 558 69 q 447 -2 506 36 q 301 -40 389 -40 q 224 -23 267 -40 q 145 33 182 -6 q 83 135 108 72 q 58 288 58 197 q 68 385 58 340 q 89 465 78 431 q 110 519 100 499 q 119 542 119 539 q 115 547 119 543 q 111 550 113 549 q 83 542 101 550 q 50 533 65 533 q 29 540 39 533 q 19 568 19 546 q 41 628 19 596 q 103 687 63 660 q 199 732 143 714 q 326 750 256 750 q 472 716 404 750 q 585 614 540 682 q 691 714 628 672 q 846 756 754 756 q 874 754 856 756 q 910 747 893 753 q 941 727 928 740 q 954 692 954 714 q 924 636 954 649 q 842 624 894 624 q 761 606 796 624 q 701 560 726 588 q 661 499 676 532 q 639 435 646 465 q 640 421 640 428 q 640 407 640 414 q 640 399 640 404 q 639 390 640 394 q 644 389 640 389 q 798 409 715 400 q 958 418 881 418 q 984 417 971 418 q 1009 415 997 417 q 1028 408 1021 413 q 1036 396 1036 404 m 503 376 q 481 490 499 440 q 460 532 472 511 q 431 569 449 553 q 390 594 414 585 q 338 604 367 604 q 290 599 308 604 q 260 586 271 593 q 242 569 247 579 q 214 507 226 542 q 194 438 203 478 q 186 353 186 399 q 194 283 186 326 q 219 197 201 239 q 267 124 238 154 q 340 93 297 93 q 410 121 371 93 q 475 215 449 149 q 436 203 458 210 q 400 196 414 196 q 377 201 385 196 q 367 213 369 206 q 363 231 363 219 q 365 255 363 238 q 379 292 368 272 q 415 330 390 311 q 482 357 439 349 q 488 358 483 357 q 503 361 492 358 l 503 376 z "},"œ":{"ha":635,"x_min":33,"x_max":628,"o":"m 628 350 q 610 266 628 307 q 562 193 592 225 q 493 142 532 161 q 411 122 454 122 q 406 119 408 122 q 404 117 404 118 q 419 67 407 85 q 443 38 431 49 q 476 21 458 25 q 520 -5 513 11 q 528 -32 528 -21 q 519 -59 528 -50 q 499 -72 510 -68 q 471 -79 486 -78 q 408 -67 435 -79 q 363 -35 382 -54 q 333 3 344 -17 q 315 38 321 22 q 252 0 286 13 q 183 -12 218 -12 q 100 14 129 -12 q 57 72 71 40 q 39 158 42 110 q 46 219 39 190 q 63 271 53 247 q 88 321 74 297 q 83 326 88 322 q 81 328 82 328 q 46 337 58 328 q 33 360 33 346 q 48 396 33 378 q 87 427 63 414 q 141 449 111 440 q 200 457 171 457 q 240 453 217 457 q 287 441 263 450 q 333 417 311 432 q 372 376 356 401 q 437 437 400 411 q 524 463 474 463 q 556 458 538 463 q 590 442 574 454 q 617 407 606 429 q 628 350 628 385 m 528 336 q 525 350 528 344 q 518 360 522 356 q 506 365 514 365 q 469 351 488 365 q 436 314 451 336 q 411 266 421 292 q 401 218 401 240 l 401 210 q 433 217 413 210 q 475 240 454 225 q 512 279 496 256 q 528 336 528 303 m 293 231 q 283 292 292 265 q 262 333 276 315 q 219 351 247 351 q 199 342 211 351 q 177 313 188 332 q 159 264 167 293 q 151 197 151 235 q 152 167 151 186 q 159 129 153 149 q 178 96 165 110 q 217 82 192 82 q 260 105 244 82 q 282 156 275 128 q 293 231 290 189 z "},"–":{"ha":388,"x_min":15,"x_max":368,"o":"m 368 333 q 344 301 368 307 q 290 294 319 294 l 242 294 q 174 288 210 294 q 110 275 139 282 q 42 257 75 267 q 26 267 35 260 q 15 293 18 274 q 28 323 15 311 q 57 341 40 335 q 90 351 74 347 q 115 357 107 354 q 163 368 138 363 q 213 376 185 372 q 272 381 240 381 q 305 379 288 381 q 338 375 322 378 q 365 356 361 369 q 368 333 368 343 z "},"—":{"ha":764,"x_min":29,"x_max":735,"o":"m 735 333 q 721 313 735 321 q 685 301 707 306 q 636 296 664 297 q 579 294 608 294 l 481 294 q 347 288 417 294 q 219 275 278 282 q 83 257 151 267 q 51 267 68 260 q 29 293 33 274 q 54 323 29 311 q 113 342 79 335 q 180 352 146 349 q 231 357 214 356 q 324 368 274 363 q 423 376 367 372 q 543 381 479 381 q 608 379 575 381 q 674 375 642 378 q 708 367 696 372 q 727 356 721 363 q 734 344 733 350 q 735 333 735 338 z "},"“":{"ha":426,"x_min":63,"x_max":349,"o":"m 349 683 q 349 674 349 679 q 347 664 349 669 q 344 642 346 654 q 342 618 343 631 q 342 592 342 606 q 342 568 342 579 q 343 549 342 557 q 344 531 343 539 q 347 521 346 525 q 347 513 347 517 q 330 472 347 483 q 304 461 313 461 q 266 484 279 461 q 247 534 253 507 q 240 585 240 561 q 239 611 239 608 q 241 644 239 625 q 250 681 243 664 q 270 713 257 699 q 306 729 283 726 q 332 722 315 729 q 349 683 349 714 m 169 479 q 165 457 169 465 q 153 444 160 449 q 139 437 146 439 q 129 435 132 435 q 94 449 107 435 q 74 485 81 464 q 65 530 67 506 q 63 575 63 554 l 63 606 q 64 618 63 611 q 72 654 65 639 q 90 680 79 668 q 122 693 101 692 q 147 685 133 694 q 161 631 161 675 l 161 590 q 163 544 161 569 q 168 492 164 518 q 169 479 169 488 z "},"”":{"ha":464,"x_min":125,"x_max":411,"o":"m 411 575 q 409 530 411 554 q 400 485 407 506 q 380 449 393 464 q 344 435 367 435 q 335 437 342 435 q 321 444 328 439 q 309 457 314 449 q 304 479 304 465 q 306 492 304 488 q 311 544 310 518 q 313 590 313 569 l 313 631 q 326 685 313 675 q 351 693 340 694 q 383 680 371 692 q 401 654 394 668 q 410 618 408 639 l 410 606 q 410 592 410 599 q 411 575 411 585 m 235 611 q 234 585 235 608 q 227 534 233 561 q 208 484 221 507 q 169 461 194 461 q 144 472 161 461 q 126 513 126 483 q 127 521 126 517 q 129 531 128 525 q 131 549 129 539 q 131 568 131 557 q 132 592 132 579 q 131 618 132 606 q 129 642 131 631 q 126 664 128 654 q 125 674 125 669 q 125 683 125 679 q 142 722 125 714 q 168 729 158 729 q 203 713 190 726 q 224 681 217 699 q 233 644 231 664 q 235 611 235 625 z "},"‘":{"ha":232,"x_min":63,"x_max":169,"o":"m 169 479 q 165 457 169 465 q 153 444 160 449 q 139 437 146 439 q 129 435 132 435 q 94 449 107 435 q 74 485 81 464 q 65 530 67 506 q 63 575 63 554 l 63 606 q 64 618 63 611 q 72 654 65 639 q 90 680 79 668 q 122 693 101 692 q 147 685 133 694 q 161 631 161 675 l 161 590 q 163 544 161 569 q 168 492 164 518 q 169 479 169 488 z "},"’":{"ha":246,"x_min":86,"x_max":193,"o":"m 193 575 q 191 530 193 554 q 182 485 189 506 q 162 449 175 464 q 126 435 149 435 q 117 437 124 435 q 103 444 110 439 q 91 457 96 449 q 86 479 86 465 q 88 492 86 488 q 93 544 92 518 q 94 590 94 569 l 94 631 q 108 685 94 675 q 133 693 122 694 q 165 680 153 692 q 183 654 176 668 q 192 618 190 639 l 192 606 q 192 592 192 599 q 193 575 193 585 z "},"÷":{"ha":617,"x_min":63,"x_max":554,"o":"m 394 515 q 378 469 394 490 q 331 447 363 447 q 301 457 314 447 q 286 490 288 467 q 294 524 288 508 q 314 547 301 536 q 350 558 326 558 q 384 545 374 558 q 394 515 394 532 m 554 349 q 544 328 554 336 q 519 317 535 321 q 485 311 504 313 q 444 310 465 310 l 376 310 q 283 303 332 310 q 194 290 235 297 q 101 272 147 282 q 78 282 90 275 q 63 308 67 289 q 80 338 63 326 q 121 356 97 350 q 168 366 144 363 q 203 372 192 369 q 268 383 232 378 q 338 392 299 388 q 421 396 376 396 q 465 394 443 396 q 511 390 488 393 q 549 372 543 385 q 554 349 554 358 m 375 201 q 359 155 375 176 q 311 133 343 133 q 281 143 294 133 q 267 176 268 153 q 275 210 268 194 q 294 233 282 222 q 331 244 307 244 q 365 231 354 244 q 375 201 375 218 z "},"ÿ":{"ha":461,"x_min":21,"x_max":421,"o":"m 385 585 q 370 539 385 561 q 324 517 356 517 q 292 526 306 517 q 278 560 278 536 q 288 593 281 578 q 306 617 294 606 q 340 628 318 628 q 374 615 363 628 q 385 585 385 601 m 183 592 q 169 546 183 568 q 122 524 154 524 q 90 533 104 524 q 76 567 76 543 q 86 600 79 585 q 105 624 93 613 q 139 635 117 635 q 172 622 161 635 q 183 592 183 608 m 421 328 q 417 283 421 307 q 409 226 414 260 q 401 147 404 193 q 397 35 397 100 q 370 -196 397 -96 q 304 -364 343 -296 q 221 -467 265 -432 q 142 -501 176 -501 q 125 -498 131 -501 q 117 -489 119 -494 q 113 -475 113 -483 q 117 -455 113 -465 q 129 -436 122 -444 q 147 -417 136 -426 q 230 -290 200 -362 q 275 -144 260 -218 q 294 -5 290 -71 q 299 103 299 61 q 296 111 299 111 q 292 108 294 111 l 290 107 q 236 27 263 54 q 188 -14 210 0 q 139 -32 163 -29 q 81 -6 103 -32 q 44 58 58 19 q 26 140 31 96 q 21 219 21 183 q 51 395 21 332 q 132 458 81 458 q 142 458 135 458 q 155 453 149 457 q 166 442 161 450 q 171 421 171 435 q 161 385 171 406 q 142 331 150 360 q 128 272 135 306 q 122 200 122 238 q 123 174 122 192 q 127 137 124 156 q 138 104 131 118 q 160 90 146 90 q 183 98 169 90 q 214 129 196 106 q 254 196 232 153 q 306 308 276 239 q 324 344 313 329 q 348 370 333 358 q 383 382 363 382 q 394 381 388 382 q 407 374 401 379 q 417 358 413 369 q 421 328 421 347 z "},"Ÿ":{"ha":571,"x_min":3,"x_max":554,"o":"m 426 876 q 412 831 426 853 q 365 808 397 808 q 333 818 347 808 q 319 851 319 828 q 329 885 322 869 q 348 908 336 897 q 382 919 360 919 q 415 906 404 919 q 426 876 426 893 m 225 883 q 210 838 225 860 q 164 815 196 815 q 132 825 146 815 q 118 858 118 835 q 128 892 121 876 q 147 915 135 904 q 181 926 158 926 q 214 913 203 926 q 225 883 225 900 m 554 738 q 553 707 554 733 q 544 634 551 681 q 522 522 538 588 q 478 374 507 457 q 479 369 478 371 q 481 367 481 368 q 483 365 481 365 q 526 338 517 357 q 532 318 532 328 q 502 258 532 281 q 436 236 472 236 q 426 232 431 236 q 424 228 424 229 q 369 111 403 174 q 293 -5 336 49 q 199 -94 250 -58 q 90 -129 147 -129 q 51 -120 65 -129 q 31 -100 38 -111 q 21 -69 22 -86 q 26 -42 21 -53 q 38 -24 31 -31 q 56 -10 44 -15 q 137 17 103 -3 q 193 60 171 38 q 236 115 218 85 q 268 171 253 143 q 294 229 283 199 q 296 236 296 232 q 290 242 296 242 q 140 299 197 260 q 53 388 83 339 q 13 488 22 436 q 3 579 3 539 q 7 639 3 615 q 11 663 8 651 q 28 693 17 679 q 51 715 38 704 q 89 725 65 725 q 101 724 90 725 q 122 717 111 724 q 141 699 132 711 q 150 663 150 686 q 149 645 150 651 q 146 631 147 639 q 143 611 144 624 q 142 575 142 599 q 152 500 142 535 q 185 439 163 465 q 247 395 208 413 q 342 372 285 378 q 350 381 347 372 q 383 496 369 438 q 403 603 396 554 q 415 711 411 658 q 439 758 415 732 q 506 783 463 783 q 538 775 522 783 q 554 738 554 767 z "},"⁄":{"ha":638,"x_min":50,"x_max":571,"o":"m 571 663 q 567 640 571 651 q 558 619 563 628 q 546 600 553 608 q 460 475 510 546 q 360 331 411 404 q 263 190 308 257 q 188 75 217 122 q 160 30 171 49 q 143 -3 150 11 q 131 -29 136 -18 q 112 -54 124 -49 q 89 -60 100 -60 q 76 -58 79 -60 q 71 -57 74 -58 q 54 -43 58 -51 q 50 -26 50 -35 q 53 -8 50 -17 q 57 -1 54 -4 q 109 88 63 18 q 224 255 156 157 q 372 467 293 353 q 521 689 451 581 q 526 694 522 692 q 533 699 529 697 q 542 701 538 701 q 560 691 550 701 q 571 663 571 681 z "},"‹":{"ha":457,"x_min":47,"x_max":408,"o":"m 408 436 q 400 413 408 425 q 367 389 392 400 q 268 322 313 354 q 199 267 231 294 q 165 224 168 239 l 165 221 q 170 203 165 217 q 194 163 175 189 q 251 94 214 136 q 356 -7 289 53 q 367 -17 361 -11 q 375 -29 371 -22 q 379 -43 379 -36 q 366 -69 379 -58 q 338 -79 353 -79 q 318 -76 326 -79 q 303 -68 310 -72 q 288 -56 294 -62 q 159 60 207 13 q 86 141 111 108 q 54 192 61 174 q 47 218 47 210 q 69 267 47 240 q 123 322 90 294 q 193 374 156 349 q 263 419 231 400 q 315 451 294 439 q 335 464 336 464 q 344 467 339 465 q 354 469 349 468 q 367 471 360 471 q 395 464 382 471 q 408 436 408 457 z "}}}
